<svg width="192" height="50" viewBox="0 0 192 50" fill="none" xmlns="http://www.w3.org/2000/svg">
<path d="M145.905 39.8616C146.422 40.3602 146.923 40.8207 147.398 41.306C148.989 42.9262 150.862 43.5051 153.078 42.9835C154.966 42.5384 155.945 41.1302 156.664 39.5005C157.002 38.7362 157.116 37.8707 157.38 36.8619C156.74 37.2879 156.309 37.6452 155.822 37.8841C152.679 39.4221 147.625 38.3751 146.243 33.2393C145.988 32.2955 145.804 31.3134 145.742 30.339C145.549 27.3335 145.721 24.351 146.715 21.4813C147.765 18.4453 149.595 16.0493 152.33 14.3164C154.949 12.656 157.843 12.4879 160.772 12.4287C163.634 12.3714 166.497 12.4096 169.36 12.4134C169.6 12.4134 169.838 12.4688 170.119 12.5032C169.982 13.4738 169.885 14.3871 169.717 15.2832C168.816 20.0617 167.885 24.8363 166.986 29.6148C166.529 32.0509 166.178 34.5099 165.666 36.9326C165.133 39.445 164.542 41.9537 163.267 44.2255C161.107 48.0735 157.699 49.7453 153.471 49.9765C151.18 50.1007 148.955 49.73 146.802 48.9466C146.035 48.6677 144.435 47.8308 143.661 46.7169C144.39 44.4891 145.143 42.1887 145.905 39.8616ZM160.736 18.9611C159.654 18.5465 158.991 18.6535 157.885 19.3547C154.829 21.2902 153.293 26.4394 154.604 30.0791C155.093 31.4395 156.279 32.3069 158.215 31.258C159.052 27.1826 159.896 23.0614 160.736 18.9611Z" fill="#808080"/>
<path d="M43.5694 37.9452C40.6835 37.9452 37.8637 37.9452 35.0004 37.9452C35.0004 37.6854 34.9683 37.4694 35.0061 37.2669C35.8163 32.8247 36.6606 28.3901 37.4349 23.9422C37.6823 22.5206 38.096 21.0667 37.4633 19.6241C36.3621 18.6669 34.5056 19.2172 34.2166 20.6616C33.6632 23.4358 33.208 26.2292 32.7019 29.013C32.1787 31.8904 31.6461 34.7678 31.1116 37.6433C31.0946 37.7293 31.0228 37.8057 30.951 37.928C28.152 37.928 25.3378 37.928 22.3688 37.928C24.5465 25.9006 26.7071 13.9648 28.8886 1.91063C31.8198 1.29159 34.7549 0.670633 37.9373 0C37.0855 4.76703 36.2715 9.31434 35.4235 14.0527C35.9787 13.6477 36.381 13.3324 36.8041 13.0496C38.8156 11.716 40.9668 11.2575 43.2502 12.2032C45.4071 13.0993 46.4931 14.8399 46.6782 17.1499C46.9011 19.9394 46.4006 22.6582 45.8698 25.3828C45.086 29.4085 44.4174 33.4552 43.6959 37.4943C43.6752 37.6166 43.6298 37.735 43.5694 37.9452Z" fill="#808080"/>
<path d="M128.377 37.9242C125.471 37.9242 122.628 37.9242 119.676 37.9242C121.189 29.5308 122.685 21.2233 124.194 12.8433C127.046 12.3943 129.826 11.9567 132.708 11.5039C132.708 12.3714 132.708 13.1222 132.708 14.0699C133.071 13.812 133.294 13.6706 133.496 13.5044C135.111 12.1841 136.935 11.5823 139.018 11.7676C141.243 11.9644 143.498 13.8865 143.816 16.1926C144.131 18.4892 144.023 20.7839 143.644 23.0403C142.866 27.6488 141.959 32.2362 141.102 36.8313C141.037 37.1733 140.952 37.5115 140.862 37.9184C138.027 37.9184 135.215 37.9184 132.285 37.9184C132.466 36.7167 132.616 35.534 132.825 34.3628C133.566 30.2301 134.355 26.1069 135.052 21.9685C135.167 21.2864 134.977 20.5279 134.822 19.8286C134.697 19.2707 134.214 19.0452 133.66 19.0376C132.771 19.0261 131.696 19.8649 131.535 20.7418C130.572 25.9961 129.624 31.2522 128.668 36.5065C128.585 36.9708 128.479 37.4312 128.377 37.9242Z" fill="#808080"/>
<path d="M72.9216 12.5376C71.3559 20.9979 69.7977 29.4238 68.2263 37.9146C65.4367 37.9146 62.7226 37.9146 59.9557 37.9146C59.9557 37.5994 59.9557 37.3261 59.9557 36.9459C57.7799 38.7801 55.4417 38.8719 52.9751 37.9777C51.4792 37.4351 50.4348 36.3689 49.6963 34.9914C49.0145 33.7189 48.6538 32.3451 48.5442 30.893C48.2741 27.3622 48.4668 23.8753 49.8021 20.568C51.1034 17.3486 53.3661 14.9775 56.5183 13.5445C57.9348 12.9006 59.4514 12.5739 61.0039 12.5471C64.7794 12.4803 68.5568 12.4535 72.3323 12.4172C72.4815 12.4153 72.6307 12.4764 72.9216 12.5376ZM60.951 31.2924C61.7991 27.1635 62.6471 23.0403 63.5008 18.8866C61.9067 18.3593 60.7981 19.1025 59.8141 20.0082C58.1445 21.5462 57.338 23.5753 56.9376 25.7745C56.658 27.3087 56.7789 28.8181 57.4324 30.2568C58.1199 31.7719 59.3268 32.1598 60.951 31.2924Z" fill="#808080"/>
<path d="M21.3433 28.4207C20.7521 31.3019 20.1931 34.036 19.5981 36.9383C19.1921 37.1829 18.7237 37.6089 18.1778 37.7713C15.3089 38.6273 12.3852 38.998 9.41617 38.4171C5.53679 37.6605 2.9965 35.2569 1.51765 31.6363C-0.116068 27.6354 -0.337045 23.5046 0.408989 19.2687C0.951044 16.1888 1.99171 13.3152 3.71232 10.7263C5.25538 8.40297 7.25173 6.56112 9.66737 5.14534C13.9018 2.66151 18.14 3.03791 22.4255 4.92562C22.8561 5.11477 23.2905 5.3001 23.7098 5.51409C24.0158 5.67076 24.2972 5.8752 24.6693 6.11021C24.0214 8.78127 23.3755 11.4504 22.6937 14.2648C22.2404 13.854 21.908 13.5388 21.5605 13.2426C18.7841 10.8792 16.3193 11.2479 13.9471 12.8815C9.8449 15.7054 7.71446 22.1156 9.71647 26.9017C11.2671 30.6065 14.7347 31.8942 18.463 30.1307C19.4168 29.676 20.2932 29.0493 21.3433 28.4207Z" fill="#808080"/>
<path d="M190.84 27.515C186.625 27.515 182.494 27.515 178.352 27.515C178.636 29.9626 180.164 31.4395 182.381 31.7032C184.424 31.9458 186.23 31.3573 187.964 30.3772C188.691 29.9664 189.405 29.5365 190.31 29.0092C189.941 30.6886 189.624 32.1674 189.29 33.6425C189.178 34.1373 188.938 34.6188 188.908 35.1155C188.816 36.646 187.771 37.3816 186.572 37.8076C183.287 38.975 179.956 39.275 176.605 37.9853C175.023 37.3758 173.774 36.3575 172.815 34.9761C171.001 32.3604 170.497 29.3856 170.599 26.2674C170.699 23.2047 171.398 20.2699 172.807 17.5645C174.248 14.7998 176.46 12.9503 179.559 12.2472C181.856 11.7256 184.124 11.7045 186.366 12.3847C188.481 13.0267 190.021 14.4673 190.721 16.5499C191.917 20.0999 191.879 23.7263 190.84 27.515ZM178.817 21.55C180.675 21.55 182.377 21.55 184.211 21.55C184.211 20.8106 184.292 20.14 184.196 19.498C183.939 17.788 182.485 17.1651 181.047 18.0994C179.837 18.8866 179.283 20.1018 178.817 21.55Z" fill="#808080"/>
<path d="M118.473 27.4883C114.382 27.4883 110.216 27.4883 106.044 27.4883C106.189 30.0485 108.129 31.4146 109.751 31.6649C111.942 32.0031 113.918 31.4146 115.786 30.3084C116.452 29.9129 117.123 29.5269 117.937 29.0493C117.782 29.9358 117.68 30.6542 117.527 31.3592C117.257 32.6012 116.906 33.8259 116.683 35.0754C116.43 36.4969 115.551 37.3586 114.31 37.7962C111.024 38.9521 107.702 39.2769 104.346 37.9968C102.166 37.1657 100.659 35.6295 99.6844 33.5469C97.6654 29.2346 97.9997 24.844 99.3407 20.4342C99.7864 18.9726 100.383 17.5893 101.263 16.3245C102.888 13.9954 105.069 12.6045 107.836 12.1172C110.533 11.6434 113.158 11.7237 115.616 13.1203C117.215 14.0298 118.201 15.4933 118.645 17.2091C119.504 20.5221 119.455 23.881 118.649 27.217C118.639 27.2743 118.585 27.3221 118.473 27.4883ZM111.787 21.5806C111.787 20.7189 111.882 19.8935 111.763 19.1044C111.608 18.0708 110.69 17.5224 109.668 17.7039C108.202 17.9619 106.642 20.0215 106.767 21.5825C108.414 21.5806 110.063 21.5806 111.787 21.5806Z" fill="#808080"/>
<path d="M78.2893 1.89153C81.2564 1.27057 84.1896 0.659169 87.3002 0.00764254C84.9809 12.7802 82.7069 25.3083 80.4178 37.9127C77.5338 37.9127 74.663 37.9127 71.6996 37.9127C71.7827 37.4523 71.8526 37.0529 71.9244 36.6555C73.1482 29.9951 74.3816 23.3384 75.5941 16.676C76.4478 11.9854 77.2731 7.29098 78.1155 2.59655C78.1476 2.41122 78.2043 2.23162 78.2893 1.89153Z" fill="#808080"/>
<path d="M92.836 37.9395C89.9217 37.9395 87.134 37.9395 84.1933 37.9395C86.371 25.9216 88.5336 13.9839 90.7207 1.90872C93.6614 1.29159 96.6209 0.668722 99.7751 0.0057319C99.6655 0.69165 99.6051 1.14829 99.5201 1.5992C98.6003 6.53819 97.6711 11.4753 96.7588 16.4162C96.1053 19.9489 95.4688 23.4836 94.8323 27.0202C94.2468 30.274 93.6727 33.5316 93.0891 36.7854C93.0249 37.1561 92.9285 37.521 92.836 37.9395Z" fill="#808080"/>
<path d="M81.3716 48.6027H80.0118V42.8823H81.3716V48.6027Z" fill="#808080"/>
<path d="M87.0415 48.6027H85.6854L83.6815 45.0432V48.6027H82.3178V42.8823H83.6815L85.6816 46.4418V42.8823H87.0415V48.6027Z" fill="#808080"/>
<path d="M92.2297 43.9465H90.5318V48.6027H89.1681V43.9465H87.5023V42.8823H92.2297V43.9465Z" fill="#808080"/>
<path d="M96.3131 46.1743H94.1694V47.5423H96.7003V48.6027H92.8058V42.8823H96.7097V43.9465H94.1694V45.1521H96.3131V46.1743Z" fill="#808080"/>
<path d="M99.3577 46.5793H98.6192V48.6027H97.2555V42.8823H99.4804C100.151 42.8823 100.676 43.0332 101.054 43.3332C101.431 43.6332 101.62 44.0592 101.62 44.6095C101.62 45.0069 101.541 45.3374 101.382 45.5992C101.224 45.861 100.974 46.073 100.634 46.2354L101.815 48.5454V48.6046H100.355L99.3577 46.5793ZM98.6192 45.519H99.4804C99.7392 45.519 99.9337 45.4502 100.064 45.3126C100.194 45.175 100.26 44.9821 100.26 44.7356C100.26 44.4891 100.194 44.2961 100.062 44.1548C99.9299 44.0134 99.7354 43.9446 99.4804 43.9446H98.6192V45.519Z" fill="#808080"/>
<path d="M107.167 48.6027H105.811L103.807 45.0432V48.6027H102.444V42.8823H103.807L105.808 46.4418V42.8823H107.167V48.6027Z" fill="#808080"/>
<path d="M111.311 47.5347H109.443L109.117 48.6027H107.66L109.734 42.8823H111.017L113.105 48.6027H111.642L111.311 47.5347ZM109.77 46.4685H110.986L110.376 44.4853L109.77 46.4685Z" fill="#808080"/>
<path d="M117.491 43.9465H115.793V48.6027H114.429V43.9465H112.764V42.8823H117.491V43.9465Z" fill="#808080"/>
<path d="M119.519 48.6027H118.16V42.8823H119.519V48.6027Z" fill="#808080"/>
<path d="M125.255 45.861C125.255 46.4189 125.153 46.9118 124.948 47.3417C124.742 47.7716 124.453 48.1021 124.075 48.3333C123.697 48.5645 123.269 48.681 122.787 48.681C122.305 48.681 121.878 48.5683 121.504 48.3448C121.132 48.1212 120.842 47.8003 120.632 47.3837C120.422 46.9672 120.315 46.4896 120.303 45.9488V45.6259C120.303 45.0661 120.405 44.5713 120.607 44.1433C120.811 43.7153 121.102 43.3848 121.482 43.1517C121.861 42.9186 122.292 42.802 122.777 42.802C123.257 42.802 123.684 42.9167 124.06 43.1479C124.436 43.379 124.727 43.7058 124.936 44.1318C125.144 44.5579 125.25 45.0451 125.254 45.5954V45.861H125.255ZM123.869 45.6202C123.869 45.0528 123.775 44.621 123.588 44.3248C123.401 44.0306 123.131 43.8834 122.781 43.8834C122.098 43.8834 121.737 44.4012 121.697 45.4387L121.693 45.859C121.693 46.4189 121.786 46.8507 121.969 47.1525C122.152 47.4544 122.426 47.6035 122.789 47.6035C123.133 47.6035 123.399 47.4563 123.586 47.1602C123.773 46.864 123.867 46.438 123.869 45.8839V45.6202Z" fill="#808080"/>
<path d="M130.68 48.6027H129.324L127.32 45.0432V48.6027H125.956V42.8823H127.32L129.32 46.4418V42.8823H130.68V48.6027Z" fill="#808080"/>
<path d="M134.825 47.5347H132.958L132.631 48.6027H131.175L133.248 42.8823H134.531L136.62 48.6027H135.156L134.825 47.5347ZM133.282 46.4685H134.499L133.889 44.4853L133.282 46.4685Z" fill="#808080"/>
<path d="M138.393 47.5423H140.765V48.6027H137.03V42.8823H138.393V47.5423Z" fill="#808080"/>
<path d="M125.07 7.38651H126.95V8.10682H124.185V3.75822H125.07V7.38651Z" fill="#808080"/>
<path d="M126.797 5.09375L126.394 4.85874C126.564 4.58934 126.651 4.3123 126.657 4.02571V3.5213H127.335V3.98367C127.335 4.16327 127.286 4.35625 127.188 4.56642C127.091 4.77467 126.961 4.95045 126.797 5.09375Z" fill="#808080"/>
<path d="M130.066 7.21073H128.513L128.219 8.10682H127.278L128.878 3.76013H129.698L131.307 8.10682H130.366L130.066 7.21073ZM128.753 6.48469H129.828L129.288 4.85683L128.753 6.48469Z" fill="#808080"/>
<path d="M131.885 8.10491V5.50836H131.409V4.87594H131.885V4.60081C131.885 4.23779 131.987 3.95692 132.193 3.75822C132.398 3.5576 132.686 3.45825 133.056 3.45825C133.175 3.45825 133.318 3.47735 133.49 3.51748L133.481 4.1862C133.409 4.169 133.324 4.15945 133.22 4.15945C132.899 4.15945 132.738 4.3123 132.738 4.61609V4.87594H133.373V5.50836H132.738V8.10491H131.885Z" fill="#808080"/>
<path d="M135.611 5.68414C135.494 5.66885 135.392 5.6593 135.303 5.6593C134.98 5.6593 134.769 5.77012 134.669 5.98984V8.103H133.815V4.87594H134.621L134.646 5.26189C134.818 4.96574 135.054 4.81671 135.358 4.81671C135.452 4.81671 135.541 4.83008 135.624 4.85492L135.611 5.68414Z" fill="#808080"/>
<path d="M136.015 4.03908C136.015 3.90916 136.059 3.80407 136.144 3.72C136.229 3.63594 136.346 3.5939 136.493 3.5939C136.639 3.5939 136.754 3.63594 136.841 3.72C136.928 3.80407 136.971 3.91107 136.971 4.03908C136.971 4.17091 136.928 4.27791 136.839 4.36198C136.752 4.44605 136.635 4.48808 136.491 4.48808C136.348 4.48808 136.233 4.44605 136.144 4.36198C136.061 4.27791 136.015 4.17091 136.015 4.03908ZM136.922 8.10491H136.066V4.87594H136.922V8.10491Z" fill="#808080"/>
<path d="M137.492 6.45985C137.492 5.95163 137.604 5.5523 137.827 5.25616C138.049 4.96192 138.355 4.8148 138.746 4.8148C139.088 4.8148 139.36 4.94663 139.564 5.21221L139.621 4.87403H140.371V9.34682H139.515V7.82787C139.319 8.05332 139.06 8.16605 138.743 8.16605C138.363 8.16605 138.059 8.01702 137.834 7.71896C137.606 7.41899 137.492 7.00056 137.492 6.45985ZM138.344 6.5229C138.344 6.83243 138.397 7.06744 138.505 7.22793C138.612 7.39033 138.763 7.47058 138.958 7.47058C139.219 7.47058 139.404 7.3655 139.513 7.15341V5.81597C139.407 5.61344 139.224 5.51027 138.964 5.51027C138.767 5.51027 138.614 5.59052 138.507 5.75292C138.399 5.91532 138.344 6.17135 138.344 6.5229Z" fill="#808080"/>
<path d="M142.951 7.77819C142.739 8.03613 142.448 8.16605 142.076 8.16605C141.734 8.16605 141.472 8.0667 141.292 7.86799C141.113 7.66929 141.02 7.37696 141.017 6.99292V4.87594H141.87V6.96426C141.87 7.30053 142.021 7.46867 142.325 7.46867C142.614 7.46867 142.813 7.36741 142.922 7.16297V4.87594H143.778V8.10682H142.975L142.951 7.77819Z" fill="#808080"/>
<path d="M145.891 8.16605C145.423 8.16605 145.041 8.02084 144.749 7.73043C144.454 7.44001 144.307 7.05215 144.307 6.56876V6.48469C144.307 6.15988 144.369 5.86947 144.492 5.61535C144.616 5.35933 144.792 5.16253 145.019 5.02497C145.245 4.8874 145.506 4.81671 145.797 4.81671C146.233 4.81671 146.577 4.95619 146.828 5.23514C147.079 5.51409 147.204 5.90959 147.204 6.41973V6.77129H145.17C145.198 6.98146 145.281 7.1515 145.419 7.27952C145.557 7.40753 145.733 7.47058 145.946 7.47058C146.275 7.47058 146.532 7.35021 146.717 7.10947L147.136 7.58331C147.008 7.76673 146.836 7.91003 146.617 8.01129C146.397 8.11255 146.156 8.16605 145.891 8.16605ZM145.793 5.51218C145.623 5.51218 145.487 5.5695 145.381 5.68605C145.276 5.8026 145.209 5.96882 145.179 6.18472H146.365V6.11403C146.362 5.92297 146.311 5.77394 146.212 5.66885C146.114 5.56377 145.974 5.51218 145.793 5.51218Z" fill="#808080"/>
<path d="M149.061 6.45985C149.061 6.13887 149.121 5.85418 149.244 5.60389C149.367 5.3536 149.542 5.15871 149.771 5.02115C149.999 4.88358 150.266 4.8148 150.57 4.8148C151 4.8148 151.352 4.94854 151.625 5.21412C151.897 5.48161 152.05 5.84272 152.081 6.30127L152.086 6.5229C152.086 7.01776 151.95 7.41517 151.676 7.71514C151.403 8.01511 151.036 8.16414 150.575 8.16414C150.114 8.16414 149.748 8.01511 149.472 7.71705C149.197 7.41899 149.061 7.01203 149.061 6.49807V6.45985ZM149.912 6.5229C149.912 6.83052 149.969 7.06553 150.084 7.22793C150.198 7.39033 150.362 7.47249 150.573 7.47249C150.779 7.47249 150.942 7.39224 151.057 7.23175C151.172 7.07126 151.231 6.81523 151.231 6.46177C151.231 6.15988 151.172 5.92679 151.057 5.76247C150.94 5.59625 150.777 5.51409 150.568 5.51409C150.36 5.51409 150.198 5.59625 150.084 5.76056C149.969 5.92297 149.912 6.17708 149.912 6.5229Z" fill="#808080"/>
<path d="M152.844 8.10491V5.50836H152.368V4.87594H152.844V4.60081C152.844 4.23779 152.946 3.95692 153.151 3.75822C153.357 3.5576 153.644 3.45825 154.015 3.45825C154.134 3.45825 154.277 3.47735 154.449 3.51748L154.44 4.1862C154.368 4.169 154.283 4.15945 154.179 4.15945C153.858 4.15945 153.697 4.3123 153.697 4.61609V4.87594H154.332V5.50836H153.697V8.10491H152.844Z" fill="#808080"/>
<path d="M155.01 8.10491V5.50836H154.534V4.87594H155.01V4.60081C155.01 4.23779 155.112 3.95692 155.318 3.75822C155.524 3.5576 155.811 3.45825 156.181 3.45825C156.3 3.45825 156.443 3.47735 156.615 3.51748L156.606 4.1862C156.534 4.169 156.449 4.15945 156.345 4.15945C156.024 4.15945 155.864 4.3123 155.864 4.61609V4.87594H156.498V5.50836H155.864V8.10491H155.01Z" fill="#808080"/>
<path d="M158.736 5.68414C158.619 5.66885 158.517 5.6593 158.428 5.6593C158.105 5.6593 157.894 5.77012 157.794 5.98984V8.103H156.94V4.87594H157.747L157.771 5.26189C157.943 4.96574 158.179 4.81671 158.483 4.81671C158.578 4.81671 158.666 4.83008 158.75 4.85492L158.736 5.68414Z" fill="#808080"/>
<path d="M160.561 8.16605C160.092 8.16605 159.711 8.02084 159.418 7.73043C159.123 7.44001 158.976 7.05215 158.976 6.56876V6.48469C158.976 6.15988 159.039 5.86947 159.161 5.61535C159.286 5.35933 159.462 5.16253 159.688 5.02497C159.915 4.8874 160.176 4.81671 160.466 4.81671C160.903 4.81671 161.246 4.95619 161.498 5.23514C161.749 5.51409 161.873 5.90959 161.873 6.41973V6.77129H159.839C159.868 6.98146 159.951 7.1515 160.089 7.27952C160.226 7.40753 160.402 7.47058 160.616 7.47058C160.944 7.47058 161.201 7.35021 161.386 7.10947L161.805 7.58331C161.677 7.76673 161.505 7.91003 161.286 8.01129C161.067 8.11255 160.825 8.16605 160.561 8.16605ZM160.463 5.51218C160.293 5.51218 160.157 5.5695 160.051 5.68605C159.945 5.8026 159.879 5.96882 159.849 6.18472H161.035V6.11403C161.031 5.92297 160.98 5.77394 160.882 5.66885C160.784 5.56377 160.644 5.51218 160.463 5.51218Z" fill="#808080"/>
<path d="M164.763 8.10491H163.908V3.51939H164.763V8.10491Z" fill="#808080"/>
<path d="M166.935 8.16605C166.467 8.16605 166.085 8.02084 165.792 7.73043C165.498 7.44001 165.351 7.05215 165.351 6.56876V6.48469C165.351 6.15988 165.413 5.86947 165.536 5.61535C165.66 5.35933 165.836 5.16253 166.063 5.02497C166.289 4.8874 166.55 4.81671 166.841 4.81671C167.277 4.81671 167.621 4.95619 167.872 5.23514C168.123 5.51409 168.248 5.90959 168.248 6.41973V6.77129H166.214C166.242 6.98146 166.325 7.1515 166.463 7.27952C166.601 7.40753 166.776 7.47058 166.99 7.47058C167.319 7.47058 167.575 7.35021 167.76 7.10947L168.18 7.58331C168.051 7.76673 167.879 7.91003 167.66 8.01129C167.441 8.11255 167.2 8.16605 166.935 8.16605ZM166.837 5.51218C166.667 5.51218 166.531 5.5695 166.425 5.68605C166.319 5.8026 166.253 5.96882 166.223 6.18472H167.409V6.11403C167.405 5.92297 167.354 5.77394 167.256 5.66885C167.158 5.56377 167.018 5.51218 166.837 5.51218Z" fill="#808080"/>
<path d="M171.037 4.87594L171.064 5.23705C171.29 4.95619 171.596 4.81671 171.982 4.81671C172.393 4.81671 172.675 4.98102 172.828 5.30965C173.053 4.98102 173.372 4.81671 173.787 4.81671C174.133 4.81671 174.392 4.91797 174.56 5.12241C174.73 5.32685 174.813 5.63255 174.813 6.04334V8.10682H173.957V6.04525C173.957 5.86183 173.921 5.72808 173.852 5.64401C173.78 5.55995 173.655 5.51791 173.478 5.51791C173.223 5.51791 173.045 5.6421 172.947 5.88857L172.951 8.10682H172.097V6.04907C172.097 5.86183 172.061 5.72617 171.987 5.6421C171.914 5.55804 171.791 5.516 171.615 5.516C171.374 5.516 171.198 5.61726 171.09 5.81979V8.103H170.237V4.87594H171.037Z" fill="#808080"/>
<path d="M176.94 8.16605C176.471 8.16605 176.09 8.02084 175.797 7.73043C175.502 7.44001 175.355 7.05215 175.355 6.56876V6.48469C175.355 6.15988 175.417 5.86947 175.54 5.61535C175.665 5.35933 175.84 5.16253 176.067 5.02497C176.294 4.8874 176.554 4.81671 176.845 4.81671C177.281 4.81671 177.625 4.95619 177.876 5.23514C178.128 5.51409 178.252 5.90959 178.252 6.41973V6.77129H176.218C176.246 6.98146 176.33 7.1515 176.467 7.27952C176.605 7.40753 176.781 7.47058 176.994 7.47058C177.323 7.47058 177.58 7.35021 177.765 7.10947L178.184 7.58331C178.056 7.76673 177.884 7.91003 177.665 8.01129C177.446 8.11255 177.204 8.16605 176.94 8.16605ZM176.841 5.51218C176.671 5.51218 176.535 5.5695 176.43 5.68605C176.324 5.8026 176.258 5.96882 176.228 6.18472H177.414V6.11403C177.41 5.92297 177.359 5.77394 177.261 5.66885C177.162 5.56377 177.023 5.51218 176.841 5.51218Z" fill="#808080"/>
<path d="M178.73 4.03908C178.73 3.90916 178.773 3.80407 178.858 3.72C178.943 3.63594 179.061 3.5939 179.208 3.5939C179.353 3.5939 179.469 3.63594 179.555 3.72C179.642 3.80407 179.686 3.91107 179.686 4.03908C179.686 4.17091 179.642 4.27791 179.553 4.36198C179.467 4.44605 179.35 4.48808 179.206 4.48808C179.062 4.48808 178.947 4.44605 178.858 4.36198C178.773 4.27791 178.73 4.17091 178.73 4.03908ZM179.637 8.10491H178.781V4.87594H179.637V8.10491Z" fill="#808080"/>
<path d="M181.238 8.10491H180.383V3.51939H181.238V8.10491Z" fill="#808080"/>
<path d="M182.842 8.10491H181.986V3.51939H182.842V8.10491Z" fill="#808080"/>
<path d="M185.014 8.16605C184.545 8.16605 184.164 8.02084 183.871 7.73043C183.576 7.44001 183.429 7.05215 183.429 6.56876V6.48469C183.429 6.15988 183.491 5.86947 183.614 5.61535C183.739 5.35933 183.914 5.16253 184.141 5.02497C184.368 4.8874 184.628 4.81671 184.919 4.81671C185.356 4.81671 185.699 4.95619 185.951 5.23514C186.202 5.51409 186.326 5.90959 186.326 6.41973V6.77129H184.292C184.321 6.98146 184.404 7.1515 184.542 7.27952C184.679 7.40753 184.855 7.47058 185.068 7.47058C185.397 7.47058 185.654 7.35021 185.839 7.10947L186.258 7.58331C186.13 7.76673 185.958 7.91003 185.739 8.01129C185.52 8.11255 185.278 8.16605 185.014 8.16605ZM184.915 5.51218C184.746 5.51218 184.61 5.5695 184.504 5.68605C184.398 5.8026 184.332 5.96882 184.302 6.18472H185.488V6.11403C185.484 5.92297 185.433 5.77394 185.335 5.66885C185.237 5.56377 185.097 5.51218 184.915 5.51218Z" fill="#808080"/>
<path d="M188.723 7.77819C188.512 8.03613 188.221 8.16605 187.849 8.16605C187.507 8.16605 187.244 8.0667 187.065 7.86799C186.885 7.66929 186.793 7.37696 186.789 6.99292V4.87594H187.643V6.96426C187.643 7.30053 187.794 7.46867 188.098 7.46867C188.387 7.46867 188.585 7.36741 188.695 7.16297V4.87594H189.55V8.10682H188.748L188.723 7.77819Z" fill="#808080"/>
<path d="M191.987 5.68414C191.87 5.66885 191.768 5.6593 191.679 5.6593C191.356 5.6593 191.144 5.77012 191.044 5.98984V8.103H190.191V4.87594H190.997L191.022 5.26189C191.194 4.96574 191.43 4.81671 191.734 4.81671C191.828 4.81671 191.917 4.83008 192 4.85492L191.987 5.68414Z" fill="#808080"/>
</svg>
