<svg width="140" height="140" viewBox="0 0 140 140" fill="none" xmlns="http://www.w3.org/2000/svg">
<path d="M20.9703 85.769C20.7408 85.9527 20.5496 86.1546 20.3968 86.3748C20.2399 86.5932 20.1252 86.8268 20.0525 87.0755C19.977 87.3254 19.9478 87.5887 19.9651 87.8656C19.9812 88.1396 20.0455 88.4232 20.158 88.7162C20.3487 89.2133 20.6486 89.6125 21.0576 89.9138C21.4666 90.215 21.9628 90.3872 22.5463 90.4303C23.1259 90.4717 23.772 90.3556 24.4846 90.0821C25.2 89.8076 25.7602 89.4591 26.1651 89.0367C26.57 88.6144 26.8226 88.1515 26.9229 87.6483C27.0232 87.145 26.9741 86.6347 26.7756 86.1175C26.5915 85.6377 26.3333 85.2571 26.0012 84.9758C25.668 84.6916 25.2858 84.5201 24.8545 84.4615C24.4192 84.401 23.9588 84.464 23.4732 84.6503L23.4056 84.2807L24.3747 86.8064L23.2757 87.2281L21.9443 83.7586L22.9485 83.3732C23.6899 83.0887 24.3941 82.9998 25.0614 83.1064C25.7246 83.2112 26.3106 83.4841 26.8194 83.9251C27.327 84.3632 27.7176 84.9385 27.991 85.6511C28.2975 86.4499 28.3827 87.2216 28.2464 87.9661C28.1091 88.7078 27.7673 89.3763 27.2211 89.9716C26.6719 90.568 25.9319 91.0448 25.0009 91.402C24.297 91.6722 23.6273 91.817 22.992 91.8367C22.3568 91.8563 21.7759 91.7643 21.2495 91.5609C20.7192 91.3556 20.2585 91.0528 19.8674 90.6523C19.4725 90.2501 19.1653 89.7631 18.9458 89.1913C18.7628 88.7143 18.6629 88.2433 18.646 87.7784C18.628 87.3106 18.6866 86.8662 18.8217 86.4451C18.9557 86.0212 19.16 85.6346 19.4347 85.2852C19.7066 84.937 20.0437 84.6428 20.446 84.4027L20.9703 85.769Z" fill="#AFFF00"/>
<path d="M26.656 82.2311L17.4228 84.2648L16.1478 78.4761L17.347 78.2119L18.3152 82.6076L21.1285 81.9879L20.2268 77.8943L21.4215 77.6312L22.3232 81.7248L25.15 81.1022L24.1698 76.6524L25.3691 76.3882L26.656 82.2311Z" fill="#AFFF00"/>
<path d="M17.1787 77.2295L15.9535 77.3119L15.4622 70.0113L16.6874 69.9289L16.8855 72.8721L25.0935 72.3197L25.1889 73.7384L16.9809 74.2908L17.1787 77.2295Z" fill="#AFFF00"/>
<path d="M20.7866 63.8544L21.9782 63.9528L21.6332 68.1303L20.4416 68.0319L20.7866 63.8544Z" fill="#AFFF00"/>
<path d="M19.9195 56.1422C19.4828 56.0896 19.1067 56.2095 18.7909 56.5017C18.4722 56.7933 18.2506 57.2026 18.1261 57.7298C18.0369 58.1072 18.0197 58.4478 18.0744 58.7517C18.1261 59.0548 18.2373 59.3072 18.4078 59.5088C18.5761 59.7066 18.7906 59.8364 19.0511 59.8979C19.2698 59.9496 19.4705 59.9432 19.6533 59.8789C19.8368 59.8116 20.0023 59.7068 20.1498 59.5645C20.2949 59.4186 20.4265 59.2567 20.5443 59.079C20.6592 58.9006 20.7604 58.7269 20.8477 58.5578L21.2937 57.7144C21.4349 57.4379 21.6034 57.1598 21.799 56.8803C21.9947 56.6008 22.224 56.353 22.487 56.1368C22.7499 55.9207 23.0488 55.7668 23.3835 55.6751C23.719 55.5804 24.0934 55.5819 24.5067 55.6795C25.0279 55.8027 25.4588 56.0468 25.7994 56.4119C26.1408 56.774 26.3682 57.2372 26.4815 57.8016C26.5955 58.363 26.5676 59.0031 26.3978 59.7219C26.2351 60.4108 25.9849 60.981 25.6474 61.4326C25.3099 61.8841 24.9068 62.2047 24.4382 62.3945C23.9666 62.5835 23.4503 62.6275 22.8891 62.5265L23.2181 61.1338C23.557 61.1854 23.8595 61.143 24.1257 61.0067C24.3896 60.8666 24.6106 60.6611 24.7884 60.39C24.964 60.1153 25.0939 59.7997 25.1781 59.4433C25.2708 59.0509 25.2919 58.6874 25.2412 58.3529C25.1883 58.0147 25.0719 57.731 24.892 57.502C24.7091 57.2722 24.4679 57.1219 24.1684 57.0511C23.8959 56.9867 23.6543 57.0119 23.4438 57.1266C23.234 57.2383 23.041 57.4125 22.8649 57.6492C22.6896 57.8829 22.5195 58.1542 22.3548 58.4632L21.8014 59.4804C21.4267 60.1698 20.9937 60.6842 20.5024 61.0235C20.0118 61.3598 19.4461 61.4522 18.8051 61.3008C18.2749 61.1756 17.8462 60.9225 17.5187 60.5415C17.1913 60.1606 16.9763 59.6987 16.8737 59.1558C16.7681 58.6122 16.7882 58.0319 16.9339 57.4149C17.0811 56.7919 17.3203 56.2681 17.6514 55.8435C17.9833 55.416 18.3735 55.1097 18.822 54.9247C19.2675 54.739 19.7387 54.6986 20.2358 54.8033L19.9195 56.1422Z" fill="#AFFF00"/>
<path d="M19.2665 53.6489L18.1269 53.1916L20.8518 46.4008L21.9915 46.8581L20.8929 49.5959L28.5277 52.6595L27.9982 53.9791L20.3634 50.9155L19.2665 53.6489Z" fill="#AFFF00"/>
<path d="M29.8437 49.6386L29.0766 50.9442L22.6484 43.2213L23.4833 41.8003L33.3585 43.6562L32.5915 44.9617L24.5664 43.3469L24.529 43.4106L29.8437 49.6386ZM26.7801 47.5442L29.2683 43.3091L30.3032 43.9171L27.815 48.1522L26.7801 47.5442Z" fill="#AFFF00"/>
<path d="M33.0525 44.2386L25.7057 38.2878L27.8268 35.6691C28.2878 35.0999 28.7685 34.707 29.2687 34.4903C29.7709 34.2713 30.2709 34.209 30.7688 34.3033C31.2642 34.3957 31.738 34.625 32.19 34.9911C32.6396 35.3553 32.9589 35.7703 33.1478 36.2363C33.3363 36.6979 33.372 37.1941 33.2549 37.725C33.1397 38.2535 32.8516 38.8024 32.3906 39.3716L30.7837 41.3554L29.8295 40.5825L31.355 38.6991C31.6455 38.3404 31.8305 38.007 31.9097 37.6989C31.9909 37.3884 31.9761 37.1011 31.8652 36.837C31.7543 36.5729 31.5613 36.3295 31.2863 36.1067C31.0089 35.882 30.725 35.7412 30.4345 35.6841C30.146 35.6247 29.8559 35.665 29.5643 35.805C29.2722 35.9407 28.9779 36.1915 28.6816 36.5574L27.5542 37.9493L33.9504 43.1301L33.0525 44.2386ZM32.6755 37.927L37.4604 38.7966L36.4376 40.0594L31.6817 39.1539L32.6755 37.927Z" fill="#AFFF00"/>
<path d="M31.3788 33.3095L30.5504 32.403L35.9519 27.467L36.7803 28.3734L34.6027 30.3634L40.1522 36.4363L39.1025 37.3954L33.553 31.3226L31.3788 33.3095Z" fill="#AFFF00"/>
<path d="M42.7143 34.2414L37.4479 26.3894L42.3707 23.0876L43.0547 24.1075L39.3166 26.6147L40.9212 29.0071L44.4024 26.6721L45.0839 27.6881L41.6027 30.0231L43.215 32.427L46.9991 29.8889L47.6831 30.9087L42.7143 34.2414Z" fill="#AFFF00"/>
<path d="M50.1967 29.7197L47.4291 31.0267L43.3917 22.4776L46.247 21.1291C47.0847 20.7336 47.8849 20.565 48.6477 20.6234C49.4091 20.679 50.1003 20.9499 50.7213 21.4361C51.3438 21.9182 51.8646 22.6031 52.2839 23.4908C52.7044 24.3814 52.9031 25.2236 52.8797 26.0174C52.8592 26.8099 52.6243 27.5233 52.175 28.1575C51.7244 28.7889 51.065 29.3097 50.1967 29.7197ZM48.1867 29.2905L49.5935 28.6261C50.2447 28.3186 50.7281 27.9405 51.0438 27.4919C51.3582 27.0405 51.5121 26.5305 51.5056 25.9618C51.4978 25.3902 51.3342 24.7664 51.0149 24.0901C50.6981 23.4194 50.3222 22.9009 49.8872 22.5346C49.4549 22.1669 48.9714 21.9613 48.4369 21.9176C47.9023 21.8739 47.3233 21.9993 46.7 22.2937L45.2139 22.9955L48.1867 29.2905Z" fill="#AFFF00"/>
<path d="M80.6883 19.7784C80.644 19.4878 80.5647 19.2213 80.4505 18.9788C80.3398 18.7338 80.1948 18.5176 80.0158 18.3303C79.8371 18.14 79.6236 17.9831 79.3752 17.8595C79.1299 17.7365 78.8522 17.6504 78.5421 17.6013C78.0162 17.5179 77.5206 17.578 77.0552 17.7816C76.5898 17.9852 76.1926 18.3289 75.8635 18.8127C75.5379 19.2939 75.3154 19.9114 75.1959 20.6653C75.0759 21.4222 75.0976 22.0815 75.261 22.6434C75.4243 23.2053 75.6988 23.6554 76.0846 23.9939C76.4703 24.3324 76.9367 24.545 77.4838 24.6317C77.9915 24.7121 78.4501 24.6789 78.8598 24.5319C79.2725 24.3855 79.6121 24.1402 79.8786 23.796C80.1485 23.4493 80.3242 23.0191 80.4057 22.5053L80.7596 22.6316L78.0877 22.208L78.272 21.0454L81.9424 21.6271L81.774 22.6895C81.6497 23.4738 81.3746 24.1282 80.9487 24.6527C80.5263 25.1747 79.997 25.5457 79.3607 25.7658C78.7274 25.9864 78.0339 26.037 77.28 25.9175C76.435 25.7835 75.7242 25.4714 75.1475 24.9812C74.5739 24.4914 74.1658 23.8611 73.9234 23.0904C73.6815 22.3167 73.6386 21.4374 73.7947 20.4525C73.9127 19.7078 74.1221 19.0555 74.4227 18.4955C74.7234 17.9355 75.0934 17.4784 75.5328 17.1243C75.9757 16.7676 76.4684 16.5201 77.0107 16.3817C77.5565 16.2407 78.1319 16.2182 78.7368 16.3141C79.2414 16.394 79.6992 16.5429 80.1103 16.7608C80.5244 16.9791 80.88 17.252 81.1771 17.5796C81.4772 17.9076 81.7099 18.2779 81.8751 18.6905C82.0407 19.1 82.1269 19.539 82.1337 20.0075L80.6883 19.7784Z" fill="#AFFF00"/>
<path d="M80.9094 26.4714L83.7647 17.4583L89.4155 19.2484L89.0446 20.4191L84.7538 19.0597L83.8838 21.8059L87.8798 23.0719L87.5103 24.2381L83.5143 22.9722L82.6401 25.7315L86.9838 27.1076L86.613 28.2783L80.9094 26.4714Z" fill="#AFFF00"/>
<path d="M89.9796 20.7646L90.5208 19.6623L97.089 22.8871L96.5478 23.9894L93.8998 22.6893L90.2742 30.0738L88.9979 29.4472L92.6235 22.0626L89.9796 20.7646Z" fill="#AFFF00"/>
<path d="M99.7589 30.5766L99.0778 31.5594L95.6325 29.1718L96.3135 28.1891L99.7589 30.5766Z" fill="#AFFF00"/>
<path d="M106.408 34.3354C106.672 33.9835 106.756 33.5978 106.661 33.1783C106.568 32.7565 106.324 32.3599 105.93 31.9885C105.648 31.7226 105.361 31.5373 105.071 31.4328C104.782 31.326 104.508 31.2961 104.248 31.343C103.993 31.3898 103.773 31.5107 103.59 31.7055C103.436 31.8691 103.341 32.0461 103.305 32.2366C103.272 32.4291 103.28 32.6249 103.329 32.8237C103.383 33.0224 103.457 33.2172 103.552 33.4081C103.649 33.5968 103.749 33.7713 103.852 33.9315L104.36 34.7394C104.528 35 104.685 35.2849 104.829 35.5941C104.973 35.9033 105.073 36.2258 105.129 36.5616C105.185 36.8974 105.169 37.2332 105.081 37.5689C104.995 37.9068 104.806 38.2303 104.515 38.5394C104.148 38.9292 103.721 39.1803 103.235 39.2928C102.75 39.4074 102.236 39.3726 101.69 39.1886C101.147 39.0067 100.606 38.6624 100.069 38.1559C99.5536 37.6705 99.1849 37.1688 98.9626 36.6507C98.7403 36.1327 98.6642 35.6233 98.7342 35.1226C98.8063 34.6197 99.0263 34.1505 99.3944 33.715L100.436 34.6963C100.222 34.964 100.107 35.2472 100.092 35.5459C100.082 35.8445 100.149 36.1386 100.295 36.4281C100.445 36.7176 100.653 36.9879 100.92 37.239C101.213 37.5155 101.518 37.7154 101.833 37.8388C102.152 37.9621 102.456 38.0031 102.744 37.9619C103.035 37.9184 103.285 37.7846 103.497 37.5606C103.689 37.3568 103.788 37.135 103.793 36.8954C103.802 36.6578 103.747 36.4036 103.63 36.1328C103.516 35.864 103.366 35.5811 103.18 35.284L102.576 34.2961C102.167 33.6269 101.938 32.9947 101.889 32.3996C101.843 31.8066 102.046 31.2704 102.498 30.791C102.871 30.3945 103.305 30.1497 103.799 30.0566C104.292 29.9635 104.8 30.0083 105.321 30.1909C105.845 30.3712 106.337 30.6787 106.799 31.1135C107.265 31.5525 107.599 32.0215 107.801 32.5206C108.005 33.0218 108.075 33.5128 108.011 33.9937C107.949 34.4723 107.749 34.9007 107.41 35.2788L106.408 34.3354Z" fill="#AFFF00"/>
<path d="M109.357 34.363L110.323 33.6046L114.841 39.3599L113.876 40.1182L112.054 37.7979L105.583 42.8781L104.705 41.7597L111.176 36.6796L109.357 34.363Z" fill="#AFFF00"/>
<path d="M107.542 45.5282L106.794 44.2112L116.697 42.5056L117.51 43.9391L110.965 51.5634L110.218 50.2463L115.629 44.1038L115.592 44.0396L107.542 45.5282ZM110.887 43.9223L113.311 48.1947L112.267 48.7869L109.843 44.5145L110.887 43.9223Z" fill="#AFFF00"/>
<path d="M110.614 51.0071L119.441 47.62L120.648 50.7663C120.91 51.4502 121.01 52.0629 120.948 52.6044C120.886 53.1488 120.69 53.613 120.36 53.997C120.032 54.3799 119.597 54.6755 119.053 54.8839C118.513 55.0912 117.994 55.1602 117.496 55.0909C117.002 55.0233 116.555 54.8061 116.153 54.4392C115.753 54.0752 115.422 53.5513 115.16 52.8674L114.245 50.4839L115.391 50.044L116.26 52.3068C116.425 52.7378 116.621 53.0646 116.849 53.2873C117.077 53.5129 117.333 53.6437 117.617 53.6797C117.901 53.7157 118.209 53.6703 118.539 53.5435C118.872 53.4156 119.136 53.2401 119.331 53.0171C119.527 52.797 119.637 52.5256 119.661 52.203C119.69 51.8822 119.62 51.502 119.451 51.0623L118.809 49.3901L111.125 52.3389L110.614 51.0071ZM116.268 53.8364L113.123 57.5455L112.54 56.0283L115.703 52.3624L116.268 53.8364Z" fill="#AFFF00"/>
<path d="M120.915 55.0222L122.115 54.7581L123.689 61.9039L122.489 62.1681L121.855 59.2872L113.821 61.0568L113.515 59.6682L121.549 57.8986L120.915 55.0222Z" fill="#AFFF00"/>
<path d="M114.441 64.3731L123.874 63.7382L124.272 69.6524L123.047 69.7348L122.744 65.2439L119.87 65.4374L120.152 69.6197L118.931 69.7018L118.65 65.5195L115.762 65.7139L116.068 70.2601L114.842 70.3425L114.441 64.3731Z" fill="#AFFF00"/>
<path d="M114.615 73.1138L114.867 70.0635L124.29 70.8416L124.03 73.9886C123.953 74.9118 123.699 75.6891 123.267 76.3205C122.838 76.9521 122.258 77.4152 121.527 77.71C120.798 78.008 119.944 78.1166 118.966 78.0358C117.984 77.9548 117.156 77.7057 116.48 77.2886C115.804 76.8745 115.304 76.3144 114.979 75.6082C114.657 74.9022 114.536 74.0708 114.615 73.1138ZM115.992 71.5877L115.864 73.1382C115.805 73.8559 115.89 74.4636 116.121 74.9613C116.355 75.4593 116.719 75.8476 117.215 76.1264C117.714 76.4054 118.336 76.5756 119.082 76.6372C119.821 76.6982 120.458 76.6319 120.992 76.4383C121.527 76.2478 121.947 75.9319 122.252 75.4908C122.557 75.0497 122.738 74.4856 122.795 73.7986L122.93 72.1607L115.992 71.5877Z" fill="#AFFF00"/>
<path d="M107.979 104.491C108.253 104.598 108.523 104.663 108.79 104.685C109.058 104.712 109.318 104.694 109.569 104.633C109.823 104.573 110.066 104.467 110.297 104.313C110.526 104.162 110.74 103.965 110.937 103.721C111.273 103.307 111.468 102.848 111.525 102.343C111.581 101.838 111.482 101.322 111.228 100.796C110.974 100.273 110.55 99.7715 109.957 99.2911C109.362 98.8087 108.78 98.4978 108.211 98.3583C107.643 98.2189 107.116 98.2315 106.63 98.3963C106.144 98.5612 105.727 98.8588 105.378 99.2893C105.055 99.6887 104.854 100.102 104.776 100.531C104.697 100.961 104.74 101.378 104.904 101.781C105.07 102.188 105.354 102.555 105.759 102.883L105.472 103.126L107.175 101.024L108.09 101.765L105.751 104.653L104.915 103.976C104.298 103.476 103.869 102.911 103.627 102.279C103.387 101.653 103.33 101.009 103.457 100.348C103.583 99.6889 103.886 99.063 104.366 98.4699C104.905 97.805 105.531 97.3455 106.244 97.0912C106.955 96.8393 107.704 96.8011 108.493 96.9765C109.284 97.1538 110.067 97.5563 110.842 98.1839C111.428 98.6585 111.888 99.166 112.223 99.7064C112.557 100.247 112.768 100.796 112.855 101.353C112.943 101.915 112.911 102.466 112.759 103.005C112.609 103.548 112.34 104.057 111.955 104.533C111.633 104.93 111.275 105.252 110.881 105.499C110.485 105.749 110.071 105.92 109.639 106.014C109.205 106.11 108.768 106.126 108.328 106.063C107.89 106.001 107.467 105.857 107.058 105.628L107.979 104.491Z" fill="#AFFF00"/>
<path d="M102.072 101.336L108.45 108.315L104.074 112.314L103.246 111.407L106.569 108.371L104.625 106.245L101.531 109.072L100.706 108.169L103.8 105.342L101.847 103.205L98.4838 106.279L97.6555 105.372L102.072 101.336Z" fill="#AFFF00"/>
<path d="M102.479 112.044L103.163 113.064L97.0863 117.14L96.4023 116.12L98.8522 114.477L94.2698 107.645L95.4507 106.853L100.033 113.685L102.479 112.044Z" fill="#AFFF00"/>
<path d="M89.0921 115.608L88.5815 114.526L92.3719 112.736L92.8825 113.818L89.0921 115.608Z" fill="#AFFF00"/>
<path d="M82.8467 120.215C83.0195 120.619 83.3114 120.885 83.7223 121.012C84.1341 121.142 84.5995 121.13 85.1183 120.974C85.4897 120.862 85.7933 120.707 86.0291 120.508C86.2658 120.311 86.4288 120.089 86.518 119.84C86.6053 119.596 86.6104 119.345 86.5334 119.089C86.4688 118.873 86.363 118.703 86.2158 118.577C86.0658 118.451 85.8923 118.36 85.6954 118.304C85.4964 118.251 85.2905 118.218 85.0776 118.205C84.8657 118.195 84.6646 118.194 84.4745 118.203L83.5212 118.238C83.2111 118.254 82.886 118.247 82.5462 118.218C82.2063 118.188 81.877 118.113 81.5583 117.994C81.2396 117.874 80.9569 117.692 80.7101 117.448C80.4604 117.205 80.2745 116.88 80.1524 116.473C79.9984 115.96 79.9944 115.465 80.1402 114.987C80.2831 114.511 80.5706 114.082 81.0027 113.702C81.4319 113.323 82.0002 113.027 82.7077 112.814C83.3856 112.611 84.0045 112.542 84.5643 112.609C85.1241 112.675 85.6033 112.864 86.0019 113.175C86.4014 113.489 86.6977 113.914 86.8909 114.451L85.5202 114.862C85.3955 114.543 85.2075 114.302 84.9563 114.14C84.7031 113.981 84.4146 113.892 84.0909 113.874C83.7652 113.859 83.4269 113.905 83.0762 114.01C82.69 114.126 82.3647 114.289 82.1003 114.5C81.8339 114.715 81.6464 114.958 81.538 115.228C81.4304 115.502 81.4209 115.786 81.5094 116.08C81.5899 116.349 81.7325 116.545 81.9371 116.67C82.1387 116.796 82.386 116.876 82.6791 116.91C82.9691 116.945 83.2891 116.957 83.639 116.945L84.7967 116.916C85.5811 116.895 86.243 117.013 86.7825 117.269C87.3191 117.526 87.682 117.969 87.8714 118.6C88.028 119.122 88.0232 119.62 87.857 120.094C87.6908 120.568 87.3983 120.985 86.9794 121.345C86.5615 121.709 86.0489 121.981 85.4417 122.164C84.8285 122.348 84.2553 122.403 83.7221 122.328C83.1858 122.254 82.7255 122.07 82.3411 121.774C81.9575 121.481 81.6868 121.093 81.5291 120.61L82.8467 120.215Z" fill="#AFFF00"/>
<path d="M81.0139 122.027L81.1877 123.242L73.9442 124.278L73.7704 123.062L76.6907 122.645L75.5264 114.501L76.934 114.3L78.0982 122.443L81.0139 122.027Z" fill="#AFFF00"/>
<path d="M72.2523 114.872L73.7665 114.883L70.2924 124.312L68.6444 124.299L65.314 114.819L66.8281 114.83L69.4422 122.588L69.5161 122.588L72.2523 114.872ZM71.9703 118.572L67.0585 118.535L67.0676 117.334L71.9794 117.372L71.9703 118.572Z" fill="#AFFF00"/>
<path d="M65.9714 114.793L64.4913 124.131L61.1628 123.603C60.4394 123.488 59.8588 123.269 59.4211 122.944C58.9803 122.618 58.6763 122.217 58.5091 121.738C58.3413 121.263 58.303 120.738 58.3941 120.163C58.4847 119.592 58.6845 119.108 58.9935 118.711C59.299 118.317 59.7109 118.038 60.2293 117.874C60.7446 117.71 61.3639 117.685 62.0874 117.8L64.6088 118.199L64.4166 119.412L62.0228 119.033C61.5669 118.96 61.1857 118.967 60.8792 119.052C60.5697 119.137 60.3283 119.294 60.1551 119.522C59.9818 119.75 59.8675 120.039 59.8121 120.388C59.7562 120.741 59.7762 121.057 59.872 121.337C59.9648 121.617 60.1447 121.848 60.4118 122.03C60.6754 122.216 61.0397 122.345 61.5048 122.419L63.2739 122.699L64.5625 114.569L65.9714 114.793ZM60.6939 118.275L59.0546 113.696L60.6595 113.951L62.2533 118.522L60.6939 118.275Z" fill="#AFFF00"/>
<path d="M57.3433 121.707L56.9724 122.877L49.997 120.668L50.3678 119.497L53.18 120.388L55.6645 112.545L57.02 112.975L54.5355 120.817L57.3433 121.707Z" fill="#AFFF00"/>
<path d="M52.4826 111.424L48.3158 119.911L42.995 117.298L43.5362 116.196L47.5765 118.18L48.8461 115.594L45.0834 113.747L45.6225 112.649L49.3853 114.496L50.6609 111.898L46.5708 109.89L47.112 108.787L52.4826 111.424Z" fill="#AFFF00"/>
<path d="M44.8255 107.205L47.3413 108.948L41.9561 116.719L39.3607 114.921C38.5993 114.393 38.0532 113.784 37.7224 113.095C37.3899 112.407 37.2789 111.673 37.3894 110.892C37.4956 110.112 37.8284 109.319 38.3876 108.512C38.9485 107.702 39.5786 107.109 40.2777 106.732C40.9743 106.354 41.7096 106.201 42.4835 106.273C43.2556 106.347 44.0363 106.658 44.8255 107.205ZM45.4588 109.16L44.1801 108.274C43.5882 107.864 43.019 107.634 42.4727 107.585C41.9246 107.539 41.4059 107.66 40.9166 107.95C40.4256 108.243 39.967 108.696 39.5411 109.311C39.1186 109.921 38.8575 110.506 38.7578 111.066C38.6555 111.624 38.7192 112.145 38.9486 112.63C39.1781 113.115 39.5761 113.553 40.1428 113.946L41.4936 114.882L45.4588 109.16Z" fill="#AFFF00"/>
</svg>
