<svg width="66" height="56" viewBox="0 0 66 56" fill="none" xmlns="http://www.w3.org/2000/svg">
<path fill-rule="evenodd" clip-rule="evenodd" d="M61.2044 0.951265C59.9158 -0.317088 57.8262 -0.317088 56.5376 0.951265L38.8367 18.3721H0V24.8678H0.027786C0.744579 42.1807 15.2325 56 33 56C50.7675 56 65.2555 42.1807 65.9723 24.8678H66V18.3721H48.1704L61.2044 5.5443C62.4934 4.27598 62.4934 2.21959 61.2044 0.951265ZM40.1815 24.8678C40.196 24.8678 40.2108 24.8678 40.2257 24.8678H59.3653C58.6539 38.5919 47.1217 49.5045 33 49.5045C18.8782 49.5045 7.3461 38.5919 6.63478 24.8678H40.1815Z" fill="#0D1320"/>
</svg>
