<svg width="71" height="57" viewBox="0 0 71 57" fill="none" xmlns="http://www.w3.org/2000/svg">
<path fill-rule="evenodd" clip-rule="evenodd" d="M17.75 0C7.94696 0 0 7.94699 0 17.7501C0 27.5533 7.94696 35.5 17.75 35.5C27.553 35.5 35.5 27.5533 35.5 17.7501C35.5 7.94699 27.553 0 17.75 0ZM10.65 17.7501C10.65 21.6713 13.8288 24.85 17.75 24.85C21.6712 24.85 24.85 21.6713 24.85 17.7501C24.85 13.8288 21.6712 10.65 17.75 10.65C13.8288 10.65 10.65 13.8288 10.65 17.7501Z" fill="#0D1320"/>
<path d="M71 22.9705H53.25V12.5293H71V22.9705Z" fill="#0D1320"/>
<path d="M33.9337 45.9869C37.8608 45.9869 41.4078 44.3683 43.9389 41.7646C43.886 41.8191 43.8324 41.8731 43.7784 41.9268L51.1618 49.2777C46.7529 53.667 40.6619 56.3823 33.9337 56.3823C27.2059 56.3823 21.1149 53.6674 16.7059 49.2777L24.0893 41.9272C26.6087 44.4356 30.0894 45.9869 33.9337 45.9869Z" fill="#0D1320"/>
</svg>
