<svg width="42" height="57" viewBox="0 0 42 57" fill="none" xmlns="http://www.w3.org/2000/svg">
<path fill-rule="evenodd" clip-rule="evenodd" d="M0 20.6667C0 28.3162 4.15604 34.9951 10.3333 38.5684V38.7497C10.3333 44.4568 14.9597 49.0831 20.6667 49.0831C26.3735 49.0831 31 44.4568 31 38.7497V38.5684C37.1773 34.9951 41.3333 28.3162 41.3333 20.6667C41.3333 9.25278 32.0806 0 20.6667 0C9.25278 0 0 9.25278 0 20.6667ZM31 32.2198C34.171 29.3818 36.1667 25.2572 36.1667 20.6667C36.1667 12.1062 29.2271 5.16667 20.6667 5.16667C12.1062 5.16667 5.16667 12.1062 5.16667 20.6667C5.16667 25.2572 7.16229 29.3818 10.3333 32.2198L15.5 32.2175V38.75C15.5 41.6033 17.8131 43.9164 20.6667 43.9164C23.52 43.9164 25.8333 41.6033 25.8333 38.7497V32.2175L31 32.2198Z" fill="#0D1320"/>
<path d="M15.5 51.6835V51.667C17.0198 52.5461 18.7845 53.0493 20.6667 53.0493C22.5489 53.0493 24.3136 52.5461 25.8333 51.667V51.6835C25.8333 54.5371 23.5202 56.8502 20.6667 56.8502C17.8131 56.8502 15.5 54.5371 15.5 51.6835Z" fill="#0D1320"/>
</svg>
