<svg width="256" height="62" viewBox="0 0 256 62" fill="none" xmlns="http://www.w3.org/2000/svg">
<path d="M65.7291 0C64.3323 2.55787 62.6508 4.67845 60.7405 6.4456V6.4486C56.8816 10.0158 52.1071 12.1394 46.9424 13.5112C46.0298 13.7568 45.1083 13.9725 44.1751 14.1672C44.1751 14.1672 44.1722 14.1672 44.1722 14.1701C24.1001 18.4413 -0.247533 13.5771 0.00190087 37.2C0.0224425 39.1139 0.201448 41.2135 0.559458 43.5228C0.982028 40.2521 1.91227 37.6882 3.25921 35.6814V35.6785C3.91948 34.6871 4.67952 33.8334 5.52466 33.0906C19.8891 20.475 59.3789 40.7343 65.7291 0Z" fill="#808080"/>
<path d="M24.9834 39.7279C23.9445 39.671 22.9527 39.6231 22.0136 39.6201C18.2839 39.6051 8.99907 40.8541 8.11872 49.3454C7.80179 52.4304 8.53835 55.0452 10.8449 57.3275C12.5939 59.0587 15.2466 60.5983 19.0263 62C17.3184 61.2093 13.1455 56.6386 14.9062 53.314C14.9708 53.1912 15.0383 53.0744 15.1117 52.9606C15.1909 52.8348 15.2672 52.712 15.3523 52.5982C15.4227 52.4963 15.4961 52.4035 15.5783 52.3136C15.5841 52.3016 15.5929 52.2927 15.5988 52.2867C15.6722 52.1968 15.7485 52.11 15.8306 52.0291C15.9187 51.9362 16.0126 51.8464 16.1065 51.7625C16.1857 51.6906 16.2708 51.6187 16.353 51.5559C16.4615 51.469 16.576 51.3851 16.6963 51.3043C16.7961 51.2354 16.9017 51.1695 17.0044 51.1096C17.0044 51.1036 17.0103 51.1006 17.0191 51.1036C17.1218 51.0407 17.2304 50.9808 17.339 50.9299C17.427 50.8849 17.515 50.84 17.606 50.8041C17.653 50.7801 17.7028 50.7621 17.7527 50.7382C17.8437 50.7022 17.9347 50.6663 18.0256 50.6303C18.143 50.5854 18.2663 50.5465 18.3895 50.5105C18.5128 50.4716 18.6331 50.4387 18.7593 50.4087C18.8766 50.3758 18.9911 50.3488 19.1143 50.3218C19.2523 50.2979 19.3931 50.2709 19.534 50.25C19.666 50.226 19.7981 50.208 19.936 50.193C20.0857 50.1751 20.2353 50.1631 20.382 50.1511C20.6843 50.1242 20.9924 50.1122 21.3035 50.1122C21.3123 50.1122 21.3152 50.1092 21.324 50.1122C21.4708 50.1122 21.6233 50.1122 21.773 50.1152C21.9315 50.1212 22.0929 50.1272 22.2513 50.1361C22.2777 50.1361 22.3071 50.1361 22.3335 50.1391C22.6123 50.1541 22.894 50.1751 23.1757 50.205C23.3547 50.223 23.5396 50.241 23.7186 50.2619C24.7868 50.3847 25.8755 50.5824 26.9554 50.8101C27.4484 50.9119 27.9384 51.0137 28.4314 51.1126C34.3855 52.2837 40.6771 52.676 47.9929 44.7119L47.9988 44.7089C49.8328 42.7141 51.7344 40.1892 53.7064 37.0233C53.7064 37.0233 53.7064 37.0203 53.7122 37.0203C55.2499 34.5553 56.8316 31.6919 58.4691 28.3882C47.8197 42.2079 34.4589 40.282 24.9834 39.7279Z" fill="#808080"/>
<path d="M64.2119 52.3915H67.2228V41.531H77.8956V38.9701H67.2228V30.8802H79.9028V28.1486H64.2119V52.3915Z" fill="#808080"/>
<path d="M86.7255 28.1486H83.7147V52.3915H86.7255V28.1486Z" fill="#808080"/>
<path d="M109.474 47.099L94.9568 28.1486H92.4126V52.3915H95.4234V33.8155L109.741 52.3915H112.485V28.1815H109.474V47.099Z" fill="#808080"/>
<path d="M130.852 40.2401C129.649 39.7189 128.22 39.2757 126.57 38.9132C125.141 38.5718 123.965 38.2453 123.04 37.9248C122.116 37.6073 121.429 37.2 120.983 36.6998C120.537 36.1996 120.314 35.5197 120.314 34.6571C120.314 33.4321 120.748 32.4676 121.62 31.7638C122.488 31.0599 123.838 30.7095 125.667 30.7095C126.38 30.7095 127.066 30.7843 127.724 30.9311C128.381 31.0809 128.988 31.2726 129.546 31.5122C130.104 31.7518 130.605 32.0184 131.051 32.3149C131.497 32.6114 131.855 32.9169 132.122 33.2374L133.528 30.7454C132.859 30.1763 132.122 29.6881 131.321 29.2778C130.517 28.8674 129.655 28.55 128.73 28.3223C127.803 28.0947 126.805 27.9809 125.737 27.9809C124.108 27.9809 122.647 28.2534 121.353 28.7986C120.059 29.3437 119.043 30.1494 118.31 31.2157C117.576 32.2819 117.206 33.5878 117.206 35.1303C117.206 36.4003 117.479 37.4336 118.025 38.2303C118.571 39.0241 119.39 39.668 120.484 40.1532C121.576 40.6415 122.926 41.0907 124.531 41.4981C126.004 41.8605 127.251 42.2259 128.278 42.5883C129.302 42.9507 130.08 43.406 130.602 43.9511C131.128 44.4962 131.389 45.2211 131.389 46.1316C131.389 47.3327 130.919 48.2432 129.983 48.8662C129.047 49.4892 127.729 49.8007 126.036 49.8007C125.144 49.8007 124.276 49.7048 123.427 49.5102C122.579 49.3185 121.793 49.0609 121.068 48.7404C120.343 48.4229 119.698 48.0755 119.128 47.6981C118.559 47.3207 118.095 46.9403 117.74 46.5539L116.302 49.1477C117.195 49.8995 118.154 50.5255 119.178 51.0257C120.205 51.5259 121.291 51.9093 122.439 52.1699C123.586 52.4304 124.763 52.5622 125.969 52.5622C127.195 52.5622 128.331 52.4304 129.382 52.1699C130.429 51.9093 131.345 51.4989 132.125 50.9448C132.906 50.3877 133.513 49.6839 133.948 48.8332C134.382 47.9826 134.599 46.9792 134.599 45.8201C134.599 44.3674 134.276 43.2053 133.631 42.3307C132.979 41.4591 132.055 40.7613 130.852 40.2401Z" fill="#808080"/>
<path d="M155.44 40.4048C155.44 41.567 155.323 42.7051 155.088 43.8193C154.853 44.9335 154.469 45.9429 153.935 46.8414C153.401 47.74 152.676 48.4588 151.76 48.992C150.845 49.5281 149.697 49.7947 148.315 49.7947C146.953 49.7947 145.818 49.5341 144.902 49.01C143.987 48.4858 143.262 47.7819 142.728 46.8924C142.194 46.0058 141.806 44.9964 141.575 43.8702C141.34 42.7441 141.222 41.5879 141.222 40.4048V28.1486H138.212V40.4078C138.212 41.9563 138.391 43.4569 138.746 44.9156C139.101 46.3712 139.67 47.6771 140.451 48.8242C141.231 49.9744 142.267 50.8849 143.561 51.5559C144.855 52.2268 146.449 52.5622 148.344 52.5622C150.173 52.5622 151.728 52.2387 153.01 51.5888C154.293 50.9388 155.334 50.0583 156.139 48.9441C156.943 47.8299 157.527 46.5359 157.893 45.0683C158.26 43.6007 158.445 42.0462 158.445 40.4078V28.1486H155.44V40.4048Z" fill="#808080"/>
<path d="M178.805 41.6358C179.55 40.932 180.131 40.0754 180.545 39.075C180.959 38.0746 181.164 37.0143 181.164 35.9001C181.164 34.9446 180.985 34.0042 180.63 33.0846C180.272 32.1621 179.77 31.3325 179.125 30.5927C178.476 29.8528 177.719 29.2598 176.85 28.8165C175.982 28.3732 175.022 28.1516 173.974 28.1516H163.803V52.3945H166.814V43.6875H173.103L178.523 52.3945H181.936L176.181 43.1065C177.182 42.8309 178.059 42.3397 178.805 41.6358ZM174.004 40.9529H166.811V30.8802H173.804C174.585 30.8802 175.298 31.1078 175.946 31.5631C176.592 32.0184 177.117 32.6264 177.519 33.3901C177.921 34.1539 178.121 34.9896 178.121 35.9001C178.121 36.7867 177.948 37.6193 177.602 38.3921C177.255 39.1648 176.777 39.7878 176.164 40.2521C175.55 40.7193 174.828 40.9529 174.004 40.9529Z" fill="#808080"/>
<path d="M193.008 28.1486L183.274 52.3915H186.484L189.161 45.29H199.376L202.04 52.3915H205.251L195.549 28.1486H193.008ZM190.059 42.8968L194.278 31.6979L198.481 42.8968H190.059Z" fill="#808080"/>
<path d="M222.109 28.1486L212.376 52.3915H215.586L218.262 45.29H228.477L231.142 52.3915H234.352L224.651 28.1486H222.109ZM219.163 42.8968L223.383 31.6979L227.585 42.8968H219.163Z" fill="#808080"/>
<path d="M248.338 42.6243H253.456V45.9639C252.473 47.1859 251.434 48.1084 250.345 48.7374C249.119 49.4443 247.824 49.7947 246.466 49.7947C245.307 49.7947 244.224 49.5461 243.22 49.0429C242.217 48.5427 241.336 47.8538 240.576 46.9762C239.819 46.1016 239.232 45.0863 238.818 43.9361C238.405 42.786 238.199 41.564 238.199 40.2671C238.199 39.039 238.384 37.853 238.751 36.7148C239.118 35.5766 239.655 34.5583 240.356 33.6597C241.057 32.7612 241.9 32.0483 242.883 31.5242C243.863 31 244.957 30.7394 246.161 30.7394C247.61 30.7394 248.937 31.0809 250.143 31.7638C251.346 32.4467 252.294 33.495 252.986 34.9057L255.296 33.2673C254.539 31.6979 253.412 30.4219 251.918 29.4425C250.424 28.4631 248.529 27.9749 246.231 27.9749C244.646 27.9749 243.182 28.2984 241.832 28.9483C240.482 29.5983 239.311 30.4908 238.32 31.629C237.328 32.7672 236.553 34.07 235.995 35.5377C235.438 37.0053 235.159 38.5598 235.159 40.1982C235.159 41.7676 235.438 43.2892 235.995 44.7568C236.553 46.2244 237.334 47.5453 238.337 48.7164C239.341 49.8905 240.518 50.822 241.867 51.5169C243.217 52.2118 244.673 52.5592 246.234 52.5592C248.989 52.5592 251.399 51.4031 253.459 49.0938V52.3885H256V40.3H248.338V42.6243Z" fill="#808080"/>
</svg>
