<svg width="25" height="72" viewBox="0 0 25 72" fill="none" xmlns="http://www.w3.org/2000/svg">
<path d="M10.8996 0.0501741C16.3149 -0.469069 21.3709 3.08143 23.6594 8.86328C25.4955 13.5084 25.3758 18.2658 23.7259 22.8548C21.9563 27.7946 19.8541 32.6222 17.7252 37.4217C15.1307 43.2877 12.2834 49.0415 9.70212 54.9075C8.91711 56.6898 8.49134 58.6966 8.1454 60.6613C7.25395 65.6853 9.02355 69.2639 13.3212 71.5233C13.5074 71.6216 13.6804 71.7619 13.9199 71.9163C9.32958 72.5618 4.27356 69.4183 1.83868 64.4364C-0.26356 60.1421 -0.423227 55.6232 0.654504 51.0062C2.11809 44.7753 4.96543 39.1478 7.66641 33.4642C10.1678 28.2016 12.7224 22.953 14.9843 17.5781C15.9822 15.1924 16.6076 12.5401 16.9136 9.94387C17.4591 5.29874 15.7427 2.47799 11.7378 0.499249C11.4983 0.372947 11.2588 0.246645 10.8996 0.0501741Z" fill="#A6F200"/>
</svg>
