<svg width="195" height="108" viewBox="0 0 195 108" fill="none" xmlns="http://www.w3.org/2000/svg">
<path d="M194.15 75.4279C189.212 75.4279 184.519 75.4588 179.826 75.3663C179.336 75.3508 178.661 74.6724 178.415 74.1481C176.728 70.509 175.088 66.8544 173.539 63.1536C173.002 61.8738 172.358 61.3187 170.855 61.3341C159.062 61.4112 147.253 61.3958 135.46 61.3341C134.11 61.3187 133.558 61.8275 133.068 62.9686C131.457 66.7157 129.755 70.4164 128.022 74.1018C127.761 74.6415 127.117 75.3663 126.642 75.3663C121.949 75.4588 117.257 75.4279 112.38 75.4279C112.671 74.7032 112.855 74.1635 113.085 73.6546C123.652 49.9696 134.233 26.2845 144.738 2.56854C145.398 1.08822 146.164 0.594785 147.744 0.641045C151.486 0.764405 155.228 0.748985 158.97 0.641045C160.396 0.594785 161.101 1.04196 161.699 2.3835C170.272 21.7202 178.906 41.026 187.525 60.3472C189.472 64.7111 191.42 69.0903 193.368 73.4696C193.613 74.0401 193.828 74.6261 194.15 75.4279ZM153.249 16.4003C148.587 27.1634 144.079 37.5565 139.509 48.0729C148.787 48.0729 157.773 48.0729 166.99 48.0729C162.405 37.4948 157.912 27.1326 153.249 16.4003Z" fill="#0D1320"/>
<path d="M64.2869 13.4706C50.6075 13.4706 37.3728 13.4552 24.1534 13.486C22.7425 13.486 21.2856 13.486 19.9361 13.8407C15.4274 14.9972 12.7283 19.1451 13.2497 23.8636C13.7251 28.1967 17.421 31.697 21.899 31.8049C27.3125 31.9283 32.7414 31.8049 38.1549 31.8666C43.8751 31.9437 48.8285 33.9946 53.0305 37.9267C53.9813 38.821 54.1654 39.4841 53.5519 40.7331C50.7148 46.4848 48.1384 52.3443 47.249 58.8053C46.6049 63.4467 47.4637 67.826 49.3806 72.2207C46.7582 74.1174 43.7831 75.3047 40.6393 75.3664C30.0576 75.5668 19.4913 75.5052 8.90968 75.5052C8.43427 75.5052 7.7595 75.1505 7.49879 74.765C5.06041 70.9717 2.69871 67.1167 0.183655 63.0612C0.996448 63.015 1.5332 62.9687 2.08528 62.9687C14.0778 62.9533 26.0857 62.9687 38.0782 62.9379C42.1268 62.9225 45.5774 60.2856 46.7736 56.4306C47.9237 52.699 46.6202 48.4123 43.277 46.3306C41.7128 45.3591 39.7038 44.7423 37.8788 44.6652C32.726 44.4339 27.5579 44.6498 22.4051 44.5573C10.4126 44.3414 0.981112 35.1819 0.582383 23.4627C0.168319 11.2501 9.72247 1.0575 22.0524 0.887881C33.2781 0.733681 44.5039 0.872462 55.7296 0.903302C56.3124 0.903302 57.1865 1.04208 57.4165 1.42758C59.6862 5.26715 61.8792 9.21467 64.2869 13.4706Z" fill="#0D1320"/>
<path d="M82.9352 14.2417C82.0457 9.01434 80.0981 4.65049 76.4328 1.21184C76.6322 1.04222 76.7242 0.888016 76.8162 0.888016C84.9288 1.04222 93.1028 0.656716 101.154 1.52024C114.925 2.98513 125.676 12.9002 129.203 26.4543C129.402 27.2408 129.31 28.2739 128.973 29.0295C122.731 43.1233 116.459 57.1864 110.125 71.2185C109.773 71.9895 108.929 72.7451 108.147 73.0381C103.7 74.7343 99.0684 75.4128 94.3143 75.4128C87.0912 75.4128 79.868 75.3974 72.6296 75.4282C71.9855 75.4282 71.3567 75.6132 70.2832 75.7829C66.5106 73.1152 64.793 69.1985 66.7253 64.3566C69.087 58.4354 72.0928 52.7608 75.0526 47.0863C78.1044 41.2267 81.4783 35.5213 83.0579 29.0295C83.702 26.3618 83.978 23.6171 84.4534 20.7644C85.7109 23.9409 85.849 27.1791 85.5422 30.479C85.0362 35.8143 83.0732 40.6561 80.5428 45.2821C78.0891 49.7693 75.5434 54.1949 73.059 58.6667C72.5376 59.6073 72.1235 60.6096 71.6328 61.6273C72.0162 61.7661 72.1848 61.874 72.3689 61.874C80.6962 61.8278 89.0235 62.0899 97.3201 61.6273C107.564 61.0568 115.309 53.1001 116.689 42.5836C117.349 37.603 116.996 32.7303 115.171 28.0426C111.828 19.4228 105.371 14.9048 96.3233 14.2571C91.9219 13.995 87.5206 14.2417 82.9352 14.2417Z" fill="#0D1320"/>
<path d="M63.2595 0.0551308C69.5011 -0.515408 75.3287 3.38585 77.9664 9.73888C80.0828 14.8429 79.9447 20.0703 78.0431 25.1126C76.0035 30.5404 73.5804 35.8449 71.1267 41.1185C68.1362 47.5641 64.8544 53.8863 61.8793 60.3318C60.9745 62.2902 60.4837 64.4952 60.085 66.654C59.0575 72.1744 61.0971 76.1065 66.0506 78.5891C66.2653 78.697 66.4646 78.8512 66.7407 79.0208C61.4499 79.7302 55.6223 76.2761 52.8159 70.802C50.3928 66.0835 50.2088 61.1182 51.451 56.0451C53.1379 49.1986 56.4197 43.0152 59.5329 36.7701C62.416 30.9876 65.3605 25.2205 67.9675 19.3147C69.1177 16.6933 69.8385 13.7789 70.1912 10.9262C70.82 5.8222 68.8417 2.72279 64.2256 0.54857C63.9496 0.40979 63.6735 0.27101 63.2595 0.0551308Z" fill="#A6F200"/>
<path d="M4 103.757C3.24119 103.757 2.55827 103.629 1.95122 103.373C1.34417 103.106 0.867209 102.733 0.520326 102.252C0.173442 101.772 0 101.212 0 100.571H1.98374C2.0271 101.052 2.2168 101.447 2.55285 101.756C2.89973 102.066 3.38212 102.22 4 102.22C4.63957 102.22 5.13822 102.071 5.49594 101.772C5.85366 101.463 6.03252 101.068 6.03252 100.587C6.03252 100.214 5.9187 99.9097 5.69106 99.6749C5.47426 99.4401 5.19784 99.2586 4.86179 99.1305C4.53659 99.0025 4.0813 98.8637 3.49594 98.7143C2.75881 98.5222 2.15718 98.33 1.69106 98.1379C1.23577 97.9351 0.845529 97.6256 0.520326 97.2094C0.195122 96.7931 0.0325204 96.2381 0.0325204 95.5443C0.0325204 94.9039 0.195122 94.3436 0.520326 93.8633C0.845529 93.383 1.30081 93.0148 1.88618 92.7586C2.47155 92.5025 3.14905 92.3744 3.9187 92.3744C5.01355 92.3744 5.90786 92.6465 6.60163 93.1909C7.30624 93.7245 7.69648 94.461 7.77236 95.4002H5.72358C5.69106 94.9947 5.49594 94.6478 5.13822 94.3596C4.78049 94.0714 4.30895 93.9273 3.72358 93.9273C3.19241 93.9273 2.75881 94.0607 2.42277 94.3276C2.08672 94.5944 1.9187 94.9786 1.9187 95.4803C1.9187 95.8218 2.02168 96.1047 2.22764 96.3288C2.44445 96.5423 2.71545 96.713 3.04065 96.8411C3.36586 96.9692 3.8103 97.108 4.37399 97.2574C5.12195 97.4602 5.729 97.663 6.19513 97.8658C6.67209 98.0685 7.07317 98.3834 7.39838 98.8103C7.73442 99.2266 7.90244 99.7869 7.90244 100.491C7.90244 101.057 7.74526 101.591 7.4309 102.092C7.12738 102.594 6.67751 103 6.08131 103.309C5.49594 103.608 4.80217 103.757 4 103.757Z" fill="#0D1320"/>
<path d="M9.4718 99.2266C9.4718 98.3194 9.65609 97.5242 10.0247 96.8411C10.4041 96.1474 10.9244 95.6137 11.5856 95.2401C12.2469 94.8666 13.0057 94.6798 13.8621 94.6798C14.9461 94.6798 15.8404 94.936 16.545 95.4483C17.2604 95.9499 17.7428 96.6704 17.9921 97.6096H15.9921C15.8295 97.172 15.5694 96.8305 15.2116 96.585C14.8539 96.3395 14.4041 96.2167 13.8621 96.2167C13.1032 96.2167 12.4962 96.4836 12.0409 97.0172C11.5965 97.5402 11.3742 98.2767 11.3742 99.2266C11.3742 100.177 11.5965 100.918 12.0409 101.452C12.4962 101.986 13.1032 102.252 13.8621 102.252C14.9352 102.252 15.6453 101.788 15.9921 100.86H17.9921C17.732 101.756 17.2442 102.471 16.5287 103.005C15.8133 103.528 14.9244 103.789 13.8621 103.789C13.0057 103.789 12.2469 103.603 11.5856 103.229C10.9244 102.845 10.4041 102.311 10.0247 101.628C9.65609 100.934 9.4718 100.134 9.4718 99.2266Z" fill="#0D1320"/>
<path d="M19.2216 99.1946C19.2216 98.3087 19.4058 97.5242 19.7744 96.8411C20.1538 96.158 20.6633 95.6297 21.3029 95.2561C21.9533 94.8719 22.6687 94.6798 23.4492 94.6798C24.1538 94.6798 24.7663 94.8185 25.2866 95.096C25.8178 95.3629 26.2405 95.6991 26.5549 96.1047V94.8239H28.4248V103.645H26.5549V102.333C26.2405 102.749 25.8123 103.096 25.2703 103.373C24.7283 103.651 24.1104 103.789 23.4167 103.789C22.647 103.789 21.9424 103.597 21.3029 103.213C20.6633 102.818 20.1538 102.274 19.7744 101.58C19.4058 100.876 19.2216 100.08 19.2216 99.1946ZM26.5549 99.2266C26.5549 98.6182 26.4248 98.0899 26.1646 97.6416C25.9153 97.1933 25.5847 96.8518 25.1728 96.617C24.7609 96.3822 24.3164 96.2648 23.8394 96.2648C23.3625 96.2648 22.918 96.3822 22.5061 96.617C22.0942 96.8411 21.7581 97.1773 21.498 97.6256C21.2487 98.0632 21.124 98.5862 21.124 99.1946C21.124 99.8029 21.2487 100.337 21.498 100.796C21.7581 101.255 22.0942 101.607 22.5061 101.852C22.9289 102.087 23.3733 102.204 23.8394 102.204C24.3164 102.204 24.7609 102.087 25.1728 101.852C25.5847 101.617 25.9153 101.276 26.1646 100.828C26.4248 100.369 26.5549 99.835 26.5549 99.2266Z" fill="#0D1320"/>
<path d="M32.7132 96.1047C32.9842 95.6564 33.3419 95.3095 33.7864 95.064C34.2416 94.8079 34.7782 94.6798 35.3961 94.6798V96.569H34.9246C34.1983 96.569 33.6454 96.7504 33.266 97.1133C32.8975 97.4762 32.7132 98.1059 32.7132 99.0025V103.645H30.8595V94.8239H32.7132V96.1047Z" fill="#0D1320"/>
<path d="M40.8561 96.3128H39.1976V103.645H37.3276V96.3128H36.2707V94.8239H37.3276V94.1995C37.3276 93.1855 37.5986 92.4491 38.1406 91.9901C38.6935 91.5205 39.5553 91.2857 40.726 91.2857V92.8066C40.1623 92.8066 39.7667 92.9134 39.539 93.1268C39.3114 93.3296 39.1976 93.6872 39.1976 94.1995V94.8239H40.8561V96.3128Z" fill="#0D1320"/>
<path d="M41.881 99.1946C41.881 98.3087 42.0653 97.5242 42.4338 96.8411C42.8132 96.158 43.3227 95.6297 43.9623 95.2561C44.6127 94.8719 45.3282 94.6798 46.1086 94.6798C46.8133 94.6798 47.4257 94.8185 47.946 95.096C48.4772 95.3629 48.9 95.6991 49.2143 96.1047V94.8239H51.0843V103.645H49.2143V102.333C48.9 102.749 48.4718 103.096 47.9298 103.373C47.3878 103.651 46.7699 103.789 46.0761 103.789C45.3065 103.789 44.6019 103.597 43.9623 103.213C43.3227 102.818 42.8132 102.274 42.4338 101.58C42.0653 100.876 41.881 100.08 41.881 99.1946ZM49.2143 99.2266C49.2143 98.6182 49.0843 98.0899 48.8241 97.6416C48.5748 97.1933 48.2441 96.8518 47.8322 96.617C47.4203 96.3822 46.9758 96.2648 46.4989 96.2648C46.0219 96.2648 45.5775 96.3822 45.1656 96.617C44.7536 96.8411 44.4176 97.1773 44.1574 97.6256C43.9081 98.0632 43.7834 98.5862 43.7834 99.1946C43.7834 99.8029 43.9081 100.337 44.1574 100.796C44.4176 101.255 44.7536 101.607 45.1656 101.852C45.5883 102.087 46.0328 102.204 46.4989 102.204C46.9758 102.204 47.4203 102.087 47.8322 101.852C48.2441 101.617 48.5748 101.276 48.8241 100.828C49.0843 100.369 49.2143 99.835 49.2143 99.2266Z" fill="#0D1320"/>
<path d="M52.9011 99.2266C52.9011 98.3194 53.0854 97.5242 53.4539 96.8411C53.8333 96.1474 54.3537 95.6137 55.0149 95.2401C55.6761 94.8666 56.435 94.6798 57.2913 94.6798C58.3753 94.6798 59.2696 94.936 59.9743 95.4483C60.6897 95.9499 61.1721 96.6704 61.4214 97.6096H59.4214C59.2588 97.172 58.9986 96.8305 58.6409 96.585C58.2832 96.3395 57.8333 96.2167 57.2913 96.2167C56.5325 96.2167 55.9255 96.4836 55.4702 97.0172C55.0257 97.5402 54.8035 98.2767 54.8035 99.2266C54.8035 100.177 55.0257 100.918 55.4702 101.452C55.9255 101.986 56.5325 102.252 57.2913 102.252C58.3645 102.252 59.0745 101.788 59.4214 100.86H61.4214C61.1612 101.756 60.6734 102.471 59.958 103.005C59.2425 103.528 58.3537 103.789 57.2913 103.789C56.435 103.789 55.6761 103.603 55.0149 103.229C54.3537 102.845 53.8333 102.311 53.4539 101.628C53.0854 100.934 52.9011 100.134 52.9011 99.2266Z" fill="#0D1320"/>
<path d="M71.4801 99.0185C71.4801 99.3493 71.4584 99.6482 71.4151 99.915H64.5695C64.6237 100.619 64.8893 101.185 65.3663 101.612C65.8432 102.039 66.4286 102.252 67.1224 102.252C68.1197 102.252 68.8243 101.842 69.2362 101.02H71.2362C70.9652 101.831 70.472 102.498 69.7565 103.021C69.0519 103.533 68.1739 103.789 67.1224 103.789C66.266 103.789 65.4964 103.603 64.8134 103.229C64.1413 102.845 63.6102 102.311 63.2199 101.628C62.8405 100.934 62.6508 100.134 62.6508 99.2266C62.6508 98.3194 62.8351 97.5242 63.2037 96.8411C63.5831 96.1474 64.1088 95.6137 64.7809 95.2401C65.4638 94.8666 66.2443 94.6798 67.1224 94.6798C67.9679 94.6798 68.7213 94.8612 69.3825 95.2241C70.0438 95.587 70.5587 96.0993 70.9273 96.7611C71.2958 97.4121 71.4801 98.1646 71.4801 99.0185ZM69.5451 98.4421C69.5343 97.7697 69.2904 97.2307 68.8134 96.8251C68.3365 96.4195 67.7457 96.2167 67.0411 96.2167C66.4015 96.2167 65.8541 96.4195 65.3988 96.8251C64.9435 97.22 64.6725 97.759 64.5858 98.4421H69.5451Z" fill="#0D1320"/>
<path d="M81.2192 92.5185C82.4224 92.5185 83.4739 92.7479 84.3736 93.2069C85.2842 93.6552 85.9834 94.3062 86.4712 95.1601C86.9699 96.0033 87.2192 96.9905 87.2192 98.1219C87.2192 99.2533 86.9699 100.235 86.4712 101.068C85.9834 101.9 85.2842 102.541 84.3736 102.989C83.4739 103.427 82.4224 103.645 81.2192 103.645H77.5281V92.5185H81.2192ZM81.2192 102.156C82.5417 102.156 83.5552 101.804 84.2598 101.1C84.9644 100.395 85.3167 99.4027 85.3167 98.1219C85.3167 96.8305 84.9644 95.8218 84.2598 95.096C83.5552 94.3703 82.5417 94.0074 81.2192 94.0074H79.3818V102.156H81.2192Z" fill="#0D1320"/>
<path d="M89.9994 93.6552C89.6634 93.6552 89.3815 93.5431 89.1539 93.319C88.9262 93.0948 88.8124 92.8173 88.8124 92.4864C88.8124 92.1556 88.9262 91.8781 89.1539 91.6539C89.3815 91.4298 89.6634 91.3177 89.9994 91.3177C90.3246 91.3177 90.6011 91.4298 90.8287 91.6539C91.0563 91.8781 91.1702 92.1556 91.1702 92.4864C91.1702 92.8173 91.0563 93.0948 90.8287 93.319C90.6011 93.5431 90.3246 93.6552 89.9994 93.6552ZM90.91 94.8239V103.645H89.0563V94.8239H90.91Z" fill="#0D1320"/>
<path d="M96.9534 94.6798C97.6472 94.6798 98.2597 94.8185 98.7908 95.096C99.3328 95.3629 99.7556 95.6991 100.059 96.1047V94.8239H101.929V103.789C101.929 104.601 101.756 105.321 101.409 105.951C101.062 106.591 100.558 107.093 99.8965 107.456C99.2461 107.819 98.4656 108 97.5551 108C96.341 108 95.3328 107.717 94.5307 107.151C93.7285 106.596 93.2732 105.839 93.1648 104.878H95.0022C95.1431 105.337 95.4412 105.705 95.8965 105.983C96.3627 106.271 96.9155 106.415 97.5551 106.415C98.303 106.415 98.9047 106.191 99.3599 105.743C99.8261 105.294 100.059 104.643 100.059 103.789V102.316C99.7448 102.733 99.3166 103.085 98.7746 103.373C98.2434 103.651 97.6364 103.789 96.9534 103.789C96.173 103.789 95.4575 103.597 94.8071 103.213C94.1675 102.818 93.658 102.274 93.2786 101.58C92.9101 100.876 92.7258 100.08 92.7258 99.1946C92.7258 98.3087 92.9101 97.5242 93.2786 96.8411C93.658 96.158 94.1675 95.6297 94.8071 95.2561C95.4575 94.8719 96.173 94.6798 96.9534 94.6798ZM100.059 99.2266C100.059 98.6182 99.9291 98.0899 99.6689 97.6416C99.4196 97.1933 99.0889 96.8518 98.677 96.617C98.2651 96.3822 97.8206 96.2648 97.3437 96.2648C96.8667 96.2648 96.4223 96.3822 96.0103 96.617C95.5984 96.8411 95.2624 97.1773 95.0022 97.6256C94.7529 98.0632 94.6282 98.5862 94.6282 99.1946C94.6282 99.8029 94.7529 100.337 95.0022 100.796C95.2624 101.255 95.5984 101.607 96.0103 101.852C96.4331 102.087 96.8776 102.204 97.3437 102.204C97.8206 102.204 98.2651 102.087 98.677 101.852C99.0889 101.617 99.4196 101.276 99.6689 100.828C99.9291 100.369 100.059 99.835 100.059 99.2266Z" fill="#0D1320"/>
<path d="M105.307 93.6552C104.971 93.6552 104.689 93.5431 104.461 93.319C104.234 93.0948 104.12 92.8173 104.12 92.4864C104.12 92.1556 104.234 91.8781 104.461 91.6539C104.689 91.4298 104.971 91.3177 105.307 91.3177C105.632 91.3177 105.908 91.4298 106.136 91.6539C106.364 91.8781 106.478 92.1556 106.478 92.4864C106.478 92.8173 106.364 93.0948 106.136 93.319C105.908 93.5431 105.632 93.6552 105.307 93.6552ZM106.217 94.8239V103.645H104.364V94.8239H106.217Z" fill="#0D1320"/>
<path d="M110.814 96.3128V101.196C110.814 101.527 110.89 101.767 111.041 101.916C111.204 102.055 111.475 102.124 111.854 102.124H112.993V103.645H111.529C110.694 103.645 110.055 103.453 109.61 103.069C109.166 102.685 108.944 102.06 108.944 101.196V96.3128H107.887V94.8239H108.944V92.6305H110.814V94.8239H112.993V96.3128H110.814Z" fill="#0D1320"/>
<path d="M114.083 99.1946C114.083 98.3087 114.267 97.5242 114.636 96.8411C115.015 96.158 115.525 95.6297 116.164 95.2561C116.815 94.8719 117.53 94.6798 118.311 94.6798C119.015 94.6798 119.628 94.8185 120.148 95.096C120.679 95.3629 121.102 95.6991 121.416 96.1047V94.8239H123.286V103.645H121.416V102.333C121.102 102.749 120.674 103.096 120.132 103.373C119.59 103.651 118.972 103.789 118.278 103.789C117.509 103.789 116.804 103.597 116.164 103.213C115.525 102.818 115.015 102.274 114.636 101.58C114.267 100.876 114.083 100.08 114.083 99.1946ZM121.416 99.2266C121.416 98.6182 121.286 98.0899 121.026 97.6416C120.777 97.1933 120.446 96.8518 120.034 96.617C119.622 96.3822 119.178 96.2648 118.701 96.2648C118.224 96.2648 117.78 96.3822 117.368 96.617C116.956 96.8411 116.62 97.1773 116.36 97.6256C116.11 98.0632 115.986 98.5862 115.986 99.1946C115.986 99.8029 116.11 100.337 116.36 100.796C116.62 101.255 116.956 101.607 117.368 101.852C117.79 102.087 118.235 102.204 118.701 102.204C119.178 102.204 119.622 102.087 120.034 101.852C120.446 101.617 120.777 101.276 121.026 100.828C121.286 100.369 121.416 99.835 121.416 99.2266Z" fill="#0D1320"/>
<path d="M127.575 91.798V103.645H125.721V91.798H127.575Z" fill="#0D1320"/>
<path d="M141.045 101.372H136.314L135.501 103.645H133.566L137.614 92.5025H139.761L143.81 103.645H141.858L141.045 101.372ZM140.525 99.883L138.688 94.7118L136.834 99.883H140.525Z" fill="#0D1320"/>
<path d="M149.18 94.6798C149.873 94.6798 150.486 94.8185 151.017 95.096C151.559 95.3629 151.982 95.6991 152.285 96.1047V94.8239H154.155V103.789C154.155 104.601 153.982 105.321 153.635 105.951C153.288 106.591 152.784 107.093 152.123 107.456C151.472 107.819 150.692 108 149.781 108C148.567 108 147.559 107.717 146.757 107.151C145.955 106.596 145.499 105.839 145.391 104.878H147.229C147.369 105.337 147.668 105.705 148.123 105.983C148.589 106.271 149.142 106.415 149.781 106.415C150.529 106.415 151.131 106.191 151.586 105.743C152.052 105.294 152.285 104.643 152.285 103.789V102.316C151.971 102.733 151.543 103.085 151.001 103.373C150.47 103.651 149.863 103.789 149.18 103.789C148.399 103.789 147.684 103.597 147.033 103.213C146.394 102.818 145.884 102.274 145.505 101.58C145.136 100.876 144.952 100.08 144.952 99.1946C144.952 98.3087 145.136 97.5242 145.505 96.8411C145.884 96.158 146.394 95.6297 147.033 95.2561C147.684 94.8719 148.399 94.6798 149.18 94.6798ZM152.285 99.2266C152.285 98.6182 152.155 98.0899 151.895 97.6416C151.646 97.1933 151.315 96.8518 150.903 96.617C150.491 96.3822 150.047 96.2648 149.57 96.2648C149.093 96.2648 148.649 96.3822 148.237 96.617C147.825 96.8411 147.489 97.1773 147.229 97.6256C146.979 98.0632 146.855 98.5862 146.855 99.1946C146.855 99.8029 146.979 100.337 147.229 100.796C147.489 101.255 147.825 101.607 148.237 101.852C148.659 102.087 149.104 102.204 149.57 102.204C150.047 102.204 150.491 102.087 150.903 101.852C151.315 101.617 151.646 101.276 151.895 100.828C152.155 100.369 152.285 99.835 152.285 99.2266Z" fill="#0D1320"/>
<path d="M164.801 99.0185C164.801 99.3493 164.78 99.6482 164.736 99.915H157.891C157.945 100.619 158.211 101.185 158.688 101.612C159.165 102.039 159.75 102.252 160.444 102.252C161.441 102.252 162.146 101.842 162.558 101.02H164.558C164.287 101.831 163.793 102.498 163.078 103.021C162.373 103.533 161.495 103.789 160.444 103.789C159.587 103.789 158.818 103.603 158.135 103.229C157.463 102.845 156.932 102.311 156.541 101.628C156.162 100.934 155.972 100.134 155.972 99.2266C155.972 98.3194 156.156 97.5242 156.525 96.8411C156.904 96.1474 157.43 95.6137 158.102 95.2401C158.785 94.8666 159.566 94.6798 160.444 94.6798C161.289 94.6798 162.043 94.8612 162.704 95.2241C163.365 95.587 163.88 96.0993 164.249 96.7611C164.617 97.4121 164.801 98.1646 164.801 99.0185ZM162.866 98.4421C162.856 97.7697 162.612 97.2307 162.135 96.8251C161.658 96.4195 161.067 96.2167 160.362 96.2167C159.723 96.2167 159.175 96.4195 158.72 96.8251C158.265 97.22 157.994 97.759 157.907 98.4421H162.866Z" fill="#0D1320"/>
<path d="M171.146 94.6798C171.851 94.6798 172.479 94.8239 173.032 95.1121C173.596 95.4002 174.035 95.8272 174.349 96.3928C174.664 96.9585 174.821 97.6416 174.821 98.4421V103.645H172.983V98.7143C172.983 97.9245 172.783 97.3214 172.382 96.9052C171.981 96.4782 171.433 96.2648 170.739 96.2648C170.046 96.2648 169.493 96.4782 169.081 96.9052C168.68 97.3214 168.479 97.9245 168.479 98.7143V103.645H166.626V94.8239H168.479V95.8325C168.783 95.4696 169.168 95.1868 169.634 94.984C170.111 94.7812 170.615 94.6798 171.146 94.6798Z" fill="#0D1320"/>
<path d="M176.567 99.2266C176.567 98.3194 176.752 97.5242 177.12 96.8411C177.5 96.1474 178.02 95.6137 178.681 95.2401C179.342 94.8666 180.101 94.6798 180.958 94.6798C182.042 94.6798 182.936 94.936 183.64 95.4483C184.356 95.9499 184.838 96.6704 185.088 97.6096H183.088C182.925 97.172 182.665 96.8305 182.307 96.585C181.949 96.3395 181.5 96.2167 180.958 96.2167C180.199 96.2167 179.592 96.4836 179.136 97.0172C178.692 97.5402 178.47 98.2767 178.47 99.2266C178.47 100.177 178.692 100.918 179.136 101.452C179.592 101.986 180.199 102.252 180.958 102.252C182.031 102.252 182.741 101.788 183.088 100.86H185.088C184.827 101.756 184.34 102.471 183.624 103.005C182.909 103.528 182.02 103.789 180.958 103.789C180.101 103.789 179.342 103.603 178.681 103.229C178.02 102.845 177.5 102.311 177.12 101.628C176.752 100.934 176.567 100.134 176.567 99.2266Z" fill="#0D1320"/>
<path d="M195 94.8239L189.504 107.792H187.585L189.406 103.501L185.878 94.8239H187.943L190.463 101.548L193.081 94.8239H195Z" fill="#0D1320"/>
</svg>
