<svg width="85" height="35" viewBox="0 0 85 35" fill="none" xmlns="http://www.w3.org/2000/svg">
<path d="M85 32.8735C82.8361 32.8735 80.7796 32.8869 78.7231 32.8466C78.5081 32.8399 78.2124 32.5442 78.1049 32.3157C77.3656 30.7297 76.6465 29.1369 75.9678 27.524C75.7326 26.9662 75.4503 26.7243 74.7917 26.731C69.6237 26.7646 64.4489 26.7579 59.2809 26.731C58.6895 26.7243 58.4476 26.9461 58.2326 27.4434C57.5269 29.0765 56.7809 30.6894 56.0215 32.2955C55.9073 32.5308 55.625 32.8466 55.4167 32.8466C53.3602 32.8869 51.3038 32.8735 49.1667 32.8735C49.2944 32.5576 49.375 32.3224 49.4758 32.1007C54.1062 21.7781 58.7433 11.4555 63.3468 1.11947C63.6358 0.474307 63.9718 0.259254 64.664 0.279415C66.3038 0.333179 67.9436 0.326458 69.5834 0.279415C70.2084 0.259254 70.5175 0.454146 70.7796 1.03882C74.5363 9.46624 78.3199 17.8802 82.0968 26.3009C82.9503 28.2028 83.8038 30.1114 84.6573 32.02C84.7648 32.2687 84.8589 32.524 85 32.8735ZM67.0766 7.14769C65.0336 11.8386 63.0578 16.3681 61.0551 20.9515C65.121 20.9515 69.0592 20.9515 73.0981 20.9515C71.0887 16.3412 69.1196 11.8251 67.0766 7.14769Z" fill="#0D1320"/>
<path d="M28.0914 5.87078C22.0968 5.87078 16.297 5.86406 10.504 5.8775C9.88575 5.8775 9.24731 5.8775 8.65592 6.03207C6.68011 6.53611 5.49731 8.3439 5.72581 10.4004C5.93414 12.2888 7.55377 13.8143 9.51613 13.8614C11.8884 13.9151 14.2675 13.8614 16.6398 13.8883C19.1465 13.9219 21.3172 14.8157 23.1586 16.5294C23.5753 16.9192 23.6559 17.2081 23.3871 17.7525C22.1438 20.2592 21.0148 22.813 20.625 25.6288C20.3427 27.6517 20.7191 29.5603 21.5591 31.4756C20.41 32.3022 19.1062 32.8197 17.7285 32.8466C13.0914 32.934 8.46102 32.9071 3.82393 32.9071C3.61559 32.9071 3.31989 32.7525 3.20565 32.5845C2.1371 30.9313 1.10215 29.2512 0 27.4837C0.356183 27.4635 0.591398 27.4434 0.833334 27.4434C6.08871 27.4366 11.3508 27.4434 16.6062 27.4299C18.3804 27.4232 19.8925 26.274 20.4167 24.5939C20.9207 22.9676 20.3495 21.0993 18.8844 20.192C18.1989 19.7686 17.3186 19.4998 16.5188 19.4662C14.2608 19.3654 11.996 19.4595 9.73791 19.4192C4.48253 19.3251 0.349462 15.3331 0.174731 10.2256C-0.00672054 4.90304 4.18011 0.460836 9.58334 0.386911C14.5027 0.319707 19.422 0.380191 24.3414 0.393632C24.5968 0.393632 24.9798 0.454116 25.0807 0.622126C26.0753 2.29551 27.0363 4.01594 28.0914 5.87078Z" fill="#0D1320"/>
<path d="M36.2634 6.20682C35.8736 3.9286 35.0201 2.02672 33.4139 0.528062C33.5013 0.454137 33.5416 0.386932 33.5819 0.386932C37.1371 0.454137 40.719 0.286126 44.2473 0.66247C50.2822 1.30091 54.9932 5.62215 56.5389 11.5294C56.6263 11.8721 56.586 12.3224 56.4381 12.6517C53.7029 18.7942 50.9543 24.9232 48.1787 31.0388C48.0242 31.3748 47.6545 31.7041 47.3118 31.8318C45.3629 32.5711 43.3333 32.8668 41.25 32.8668C38.0846 32.8668 34.9193 32.8601 31.7473 32.8735C31.465 32.8735 31.1895 32.9541 30.719 33.0281C29.0658 31.8654 28.3131 30.1584 29.1599 28.0482C30.1949 25.4676 31.5121 22.9945 32.8091 20.5213C34.1465 17.9676 35.625 15.481 36.3172 12.6517C36.5994 11.4891 36.7204 10.2928 36.9287 9.04957C37.4798 10.434 37.5403 11.8453 37.4059 13.2834C37.1841 15.6087 36.3239 17.7189 35.215 19.7351C34.1397 21.6907 33.0242 23.6195 31.9354 25.5684C31.7069 25.9783 31.5255 26.4152 31.3104 26.8587C31.4785 26.9192 31.5524 26.9662 31.633 26.9662C35.2822 26.9461 38.9314 27.0603 42.5672 26.8587C47.0564 26.6101 50.4502 23.1423 51.0551 18.559C51.344 16.3883 51.1895 14.2646 50.3897 12.2216C48.9247 8.46489 46.0954 6.4958 42.1303 6.21355C40.2016 6.0993 38.2728 6.20682 36.2634 6.20682Z" fill="#0D1320"/>
<path d="M27.6412 0.0240274C30.3764 -0.224629 32.9302 1.47564 34.0861 4.24446C35.0135 6.46892 34.953 8.74715 34.1197 10.9447C33.2259 13.3103 32.164 15.6221 31.0888 17.9205C29.7783 20.7297 28.3401 23.4851 27.0363 26.2942C26.6398 27.1477 26.4248 28.1087 26.2501 29.0496C25.7998 31.4555 26.6936 33.1692 28.8643 34.2512C28.9584 34.2982 29.0458 34.3654 29.1667 34.4394C26.8482 34.7485 24.2944 33.2431 23.0646 30.8574C22.0027 28.8009 21.9221 26.6369 22.4665 24.4259C23.2057 21.442 24.6439 18.7471 26.0081 16.0254C27.2716 13.5052 28.5619 10.9918 29.7044 8.41785C30.2084 7.27537 30.5242 6.00521 30.6788 4.76193C30.9544 2.53747 30.0874 1.18666 28.0646 0.239081C27.9436 0.178597 27.8226 0.118113 27.6412 0.0240274Z" fill="#0D1320"/>
</svg>
