<svg width="109" height="60" viewBox="0 0 109 60" fill="none" xmlns="http://www.w3.org/2000/svg">
<path d="M108.525 41.9046C105.764 41.9046 103.141 41.9217 100.518 41.8703C100.244 41.8617 99.8667 41.4848 99.7296 41.1935C98.7866 39.1718 97.8694 37.1415 97.0036 35.0855C96.7036 34.3745 96.3435 34.0661 95.5035 34.0746C88.9114 34.1175 82.3107 34.1089 75.7187 34.0746C74.9643 34.0661 74.6557 34.3488 74.3814 34.9827C73.4813 37.0644 72.5298 39.1204 71.5611 41.1678C71.4154 41.4677 71.0553 41.8703 70.7896 41.8703C68.1665 41.9217 65.5434 41.9046 62.8174 41.9046C62.9803 41.5019 63.0831 41.2021 63.2117 40.9194C69.118 27.761 75.0329 14.6026 80.9049 1.42711C81.2735 0.60471 81.7021 0.330577 82.585 0.356277C84.6767 0.42481 86.7683 0.416243 88.8599 0.356277C89.6572 0.330577 90.0515 0.57901 90.3858 1.32431C95.1777 12.0669 100.004 22.7923 104.822 33.5264C105.91 35.9507 106.999 38.3837 108.088 40.8166C108.225 41.1336 108.345 41.4591 108.525 41.9046ZM85.6625 9.1114C83.0565 15.0909 80.5363 20.8648 77.9817 26.7073C83.168 26.7073 88.1913 26.7073 93.3432 26.7073C90.7801 20.8306 88.2685 15.0738 85.6625 9.1114Z" fill="white"/>
<path d="M35.9348 7.48369C28.2883 7.48369 20.8904 7.47513 13.5011 7.49226C12.7125 7.49226 11.8981 7.49226 11.1437 7.68929C8.6235 8.33179 7.11478 10.6362 7.40624 13.2576C7.67198 15.6649 9.7379 17.6095 12.241 17.6694C15.267 17.738 18.3016 17.6694 21.3276 17.7037C24.5251 17.7465 27.2939 18.8859 29.6427 21.0704C30.1742 21.5673 30.2771 21.9356 29.9342 22.6295C28.3483 25.8249 26.9082 29.0802 26.411 32.6697C26.0509 35.2482 26.531 37.6812 27.6025 40.1227C26.1367 41.1763 24.4736 41.836 22.7163 41.8702C16.8014 41.9816 10.8952 41.9473 4.98028 41.9473C4.71454 41.9473 4.33736 41.7503 4.19164 41.5361C2.82864 39.4288 1.50851 37.2871 0.102661 35.0341C0.556992 35.0084 0.857021 34.9827 1.16562 34.9827C7.86914 34.9741 14.5812 34.9827 21.2847 34.9655C23.5478 34.957 25.4766 33.4921 26.1452 31.3504C26.7881 29.2773 26.0595 26.8957 24.1907 25.7392C23.3164 25.1995 22.1934 24.8569 21.1733 24.814C18.293 24.6855 15.4042 24.8055 12.5239 24.7541C5.82037 24.6341 0.548419 19.5455 0.32554 13.0349C0.0940887 6.2501 5.43462 0.587538 12.3267 0.493305C18.6016 0.407638 24.8765 0.484738 31.1514 0.501872C31.4772 0.501872 31.9658 0.578971 32.0944 0.793138C33.3631 2.92623 34.5889 5.1193 35.9348 7.48369Z" fill="white"/>
<path d="M46.3586 7.91189C45.8614 5.00779 44.7728 2.58343 42.724 0.673064C42.8354 0.578831 42.8869 0.493164 42.9383 0.493164C47.473 0.578831 52.042 0.364664 56.5425 0.844397C64.2404 1.65823 70.2495 7.16659 72.2212 14.6967C72.3326 15.1336 72.2812 15.7075 72.0926 16.1273C68.6037 23.9572 65.0976 31.77 61.5573 39.5657C61.3601 39.994 60.8886 40.4138 60.4514 40.5765C57.9655 41.5189 55.3767 41.8958 52.7193 41.8958C48.6817 41.8958 44.6442 41.8872 40.5981 41.9044C40.238 41.9044 39.8866 42.0072 39.2865 42.1014C37.1777 40.6194 36.2176 38.4434 37.2977 35.7535C38.6179 32.4639 40.298 29.3114 41.9525 26.1589C43.6584 22.9035 45.5443 19.7339 46.4272 16.1273C46.7872 14.6453 46.9415 13.1204 47.2073 11.5356C47.9102 13.3003 47.9874 15.0993 47.8159 16.9326C47.533 19.8966 46.4358 22.5866 45.0214 25.1566C43.6498 27.6495 42.2268 30.1081 40.8381 32.5924C40.5466 33.115 40.3152 33.6718 40.0409 34.2372C40.2552 34.3143 40.3495 34.3743 40.4523 34.3743C45.1071 34.3486 49.7618 34.4942 54.3994 34.2372C60.1257 33.9203 64.4547 29.4999 65.2262 23.6574C65.5948 20.8904 65.3976 18.1833 64.3775 15.579C62.5088 10.7903 58.8999 8.28025 53.8422 7.92045C51.382 7.77482 48.9217 7.91189 46.3586 7.91189Z" fill="white"/>
<path d="M35.3604 0.0306282C38.8493 -0.286338 42.1068 1.88103 43.5812 5.41049C44.7642 8.24605 44.687 11.1501 43.6241 13.9514C42.484 16.9669 41.1295 19.9138 39.758 22.8436C38.0864 26.4245 36.2519 29.9368 34.5889 33.5177C34.0831 34.6056 33.8088 35.8307 33.5859 37.03C33.0116 40.0969 34.1517 42.2814 36.9206 43.6606C37.0406 43.7206 37.152 43.8062 37.3063 43.9005C34.3489 44.2945 31.0914 42.3756 29.5227 39.3344C28.1683 36.713 28.0654 33.9546 28.7598 31.1362C29.7027 27.3326 31.5372 23.8973 33.2773 20.4278C34.8889 17.2153 36.5348 14.0114 37.9921 10.7304C38.635 9.27405 39.0379 7.65495 39.2351 6.07012C39.5865 3.23456 38.4807 1.51266 35.9005 0.304761C35.7462 0.227661 35.5919 0.150561 35.3604 0.0306282Z" fill="#A6F200"/>
<path d="M2.2359 57.6431C1.81174 57.6431 1.43001 57.5719 1.09068 57.4296C0.751359 57.2814 0.484748 57.0738 0.290849 56.807C0.0969495 56.5402 0 56.2289 0 55.8731H1.10886C1.1331 56.1399 1.23914 56.3593 1.42698 56.5313C1.62088 56.7032 1.89052 56.7892 2.2359 56.7892C2.5934 56.7892 2.87213 56.7062 3.07209 56.5402C3.27205 56.3682 3.37203 56.1488 3.37203 55.882C3.37203 55.6744 3.3084 55.5055 3.18116 55.375C3.05997 55.2446 2.90546 55.1437 2.71762 55.0726C2.53584 55.0014 2.28134 54.9244 1.95414 54.8413C1.5421 54.7346 1.20581 54.6279 0.945258 54.5211C0.690766 54.4085 0.472629 54.2365 0.290849 54.0053C0.109068 53.774 0.018178 53.4657 0.018178 53.0803C0.018178 52.7245 0.109068 52.4132 0.290849 52.1463C0.472629 51.8795 0.727122 51.6749 1.05433 51.5326C1.38153 51.3903 1.76024 51.3192 2.19045 51.3192C2.80245 51.3192 3.30234 51.4704 3.69014 51.7728C4.084 52.0693 4.30214 52.4784 4.34455 53.0002H3.19934C3.18116 52.7749 3.07209 52.5822 2.87213 52.4221C2.67217 52.262 2.40859 52.1819 2.08139 52.1819C1.78448 52.1819 1.5421 52.256 1.35426 52.4043C1.16642 52.5525 1.0725 52.766 1.0725 53.0447C1.0725 53.2344 1.13007 53.3916 1.2452 53.5161C1.36638 53.6347 1.51787 53.7295 1.69965 53.8007C1.88143 53.8719 2.12986 53.9489 2.44495 54.032C2.86304 54.1446 3.20236 54.2573 3.46292 54.3699C3.72953 54.4826 3.95372 54.6575 4.1355 54.8947C4.32334 55.126 4.41726 55.4373 4.41726 55.8286C4.41726 56.1429 4.3294 56.4394 4.15368 56.7181C3.98402 56.9967 3.73256 57.2221 3.39929 57.394C3.07209 57.5601 2.68429 57.6431 2.2359 57.6431Z" fill="white"/>
<path d="M5.2945 55.126C5.2945 54.6219 5.3975 54.1802 5.60352 53.8007C5.8156 53.4153 6.10645 53.1188 6.47607 52.9113C6.84569 52.7037 7.26984 52.6 7.74853 52.6C8.35447 52.6 8.85436 52.7423 9.24822 53.0269C9.64814 53.3056 9.91778 53.7058 10.0571 54.2276H8.93919C8.8483 53.9845 8.70288 53.7948 8.50292 53.6584C8.30296 53.522 8.0515 53.4538 7.74853 53.4538C7.32438 53.4538 6.98505 53.6021 6.73056 53.8985C6.48213 54.1891 6.35791 54.5982 6.35791 55.126C6.35791 55.6537 6.48213 56.0658 6.73056 56.3623C6.98505 56.6588 7.32438 56.807 7.74853 56.807C8.34841 56.807 8.74529 56.5491 8.93919 56.0332H10.0571C9.91172 56.5313 9.63905 56.9286 9.23913 57.225C8.83921 57.5156 8.34235 57.6609 7.74853 57.6609C7.26984 57.6609 6.84569 57.5571 6.47607 57.3496C6.10645 57.1361 5.8156 56.8396 5.60352 56.4601C5.3975 56.0747 5.2945 55.63 5.2945 55.126Z" fill="white"/>
<path d="M10.7444 55.1082C10.7444 54.616 10.8474 54.1802 11.0534 53.8007C11.2655 53.4212 11.5503 53.1277 11.9078 52.9202C12.2713 52.7067 12.6712 52.6 13.1075 52.6C13.5014 52.6 13.8437 52.677 14.1346 52.8312C14.4315 52.9795 14.6678 53.1662 14.8435 53.3916V52.68H15.8887V57.5808H14.8435V56.8515C14.6678 57.0827 14.4284 57.2754 14.1255 57.4296C13.8225 57.5838 13.4771 57.6609 13.0893 57.6609C12.6591 57.6609 12.2653 57.5541 11.9078 57.3407C11.5503 57.1213 11.2655 56.8189 11.0534 56.4334C10.8474 56.0421 10.7444 55.6003 10.7444 55.1082ZM14.8435 55.126C14.8435 54.788 14.7708 54.4945 14.6254 54.2454C14.486 53.9964 14.3012 53.8066 14.0709 53.6762C13.8407 53.5457 13.5923 53.4805 13.3256 53.4805C13.059 53.4805 12.8106 53.5457 12.5803 53.6762C12.3501 53.8007 12.1622 53.9875 12.0168 54.2365C11.8775 54.4796 11.8078 54.7702 11.8078 55.1082C11.8078 55.4462 11.8775 55.7426 12.0168 55.9976C12.1622 56.2526 12.3501 56.4483 12.5803 56.5846C12.8167 56.7151 13.0651 56.7803 13.3256 56.7803C13.5923 56.7803 13.8407 56.7151 14.0709 56.5846C14.3012 56.4542 14.486 56.2644 14.6254 56.0154C14.7708 55.7604 14.8435 55.4639 14.8435 55.126Z" fill="white"/>
<path d="M18.2858 53.3916C18.4373 53.1425 18.6373 52.9498 18.8857 52.8134C19.1402 52.6711 19.4401 52.6 19.7855 52.6V53.6495H19.5219C19.116 53.6495 18.8069 53.7503 18.5949 53.9519C18.3888 54.1535 18.2858 54.5034 18.2858 55.0014V57.5808H17.2497V52.68H18.2858V53.3916Z" fill="white"/>
<path d="M22.8375 53.5072H21.9104V57.5808H20.8652V53.5072H20.2744V52.68H20.8652V52.3331C20.8652 51.7698 21.0167 51.3607 21.3196 51.1057C21.6287 50.8448 22.1104 50.7144 22.7648 50.7144V51.5593C22.4497 51.5593 22.2285 51.6186 22.1013 51.7372C21.9741 51.8499 21.9104 52.0485 21.9104 52.3331V52.68H22.8375V53.5072Z" fill="white"/>
<path d="M23.4104 55.1082C23.4104 54.616 23.5134 54.1802 23.7194 53.8007C23.9315 53.4212 24.2163 53.1277 24.5738 52.9202C24.9374 52.7067 25.3373 52.6 25.7736 52.6C26.1674 52.6 26.5098 52.677 26.8006 52.8312C27.0975 52.9795 27.3338 53.1662 27.5096 53.3916V52.68H28.5548V57.5808H27.5096V56.8515C27.3338 57.0827 27.0945 57.2754 26.7915 57.4296C26.4886 57.5838 26.1432 57.6609 25.7554 57.6609C25.3252 57.6609 24.9313 57.5541 24.5738 57.3407C24.2163 57.1213 23.9315 56.8189 23.7194 56.4334C23.5134 56.0421 23.4104 55.6003 23.4104 55.1082ZM27.5096 55.126C27.5096 54.788 27.4368 54.4945 27.2914 54.2454C27.1521 53.9964 26.9672 53.8066 26.737 53.6762C26.5067 53.5457 26.2583 53.4805 25.9917 53.4805C25.7251 53.4805 25.4766 53.5457 25.2464 53.6762C25.0161 53.8007 24.8283 53.9875 24.6829 54.2365C24.5435 54.4796 24.4738 54.7702 24.4738 55.1082C24.4738 55.4462 24.5435 55.7426 24.6829 55.9976C24.8283 56.2526 25.0161 56.4483 25.2464 56.5846C25.4827 56.7151 25.7311 56.7803 25.9917 56.7803C26.2583 56.7803 26.5067 56.7151 26.737 56.5846C26.9672 56.4542 27.1521 56.2644 27.2914 56.0154C27.4368 55.7604 27.5096 55.4639 27.5096 55.126Z" fill="white"/>
<path d="M29.5703 55.126C29.5703 54.6219 29.6734 54.1802 29.8794 53.8007C30.0914 53.4153 30.3823 53.1188 30.7519 52.9113C31.1215 52.7037 31.5457 52.6 32.0244 52.6C32.6303 52.6 33.1302 52.7423 33.5241 53.0269C33.924 53.3056 34.1936 53.7058 34.333 54.2276H33.215C33.1241 53.9845 32.9787 53.7948 32.7788 53.6584C32.5788 53.522 32.3273 53.4538 32.0244 53.4538C31.6002 53.4538 31.2609 53.6021 31.0064 53.8985C30.758 54.1891 30.6338 54.5982 30.6338 55.126C30.6338 55.6537 30.758 56.0658 31.0064 56.3623C31.2609 56.6588 31.6002 56.807 32.0244 56.807C32.6243 56.807 33.0211 56.5491 33.215 56.0332H34.333C34.1876 56.5313 33.9149 56.9286 33.515 57.225C33.1151 57.5156 32.6182 57.6609 32.0244 57.6609C31.5457 57.6609 31.1215 57.5571 30.7519 57.3496C30.3823 57.1361 30.0914 56.8396 29.8794 56.4601C29.6734 56.0747 29.5703 55.63 29.5703 55.126Z" fill="white"/>
<path d="M39.9555 55.0103C39.9555 55.1941 39.9434 55.3602 39.9192 55.5084H36.0927C36.123 55.8998 36.2715 56.214 36.5381 56.4512C36.8047 56.6884 37.1319 56.807 37.5197 56.807C38.0771 56.807 38.471 56.5787 38.7013 56.1221H39.8192C39.6677 56.5728 39.392 56.9434 38.9921 57.2339C38.5983 57.5185 38.1074 57.6609 37.5197 57.6609C37.041 57.6609 36.6108 57.5571 36.229 57.3496C35.8534 57.1361 35.5565 56.8396 35.3383 56.4601C35.1262 56.0747 35.0202 55.63 35.0202 55.126C35.0202 54.6219 35.1232 54.1802 35.3292 53.8007C35.5413 53.4153 35.8352 53.1188 36.2109 52.9113C36.5926 52.7037 37.0289 52.6 37.5197 52.6C37.9923 52.6 38.4134 52.7008 38.7831 52.9024C39.1527 53.104 39.4405 53.3886 39.6465 53.7562C39.8525 54.1179 39.9555 54.536 39.9555 55.0103ZM38.874 54.6901C38.8679 54.3166 38.7316 54.0171 38.4649 53.7918C38.1983 53.5665 37.8681 53.4538 37.4742 53.4538C37.1167 53.4538 36.8107 53.5665 36.5562 53.7918C36.3018 54.0112 36.1503 54.3106 36.1018 54.6901H38.874Z" fill="white"/>
<path d="M45.3994 51.3992C46.072 51.3992 46.6598 51.5267 47.1627 51.7817C47.6717 52.0307 48.0625 52.3924 48.3352 52.8668C48.6139 53.3352 48.7533 53.8837 48.7533 54.5122C48.7533 55.1408 48.6139 55.6863 48.3352 56.1488C48.0625 56.6113 47.6717 56.9671 47.1627 57.2161C46.6598 57.4592 46.072 57.5808 45.3994 57.5808H43.3362V51.3992H45.3994ZM45.3994 56.7536C46.1387 56.7536 46.7052 56.558 47.0991 56.1666C47.4929 55.7752 47.6899 55.2238 47.6899 54.5122C47.6899 53.7948 47.4929 53.2344 47.0991 52.8312C46.7052 52.428 46.1387 52.2264 45.3994 52.2264H44.3724V56.7536H45.3994Z" fill="white"/>
<path d="M50.3074 52.0307C50.1195 52.0307 49.962 51.9685 49.8347 51.8439C49.7075 51.7194 49.6439 51.5652 49.6439 51.3814C49.6439 51.1976 49.7075 51.0434 49.8347 50.9189C49.962 50.7944 50.1195 50.7321 50.3074 50.7321C50.4892 50.7321 50.6437 50.7944 50.7709 50.9189C50.8982 51.0434 50.9618 51.1976 50.9618 51.3814C50.9618 51.5652 50.8982 51.7194 50.7709 51.8439C50.6437 51.9685 50.4892 52.0307 50.3074 52.0307ZM50.8164 52.68V57.5808H49.7802V52.68H50.8164Z" fill="white"/>
<path d="M54.1945 52.6C54.5823 52.6 54.9246 52.677 55.2215 52.8312C55.5245 52.9795 55.7608 53.1662 55.9305 53.3916V52.68H56.9757V57.6609C56.9757 58.1115 56.8788 58.5117 56.6849 58.8616C56.491 59.2174 56.2092 59.4961 55.8396 59.6977C55.476 59.8993 55.0398 60.0001 54.5308 60.0001C53.8521 60.0001 53.2886 59.8429 52.8402 59.5287C52.3918 59.2203 52.1373 58.7993 52.0767 58.2657H53.1038C53.1826 58.5206 53.3492 58.7252 53.6037 58.8794C53.8643 59.0395 54.1733 59.1195 54.5308 59.1195C54.9489 59.1195 55.2852 58.995 55.5397 58.746C55.8002 58.4969 55.9305 58.1352 55.9305 57.6609V56.8426C55.7548 57.0738 55.5154 57.2695 55.2125 57.4296C54.9156 57.5838 54.5762 57.6609 54.1945 57.6609C53.7582 57.6609 53.3583 57.5541 52.9947 57.3407C52.6372 57.1213 52.3524 56.8189 52.1404 56.4334C51.9343 56.0421 51.8313 55.6003 51.8313 55.1082C51.8313 54.616 51.9343 54.1802 52.1404 53.8007C52.3524 53.4212 52.6372 53.1277 52.9947 52.9202C53.3583 52.7067 53.7582 52.6 54.1945 52.6ZM55.9305 55.126C55.9305 54.788 55.8578 54.4945 55.7124 54.2454C55.573 53.9964 55.3882 53.8066 55.1579 53.6762C54.9277 53.5457 54.6792 53.4805 54.4126 53.4805C54.146 53.4805 53.8976 53.5457 53.6673 53.6762C53.4371 53.8007 53.2492 53.9875 53.1038 54.2365C52.9644 54.4796 52.8948 54.7702 52.8948 55.1082C52.8948 55.4462 52.9644 55.7426 53.1038 55.9976C53.2492 56.2526 53.4371 56.4483 53.6673 56.5846C53.9036 56.7151 54.1521 56.7803 54.4126 56.7803C54.6792 56.7803 54.9277 56.7151 55.1579 56.5846C55.3882 56.4542 55.573 56.2644 55.7124 56.0154C55.8578 55.7604 55.9305 55.4639 55.9305 55.126Z" fill="white"/>
<path d="M58.8638 52.0307C58.676 52.0307 58.5184 51.9685 58.3912 51.8439C58.264 51.7194 58.2003 51.5652 58.2003 51.3814C58.2003 51.1976 58.264 51.0434 58.3912 50.9189C58.5184 50.7944 58.676 50.7321 58.8638 50.7321C59.0456 50.7321 59.2001 50.7944 59.3274 50.9189C59.4546 51.0434 59.5182 51.1976 59.5182 51.3814C59.5182 51.5652 59.4546 51.7194 59.3274 51.8439C59.2001 51.9685 59.0456 52.0307 58.8638 52.0307ZM59.3728 52.68V57.5808H58.3367V52.68H59.3728Z" fill="white"/>
<path d="M61.942 53.5072V56.22C61.942 56.4038 61.9844 56.5372 62.0693 56.6202C62.1602 56.6973 62.3116 56.7358 62.5237 56.7358H63.16V57.5808H62.3419C61.8754 57.5808 61.5179 57.4741 61.2694 57.2606C61.021 57.0471 60.8968 56.7003 60.8968 56.22V53.5072H60.306V52.68H60.8968V51.4615H61.942V52.68H63.16V53.5072H61.942Z" fill="white"/>
<path d="M63.7696 55.1082C63.7696 54.616 63.8726 54.1802 64.0786 53.8007C64.2907 53.4212 64.5754 53.1277 64.9329 52.9202C65.2965 52.7067 65.6964 52.6 66.1327 52.6C66.5266 52.6 66.8689 52.677 67.1598 52.8312C67.4567 52.9795 67.693 53.1662 67.8687 53.3916V52.68H68.9139V57.5808H67.8687V56.8515C67.693 57.0827 67.4536 57.2754 67.1507 57.4296C66.8477 57.5838 66.5023 57.6609 66.1145 57.6609C65.6843 57.6609 65.2905 57.5541 64.9329 57.3407C64.5754 57.1213 64.2907 56.8189 64.0786 56.4334C63.8726 56.0421 63.7696 55.6003 63.7696 55.1082ZM67.8687 55.126C67.8687 54.788 67.796 54.4945 67.6506 54.2454C67.5112 53.9964 67.3264 53.8066 67.0961 53.6762C66.8659 53.5457 66.6174 53.4805 66.3508 53.4805C66.0842 53.4805 65.8358 53.5457 65.6055 53.6762C65.3753 53.8007 65.1874 53.9875 65.042 54.2365C64.9027 54.4796 64.833 54.7702 64.833 55.1082C64.833 55.4462 64.9027 55.7426 65.042 55.9976C65.1874 56.2526 65.3753 56.4483 65.6055 56.5846C65.8419 56.7151 66.0903 56.7803 66.3508 56.7803C66.6174 56.7803 66.8659 56.7151 67.0961 56.5846C67.3264 56.4542 67.5112 56.2644 67.6506 56.0154C67.796 55.7604 67.8687 55.4639 67.8687 55.126Z" fill="white"/>
<path d="M71.311 50.999V57.5808H70.2749V50.999H71.311Z" fill="white"/>
<path d="M78.8407 56.3178H76.1958L75.7414 57.5808H74.6598L76.9229 51.3903H78.1227L80.3858 57.5808H79.2952L78.8407 56.3178ZM78.5499 55.4906L77.5228 52.6177L76.4867 55.4906H78.5499Z" fill="white"/>
<path d="M83.3876 52.6C83.7754 52.6 84.1178 52.677 84.4147 52.8312C84.7177 52.9795 84.954 53.1662 85.1236 53.3916V52.68H86.1689V57.6609C86.1689 58.1115 86.0719 58.5117 85.878 58.8616C85.6841 59.2174 85.4024 59.4961 85.0328 59.6977C84.6692 59.8993 84.2329 60.0001 83.7239 60.0001C83.0453 60.0001 82.4818 59.8429 82.0334 59.5287C81.585 59.2203 81.3305 58.7993 81.2699 58.2657H82.297C82.3757 58.5206 82.5424 58.7252 82.7969 58.8794C83.0574 59.0395 83.3664 59.1195 83.7239 59.1195C84.142 59.1195 84.4783 58.995 84.7328 58.746C84.9934 58.4969 85.1236 58.1352 85.1236 57.6609V56.8426C84.9479 57.0738 84.7086 57.2695 84.4056 57.4296C84.1087 57.5838 83.7694 57.6609 83.3876 57.6609C82.9514 57.6609 82.5514 57.5541 82.1879 57.3407C81.8304 57.1213 81.5456 56.8189 81.3335 56.4334C81.1275 56.0421 81.0245 55.6003 81.0245 55.1082C81.0245 54.616 81.1275 54.1802 81.3335 53.8007C81.5456 53.4212 81.8304 53.1277 82.1879 52.9202C82.5514 52.7067 82.9514 52.6 83.3876 52.6ZM85.1236 55.126C85.1236 54.788 85.0509 54.4945 84.9055 54.2454C84.7661 53.9964 84.5813 53.8066 84.3511 53.6762C84.1208 53.5457 83.8724 53.4805 83.6058 53.4805C83.3392 53.4805 83.0907 53.5457 82.8605 53.6762C82.6302 53.8007 82.4424 53.9875 82.297 54.2365C82.1576 54.4796 82.0879 54.7702 82.0879 55.1082C82.0879 55.4462 82.1576 55.7426 82.297 55.9976C82.4424 56.2526 82.6302 56.4483 82.8605 56.5846C83.0968 56.7151 83.3452 56.7803 83.6058 56.7803C83.8724 56.7803 84.1208 56.7151 84.3511 56.5846C84.5813 56.4542 84.7661 56.2644 84.9055 56.0154C85.0509 55.7604 85.1236 55.4639 85.1236 55.126Z" fill="white"/>
<path d="M92.1198 55.0103C92.1198 55.1941 92.1077 55.3602 92.0834 55.5084H88.2569C88.2872 55.8998 88.4357 56.214 88.7023 56.4512C88.9689 56.6884 89.2961 56.807 89.6839 56.807C90.2414 56.807 90.6352 56.5787 90.8655 56.1221H91.9834C91.8319 56.5728 91.5562 56.9434 91.1563 57.2339C90.7625 57.5185 90.2717 57.6609 89.6839 57.6609C89.2052 57.6609 88.775 57.5571 88.3933 57.3496C88.0176 57.1361 87.7207 56.8396 87.5025 56.4601C87.2905 56.0747 87.1844 55.63 87.1844 55.126C87.1844 54.6219 87.2874 54.1802 87.4935 53.8007C87.7055 53.4153 87.9994 53.1188 88.3751 52.9113C88.7568 52.7037 89.1931 52.6 89.6839 52.6C90.1565 52.6 90.5777 52.7008 90.9473 52.9024C91.3169 53.104 91.6047 53.3886 91.8107 53.7562C92.0168 54.1179 92.1198 54.536 92.1198 55.0103ZM91.0382 54.6901C91.0321 54.3166 90.8958 54.0171 90.6292 53.7918C90.3626 53.5665 90.0323 53.4538 89.6385 53.4538C89.281 53.4538 88.975 53.5665 88.7205 53.7918C88.466 54.0112 88.3145 54.3106 88.266 54.6901H91.0382Z" fill="white"/>
<path d="M95.6662 52.6C96.0601 52.6 96.4115 52.68 96.7205 52.8401C97.0356 53.0002 97.281 53.2374 97.4567 53.5517C97.6324 53.8659 97.7203 54.2454 97.7203 54.6901V57.5808H96.6933V54.8413C96.6933 54.4026 96.5812 54.0675 96.357 53.8363C96.1328 53.5991 95.8268 53.4805 95.439 53.4805C95.0512 53.4805 94.7421 53.5991 94.5119 53.8363C94.2877 54.0675 94.1756 54.4026 94.1756 54.8413V57.5808H93.1394V52.68H94.1756V53.2404C94.3453 53.0387 94.5604 52.8816 94.8209 52.769C95.0875 52.6563 95.3693 52.6 95.6662 52.6Z" fill="white"/>
<path d="M98.6966 55.126C98.6966 54.6219 98.7996 54.1802 99.0056 53.8007C99.2177 53.4153 99.5085 53.1188 99.8782 52.9113C100.248 52.7037 100.672 52.6 101.151 52.6C101.757 52.6 102.256 52.7423 102.65 53.0269C103.05 53.3056 103.32 53.7058 103.459 54.2276H102.341C102.25 53.9845 102.105 53.7948 101.905 53.6584C101.705 53.522 101.454 53.4538 101.151 53.4538C100.726 53.4538 100.387 53.6021 100.133 53.8985C99.8842 54.1891 99.76 54.5982 99.76 55.126C99.76 55.6537 99.8842 56.0658 100.133 56.3623C100.387 56.6588 100.726 56.807 101.151 56.807C101.751 56.807 102.147 56.5491 102.341 56.0332H103.459C103.314 56.5313 103.041 56.9286 102.641 57.225C102.241 57.5156 101.744 57.6609 101.151 57.6609C100.672 57.6609 100.248 57.5571 99.8782 57.3496C99.5085 57.1361 99.2177 56.8396 99.0056 56.4601C98.7996 56.0747 98.6966 55.63 98.6966 55.126Z" fill="white"/>
<path d="M109 52.68L105.928 59.8844H104.855L105.873 57.5008L103.901 52.68H105.055L106.464 56.4156L107.927 52.68H109Z" fill="white"/>
</svg>
