<?xml version="1.0" encoding="utf-8"?>
<!-- Generator: Adobe Illustrator 23.0.5, SVG Export Plug-In . SVG Version: 6.00 Build 0)  -->
<svg version="1.1" id="Calque_1" xmlns="http://www.w3.org/2000/svg" xmlns:xlink="http://www.w3.org/1999/xlink" x="0px" y="0px"
	 viewBox="0 0 1031.3 1236.1" style="enable-background:new 0 0 1031.3 1236.1;" xml:space="preserve">
<style type="text/css">
	.st0{fill:#0D1320;stroke:#323436;}
</style>
<g>
	<path class="st0" d="M794.1,1208.9c-20.7-23.8-40.5-46.4-59.7-69.4c-2-2.4-1.6-8.5-0.1-11.9c10.4-23.3,21.1-46.5,32.4-69.4
		c3.9-7.9,3.9-13.4-2.5-20.5c-49.8-56.6-99.2-113.7-148.4-170.9c-5.6-6.6-10.3-7.1-17.9-4.7c-24.7,7.8-49.7,15.1-74.6,22
		c-3.7,1-9.9,0.9-11.9-1.4c-20.1-22.3-39.6-45.1-60.1-68.6c4.7-1.6,8.1-3,11.5-4C620.9,762.3,779,714.7,937,666.5
		c9.9-3,15.5-1.3,21.9,6.5c15.1,18.6,30.9,36.6,47.1,54.2c6.2,6.7,7,12,3.1,20.4c-56.9,122-113.5,244.2-170.1,366.4
		c-12.8,27.6-25.7,55.3-38.5,82.9C798.6,1200.5,796.6,1204,794.1,1208.9z M906.2,765.3C835,787.7,766.1,809.2,696.5,831
		c38.9,44.8,76.6,88.2,115.2,132.7C843.3,897.5,874.2,832.6,906.2,765.3z"/>
	<path class="st0" d="M547.3,323.5C490,257.4,434.6,193.4,379,129.7c-5.9-6.8-12-13.8-19.4-18.9c-24.5-17-55.7-12.7-76.2,9.5
		c-18.8,20.4-20.1,52.8-1.9,74.9c22.1,26.7,45.5,52.4,67.8,78.8c23.6,27.9,34.5,60.4,33.3,97.1c-0.3,8.3-2.7,12-11.3,14.2
		c-39.5,10.3-78.5,22.3-113.2,44.9c-25,16.2-42.4,38.6-55.5,66.2c-20.1-4.8-38.3-14.2-51.8-29.1C105.6,417,61.6,365.8,17.3,314.7
		c-2-2.3-3.1-7-2.4-9.9c8-27.6,16.6-55.1,25.5-84.1c3.6,3.7,6.1,6.1,8.4,8.8c50.3,57.9,100.6,115.9,151,173.7
		c17,19.5,44.2,25.2,67.7,14.9c22.7-10,37.9-34.2,33.9-59c-1.9-11.6-7.3-23.9-14.6-33c-20.5-25.8-43.2-49.9-64.3-75.2
		c-49.2-58.8-44.8-142.6,9.8-193.3C289.2,4.6,378.2,8.2,430.7,67c47.8,53.6,94.2,108.4,141.1,162.7c2.4,2.8,5.4,7.6,4.6,10.3
		C567.5,267,557.7,294.1,547.3,323.5z"/>
	<path class="st0" d="M621.8,416.7c21.4-26.1,34.2-53.7,35.3-85.7c1.7,0.3,2.8,0.1,3.2,0.5c33.3,39.8,69.4,77.7,99,120.2
		c50.7,72.6,48.1,165.9-2.2,239.4c-2.9,4.2-8.3,8.1-13.3,9.6c-93.9,28.6-187.7,57-281.6,84.9c-5.2,1.5-12.3,0.6-17-2
		c-26.8-14.4-49.5-33.9-69.4-56.9c-30.3-34.9-60.5-69.8-91-104.7c-2.7-3.1-6.2-5.4-11.5-9.9c-3-29.3,8.6-54,40-64.8
		c38.3-13.3,78.2-22.4,117.9-31.8c40.9-9.7,82.5-17.2,120.3-36.6c15.5-8,29.9-18.1,45.5-27.7c-10,19.3-25,33.5-42.1,45.8
		c-27.7,19.8-59.2,30.5-92.1,37.6c-31.8,6.9-63.8,13-95.7,19.7c-6.7,1.4-13.3,3.6-20.2,5.5c0.9,2.4,1.1,3.7,1.9,4.6
		c35.1,40,68.8,81.3,105.8,119.5c45.7,47.1,116.4,51.3,172.7,14.1c26.7-17.6,48.6-39.6,63.5-68c27.4-52.1,22-102.1-12.8-148.5
		C660.7,459.1,641,438.9,621.8,416.7z"/>
	<path class="st0" d="M607.5,262.6c28.9,27.8,34.6,72.2,15.1,111.4c-15.6,31.5-41.3,52.6-73.5,64.5c-34.6,12.8-70.3,23.2-105.9,33.3
		c-43.5,12.4-87.6,22.9-131,35.4c-13.2,3.8-25.8,10.6-37.9,17.7c-30.8,18.1-41.2,44.3-32.3,78.6c0.4,1.5,0.5,3.1,0.8,5.1
		c-25.6-22.6-33.4-65.1-18.9-101.5c12.5-31.4,35.6-53,65.2-68.1c40-20.4,83.4-30.3,126.5-41.3c39.9-10.2,79.9-20,119.2-32
		c17.4-5.4,34.4-14,49.6-24.2c27.2-18.2,33.7-40.7,24.8-72.1C608.7,267.4,608.2,265.5,607.5,262.6z"/>
</g>
</svg>
