<svg width="119" height="66" viewBox="0 0 119 66" fill="none" xmlns="http://www.w3.org/2000/svg">
<path d="M1.95467 56.4502V58.0646H4.57232V59.5652H1.95467V61.316H4.91525V62.8736H0V54.8926H4.91525V56.4502H1.95467Z" fill="#808080"/>
<path d="M14.323 56.4615C15.1155 56.4615 15.7442 56.7003 16.2091 57.1778C16.6815 57.6553 16.9178 58.3185 16.9178 59.1673V62.8736H14.9745V59.4288C14.9745 59.0195 14.864 58.705 14.643 58.4852C14.4297 58.2578 14.1325 58.1441 13.7514 58.1441C13.3704 58.1441 13.0694 58.2578 12.8484 58.4852C12.635 58.705 12.5283 59.0195 12.5283 59.4288V62.8736H10.5851V59.4288C10.5851 59.0195 10.4746 58.705 10.2536 58.4852C10.0402 58.2578 9.74303 58.1441 9.36201 58.1441C8.98098 58.1441 8.67997 58.2578 8.45897 58.4852C8.2456 58.705 8.13891 59.0195 8.13891 59.4288V62.8736H6.18424V56.5298H8.13891V57.3256C8.33704 57.0603 8.59614 56.8519 8.9162 56.7003C9.23627 56.5411 9.59824 56.4615 10.0021 56.4615C10.4822 56.4615 10.909 56.5639 11.2824 56.7685C11.6634 56.9731 11.9606 57.2649 12.174 57.6439C12.395 57.2953 12.696 57.011 13.077 56.7912C13.458 56.5714 13.8734 56.4615 14.323 56.4615Z" fill="#808080"/>
<path d="M21.1882 62.9645C20.5634 62.9645 19.9994 62.8319 19.4965 62.5666C19.0011 62.3013 18.6087 61.9224 18.3191 61.4297C18.0372 60.9371 17.8962 60.3611 17.8962 59.7017C17.8962 59.0499 18.041 58.4776 18.3305 57.985C18.6201 57.4847 19.0164 57.102 19.5193 56.8367C20.0223 56.5714 20.5862 56.4388 21.2111 56.4388C21.836 56.4388 22.3999 56.5714 22.9029 56.8367C23.4058 57.102 23.8021 57.4847 24.0917 57.985C24.3812 58.4776 24.526 59.0499 24.526 59.7017C24.526 60.3535 24.3774 60.9295 24.0802 61.4297C23.7907 61.9224 23.3906 62.3013 22.88 62.5666C22.377 62.8319 21.8131 62.9645 21.1882 62.9645ZM21.1882 61.2819C21.5616 61.2819 21.8779 61.1455 22.137 60.8727C22.4037 60.5998 22.5371 60.2095 22.5371 59.7017C22.5371 59.1939 22.4075 58.8035 22.1484 58.5307C21.897 58.2578 21.5845 58.1214 21.2111 58.1214C20.8301 58.1214 20.5138 58.2578 20.2623 58.5307C20.0109 58.7959 19.8851 59.1863 19.8851 59.7017C19.8851 60.2095 20.0071 60.5998 20.2509 60.8727C20.5024 61.1455 20.8148 61.2819 21.1882 61.2819Z" fill="#808080"/>
<path d="M29.118 61.2251V62.8736H28.1235C27.4148 62.8736 26.8623 62.703 26.4661 62.362C26.0698 62.0133 25.8717 61.4487 25.8717 60.668V58.1441H25.0944V56.5298H25.8717V54.9836H27.8263V56.5298H29.1066V58.1441H27.8263V60.6908C27.8263 60.8802 27.872 61.0167 27.9635 61.1C28.0549 61.1834 28.2073 61.2251 28.4207 61.2251H29.118Z" fill="#808080"/>
<path d="M31.1898 55.8704C30.8469 55.8704 30.565 55.7718 30.344 55.5748C30.1306 55.3701 30.0239 55.12 30.0239 54.8244C30.0239 54.5213 30.1306 54.2712 30.344 54.0741C30.565 53.8695 30.8469 53.7671 31.1898 53.7671C31.5251 53.7671 31.7995 53.8695 32.0129 54.0741C32.2338 54.2712 32.3443 54.5213 32.3443 54.8244C32.3443 55.12 32.2338 55.3701 32.0129 55.5748C31.7995 55.7718 31.5251 55.8704 31.1898 55.8704ZM32.1615 56.5298V62.8736H30.2068V56.5298H32.1615Z" fill="#808080"/>
<path d="M36.4814 62.9645C35.8565 62.9645 35.2926 62.8319 34.7896 62.5666C34.2943 62.3013 33.9019 61.9224 33.6123 61.4297C33.3303 60.9371 33.1893 60.3611 33.1893 59.7017C33.1893 59.0499 33.3341 58.4776 33.6237 57.985C33.9133 57.4847 34.3096 57.102 34.8125 56.8367C35.3155 56.5714 35.8794 56.4388 36.5043 56.4388C37.1292 56.4388 37.6931 56.5714 38.196 56.8367C38.699 57.102 39.0952 57.4847 39.3848 57.985C39.6744 58.4776 39.8192 59.0499 39.8192 59.7017C39.8192 60.3535 39.6706 60.9295 39.3734 61.4297C39.0838 61.9224 38.6837 62.3013 38.1732 62.5666C37.6702 62.8319 37.1063 62.9645 36.4814 62.9645ZM36.4814 61.2819C36.8548 61.2819 37.1711 61.1455 37.4302 60.8727C37.6969 60.5998 37.8302 60.2095 37.8302 59.7017C37.8302 59.1939 37.7007 58.8035 37.4416 58.5307C37.1901 58.2578 36.8777 58.1214 36.5043 58.1214C36.1232 58.1214 35.807 58.2578 35.5555 58.5307C35.304 58.7959 35.1783 59.1863 35.1783 59.7017C35.1783 60.2095 35.3002 60.5998 35.5441 60.8727C35.7956 61.1455 36.108 61.2819 36.4814 61.2819Z" fill="#808080"/>
<path d="M44.7427 56.4615C45.4895 56.4615 46.0839 56.7041 46.5259 57.1892C46.9755 57.6666 47.2003 58.326 47.2003 59.1673V62.8736H45.257V59.4288C45.257 59.0044 45.1465 58.6747 44.9255 58.4397C44.7046 58.2048 44.4074 58.0873 44.0339 58.0873C43.6605 58.0873 43.3633 58.2048 43.1423 58.4397C42.9214 58.6747 42.8109 59.0044 42.8109 59.4288V62.8736H40.8562V56.5298H42.8109V57.3711C43.009 57.0906 43.2757 56.8708 43.611 56.7117C43.9463 56.5449 44.3235 56.4615 44.7427 56.4615Z" fill="#808080"/>
<path d="M48.1699 59.6903C48.1699 59.0385 48.2919 58.4662 48.5357 57.9736C48.7872 57.4809 49.1263 57.102 49.5531 56.8367C49.9798 56.5714 50.4561 56.4388 50.9819 56.4388C51.4315 56.4388 51.824 56.5298 52.1593 56.7117C52.5022 56.8936 52.7651 57.1323 52.948 57.4279V56.5298H54.9027V62.8736H52.948V61.9754C52.7575 62.271 52.4908 62.5098 52.1479 62.6917C51.8125 62.8736 51.4201 62.9645 50.9705 62.9645C50.4523 62.9645 49.9798 62.8319 49.5531 62.5666C49.1263 62.2938 48.7872 61.911 48.5357 61.4184C48.2919 60.9181 48.1699 60.3421 48.1699 59.6903ZM52.948 59.7017C52.948 59.2166 52.8108 58.8338 52.5365 58.5534C52.2698 58.273 51.9421 58.1328 51.5535 58.1328C51.1648 58.1328 50.8333 58.273 50.559 58.5534C50.2923 58.8263 50.1589 59.2052 50.1589 59.6903C50.1589 60.1754 50.2923 60.5619 50.559 60.8499C50.8333 61.1303 51.1648 61.2706 51.5535 61.2706C51.9421 61.2706 52.2698 61.1303 52.5365 60.8499C52.8108 60.5695 52.948 60.1867 52.948 59.7017Z" fill="#808080"/>
<path d="M58.2715 54.4606V62.8736H56.3168V54.4606H58.2715Z" fill="#808080"/>
<path d="M68.7755 54.8926V62.8736H66.8208V58.0873L65.0262 62.8736H63.4487L61.6427 58.0759V62.8736H59.688V54.8926H61.997L64.2489 60.4179L66.4779 54.8926H68.7755Z" fill="#808080"/>
<path d="M69.7925 59.6903C69.7925 59.0385 69.9144 58.4662 70.1582 57.9736C70.4097 57.4809 70.7488 57.102 71.1756 56.8367C71.6023 56.5714 72.0786 56.4388 72.6044 56.4388C73.054 56.4388 73.4465 56.5298 73.7818 56.7117C74.1247 56.8936 74.3876 57.1323 74.5705 57.4279V56.5298H76.5252V62.8736H74.5705V61.9754C74.38 62.271 74.1133 62.5098 73.7704 62.6917C73.4351 62.8736 73.0426 62.9645 72.593 62.9645C72.0748 62.9645 71.6023 62.8319 71.1756 62.5666C70.7488 62.2938 70.4097 61.911 70.1582 61.4184C69.9144 60.9181 69.7925 60.3421 69.7925 59.6903ZM74.5705 59.7017C74.5705 59.2166 74.4334 58.8338 74.159 58.5534C73.8923 58.273 73.5646 58.1328 73.176 58.1328C72.7873 58.1328 72.4558 58.273 72.1815 58.5534C71.9148 58.8263 71.7814 59.2052 71.7814 59.6903C71.7814 60.1754 71.9148 60.5619 72.1815 60.8499C72.4558 61.1303 72.7873 61.2706 73.176 61.2706C73.5646 61.2706 73.8923 61.1303 74.159 60.8499C74.4334 60.5695 74.5705 60.1867 74.5705 59.7017Z" fill="#808080"/>
<path d="M79.894 57.5871C80.1226 57.2384 80.4084 56.9656 80.7513 56.7685C81.0942 56.5639 81.4752 56.4615 81.8944 56.4615V58.5193H81.3571C80.8694 58.5193 80.5036 58.6254 80.2598 58.8376C80.0159 59.0423 79.894 59.4061 79.894 59.929V62.8736H77.9393V56.5298H79.894V57.5871Z" fill="#808080"/>
<path d="M86.7266 62.8736L84.7833 60.2133V62.8736H82.8287V54.4606H84.7833V59.1105L86.7151 56.5298H89.127L86.4751 59.713L89.1499 62.8736H86.7266Z" fill="#808080"/>
<path d="M95.9074 59.5993C95.9074 59.7812 95.8959 59.9707 95.8731 60.1678H91.4494C91.4798 60.5619 91.6056 60.8651 91.8266 61.0773C92.0552 61.2819 92.3333 61.3843 92.661 61.3843C93.1487 61.3843 93.4879 61.1796 93.6784 60.7703H95.7588C95.6521 61.1872 95.4578 61.5624 95.1758 61.8958C94.9015 62.2293 94.5547 62.4908 94.1356 62.6803C93.7165 62.8698 93.2478 62.9645 92.7296 62.9645C92.1047 62.9645 91.5484 62.8319 91.0607 62.5666C90.573 62.3013 90.192 61.9224 89.9176 61.4297C89.6433 60.9371 89.5061 60.3611 89.5061 59.7017C89.5061 59.0423 89.6395 58.4662 89.9062 57.9736C90.1805 57.4809 90.5616 57.102 91.0493 56.8367C91.537 56.5714 92.0971 56.4388 92.7296 56.4388C93.3469 56.4388 93.8956 56.5677 94.3756 56.8254C94.8557 57.083 95.2291 57.4506 95.4959 57.9281C95.7702 58.4056 95.9074 58.9627 95.9074 59.5993ZM93.907 59.0877C93.907 58.7543 93.7927 58.489 93.5641 58.2919C93.3354 58.0949 93.0497 57.9963 92.7067 57.9963C92.3791 57.9963 92.1009 58.0911 91.8723 58.2806C91.6513 58.47 91.5141 58.7391 91.4608 59.0877H93.907Z" fill="#808080"/>
<path d="M100.494 61.2251V62.8736H99.4991C98.7903 62.8736 98.2379 62.703 97.8416 62.362C97.4453 62.0133 97.2472 61.4487 97.2472 60.668V58.1441H96.4699V56.5298H97.2472V54.9836H99.2019V56.5298H100.482V58.1441H99.2019V60.6908C99.2019 60.8802 99.2476 61.0167 99.339 61.1C99.4305 61.1834 99.5829 61.2251 99.7963 61.2251H100.494Z" fill="#808080"/>
<path d="M102.565 55.8704C102.222 55.8704 101.94 55.7718 101.719 55.5748C101.506 55.3701 101.399 55.12 101.399 54.8244C101.399 54.5213 101.506 54.2712 101.719 54.0741C101.94 53.8695 102.222 53.7671 102.565 53.7671C102.901 53.7671 103.175 53.8695 103.388 54.0741C103.609 54.2712 103.72 54.5213 103.72 54.8244C103.72 55.12 103.609 55.3701 103.388 55.5748C103.175 55.7718 102.901 55.8704 102.565 55.8704ZM103.537 56.5298V62.8736H101.582V56.5298H103.537Z" fill="#808080"/>
<path d="M108.84 56.4615C109.587 56.4615 110.181 56.7041 110.623 57.1892C111.073 57.6666 111.298 58.326 111.298 59.1673V62.8736H109.354V59.4288C109.354 59.0044 109.244 58.6747 109.023 58.4397C108.802 58.2048 108.505 58.0873 108.131 58.0873C107.758 58.0873 107.461 58.2048 107.24 58.4397C107.019 58.6747 106.908 59.0044 106.908 59.4288V62.8736H104.954V56.5298H106.908V57.3711C107.106 57.0906 107.373 56.8708 107.708 56.7117C108.044 56.5449 108.421 56.4615 108.84 56.4615Z" fill="#808080"/>
<path d="M115.079 56.4388C115.529 56.4388 115.921 56.5298 116.257 56.7117C116.6 56.8936 116.862 57.1323 117.045 57.4279V56.5298H119V62.8622C119 63.4458 118.882 63.9726 118.646 64.4425C118.417 64.92 118.063 65.2989 117.583 65.5793C117.11 65.8598 116.52 66 115.811 66C114.866 66 114.1 65.7764 113.513 65.3292C112.926 64.8896 112.591 64.2909 112.507 63.533H114.439C114.5 63.7755 114.645 63.965 114.873 64.1014C115.102 64.2454 115.384 64.3174 115.719 64.3174C116.123 64.3174 116.443 64.1999 116.68 63.965C116.923 63.7376 117.045 63.37 117.045 62.8622V61.9641C116.855 62.2596 116.592 62.5022 116.257 62.6917C115.921 62.8736 115.529 62.9645 115.079 62.9645C114.553 62.9645 114.077 62.8319 113.65 62.5666C113.224 62.2938 112.885 61.911 112.633 61.4184C112.389 60.9181 112.267 60.3421 112.267 59.6903C112.267 59.0385 112.389 58.4662 112.633 57.9736C112.885 57.4809 113.224 57.102 113.65 56.8367C114.077 56.5714 114.553 56.4388 115.079 56.4388ZM117.045 59.7017C117.045 59.2166 116.908 58.8338 116.634 58.5534C116.367 58.273 116.039 58.1328 115.651 58.1328C115.262 58.1328 114.931 58.273 114.656 58.5534C114.39 58.8263 114.256 59.2052 114.256 59.6903C114.256 60.1754 114.39 60.5619 114.656 60.8499C114.931 61.1303 115.262 61.2706 115.651 61.2706C116.039 61.2706 116.367 61.1303 116.634 60.8499C116.908 60.5695 117.045 60.1867 117.045 59.7017Z" fill="#808080"/>
<path d="M75.8629 19.0634C73.5866 21.0588 72.6465 22.1751 70.2805 24.0617C63.4624 29.4874 56.805 35.1679 49.0636 39.297C41.6434 43.2545 33.8567 45.0608 25.6018 41.9961C17.2258 38.8843 12.1125 31.3682 11.744 22.9386C11.3853 14.7422 14.4627 8.39236 21.2305 3.76348C29.2124 -1.69454 44.3208 -1.47697 51.265 9.16367C50.7723 9.69389 50.252 10.2966 49.6883 10.8543C44.3415 16.1258 38.9903 21.393 33.6349 26.656C32.7707 27.5067 31.9518 28.4074 31.0394 29.2042C29.3504 30.6743 27.3381 30.6341 25.8354 29.163C24.6529 28.0046 24.5336 25.623 25.792 24.1862C26.9834 22.8249 28.3708 21.6292 29.6952 20.3855C33.3974 16.9102 37.1115 13.4485 41.0807 9.73898C40.1594 9.11075 39.5799 8.47664 38.8744 8.26887C30.6619 5.86671 23.0279 9.07253 19.9318 16.5926C16.402 25.1673 23.0614 35.6364 32.3657 36.1245C37.1686 36.3754 41.5301 34.9699 45.657 32.9059C50.7654 30.3518 55.314 26.9343 59.5966 23.1287C64.2074 19.031 66.5596 17.2787 71.3103 13.3358" fill="#808080"/>
<path d="M50.2815 39.8389L58.8546 34.7377V43.032H50.2815V39.8389Z" fill="#808080"/>
<path d="M85.9525 17.7393V43.2721H77.3794V17.7393C77.3794 15.2959 76.4035 12.9527 74.6664 11.225C72.9293 9.49724 70.5732 8.52662 68.1165 8.52662C65.6599 8.52662 63.3038 9.49724 61.5667 11.225C59.8295 12.9527 58.8536 15.2959 58.8536 17.7393V22.0457L50.2805 28.4652V17.7393C50.2805 7.95818 58.2821 0 68.1165 0C72.8469 0 77.3836 1.86896 80.7285 5.19572C84.0734 8.52248 85.9525 13.0345 85.9525 17.7393Z" fill="#808080"/>
<path d="M109.725 17.7393V43.2721H101.152V17.7393C101.151 16.1311 100.727 14.551 99.9219 13.1563C99.1168 11.7616 97.9586 10.6008 96.5626 9.78928C95.1665 8.97779 93.5812 8.54392 91.9643 8.53079C90.3473 8.51767 88.7551 8.92575 87.3459 9.71447L82.6948 2.54525C85.4002 0.926137 88.4893 0.0503534 91.6465 0.00737453C94.8037 -0.0356043 97.9158 0.75576 100.665 2.30062C103.414 3.84548 105.701 6.08845 107.293 8.80038C108.885 11.5123 109.725 14.596 109.727 17.7364L109.725 17.7393Z" fill="#808080"/>
</svg>
