<svg width="1274" height="170" viewBox="0 0 1274 170" fill="none" xmlns="http://www.w3.org/2000/svg">
<circle cx="10" cy="10" r="10" fill="#F4F4F4"/>
<circle cx="60" cy="10" r="10" fill="#F4F4F4"/>
<circle cx="110" cy="10" r="10" fill="#F4F4F4"/>
<circle cx="160" cy="10" r="10" fill="#F4F4F4"/>
<ellipse cx="210.5" cy="10" rx="10.5" ry="10" fill="#F4F4F4"/>
<circle cx="261" cy="10" r="10" fill="#F4F4F4"/>
<circle cx="311" cy="10" r="10" fill="#F4F4F4"/>
<circle cx="361" cy="10" r="10" fill="#F4F4F4"/>
<circle cx="411" cy="10" r="10" fill="#F4F4F4"/>
<circle cx="461" cy="10" r="10" fill="#F4F4F4"/>
<circle cx="511" cy="10" r="10" fill="#F4F4F4"/>
<circle cx="561" cy="10" r="10" fill="#F4F4F4"/>
<circle cx="611" cy="10" r="10" fill="#F4F4F4"/>
<circle cx="663" cy="10" r="10" fill="#F4F4F4"/>
<circle cx="713" cy="10" r="10" fill="#F4F4F4"/>
<circle cx="763" cy="10" r="10" fill="#F4F4F4"/>
<circle cx="813" cy="10" r="10" fill="#F4F4F4"/>
<circle cx="863" cy="10" r="10" fill="#F4F4F4"/>
<circle cx="913" cy="10" r="10" fill="#F4F4F4"/>
<circle cx="963" cy="10" r="10" fill="#F4F4F4"/>
<circle cx="1013" cy="10" r="10" fill="#F4F4F4"/>
<ellipse cx="1063.5" cy="10" rx="10.5" ry="10" fill="#F4F4F4"/>
<circle cx="1114" cy="10" r="10" fill="#F4F4F4"/>
<circle cx="1164" cy="10" r="10" fill="#F4F4F4"/>
<circle cx="1214" cy="10" r="10" fill="#F4F4F4"/>
<circle cx="1264" cy="10" r="10" fill="#F4F4F4"/>
<circle cx="10" cy="60" r="10" fill="#F4F4F4"/>
<circle cx="60" cy="60" r="10" fill="#F4F4F4"/>
<circle cx="110" cy="60" r="10" fill="#F4F4F4"/>
<circle cx="160" cy="60" r="10" fill="#F4F4F4"/>
<ellipse cx="210.5" cy="60" rx="10.5" ry="10" fill="#F4F4F4"/>
<circle cx="261" cy="60" r="10" fill="#F4F4F4"/>
<circle cx="311" cy="60" r="10" fill="#F4F4F4"/>
<circle cx="361" cy="60" r="10" fill="#F4F4F4"/>
<circle cx="411" cy="60" r="10" fill="#F4F4F4"/>
<circle cx="461" cy="60" r="10" fill="#F4F4F4"/>
<circle cx="511" cy="60" r="10" fill="#F4F4F4"/>
<circle cx="561" cy="60" r="10" fill="#F4F4F4"/>
<circle cx="611" cy="60" r="10" fill="#F4F4F4"/>
<circle cx="663" cy="60" r="10" fill="#F4F4F4"/>
<circle cx="713" cy="60" r="10" fill="#F4F4F4"/>
<circle cx="763" cy="60" r="10" fill="#F4F4F4"/>
<circle cx="813" cy="60" r="10" fill="#F4F4F4"/>
<circle cx="863" cy="60" r="10" fill="#F4F4F4"/>
<circle cx="913" cy="60" r="10" fill="#F4F4F4"/>
<circle cx="963" cy="60" r="10" fill="#F4F4F4"/>
<circle cx="1013" cy="60" r="10" fill="#F4F4F4"/>
<ellipse cx="1063.5" cy="60" rx="10.5" ry="10" fill="#F4F4F4"/>
<circle cx="1114" cy="60" r="10" fill="#F4F4F4"/>
<circle cx="1164" cy="60" r="10" fill="#F4F4F4"/>
<circle cx="1214" cy="60" r="10" fill="#F4F4F4"/>
<circle cx="1264" cy="60" r="10" fill="#F4F4F4"/>
<circle cx="10" cy="110" r="10" fill="#F4F4F4"/>
<circle cx="60" cy="110" r="10" fill="#F4F4F4"/>
<circle cx="110" cy="110" r="10" fill="#F4F4F4"/>
<circle cx="160" cy="110" r="10" fill="#F4F4F4"/>
<ellipse cx="210.5" cy="110" rx="10.5" ry="10" fill="#F4F4F4"/>
<circle cx="261" cy="110" r="10" fill="#F4F4F4"/>
<circle cx="311" cy="110" r="10" fill="#F4F4F4"/>
<circle cx="361" cy="110" r="10" fill="#F4F4F4"/>
<circle cx="411" cy="110" r="10" fill="#F4F4F4"/>
<circle cx="461" cy="110" r="10" fill="#F4F4F4"/>
<circle cx="511" cy="110" r="10" fill="#F4F4F4"/>
<circle cx="561" cy="110" r="10" fill="#F4F4F4"/>
<circle cx="611" cy="110" r="10" fill="#F4F4F4"/>
<circle cx="663" cy="110" r="10" fill="#F4F4F4"/>
<circle cx="713" cy="110" r="10" fill="#F4F4F4"/>
<circle cx="763" cy="110" r="10" fill="#F4F4F4"/>
<circle cx="813" cy="110" r="10" fill="#F4F4F4"/>
<circle cx="863" cy="110" r="10" fill="#F4F4F4"/>
<circle cx="913" cy="110" r="10" fill="#F4F4F4"/>
<circle cx="963" cy="110" r="10" fill="#F4F4F4"/>
<circle cx="1013" cy="110" r="10" fill="#F4F4F4"/>
<ellipse cx="1063.5" cy="110" rx="10.5" ry="10" fill="#F4F4F4"/>
<circle cx="1114" cy="110" r="10" fill="#F4F4F4"/>
<circle cx="1164" cy="110" r="10" fill="#F4F4F4"/>
<circle cx="1214" cy="110" r="10" fill="#F4F4F4"/>
<circle cx="1264" cy="110" r="10" fill="#F4F4F4"/>
<circle cx="10" cy="160" r="10" fill="#F4F4F4"/>
<circle cx="60" cy="160" r="10" fill="#F4F4F4"/>
<circle cx="110" cy="160" r="10" fill="#F4F4F4"/>
<circle cx="160" cy="160" r="10" fill="#F4F4F4"/>
<ellipse cx="210.5" cy="160" rx="10.5" ry="10" fill="#F4F4F4"/>
<circle cx="261" cy="160" r="10" fill="#F4F4F4"/>
<circle cx="311" cy="160" r="10" fill="#F4F4F4"/>
<circle cx="361" cy="160" r="10" fill="#F4F4F4"/>
<circle cx="411" cy="160" r="10" fill="#F4F4F4"/>
<circle cx="461" cy="160" r="10" fill="#F4F4F4"/>
<circle cx="511" cy="160" r="10" fill="#F4F4F4"/>
<circle cx="561" cy="160" r="10" fill="#F4F4F4"/>
<circle cx="611" cy="160" r="10" fill="#F4F4F4"/>
<circle cx="663" cy="160" r="10" fill="#F4F4F4"/>
<circle cx="713" cy="160" r="10" fill="#F4F4F4"/>
<circle cx="763" cy="160" r="10" fill="#F4F4F4"/>
<circle cx="813" cy="160" r="10" fill="#F4F4F4"/>
<circle cx="863" cy="160" r="10" fill="#F4F4F4"/>
<circle cx="913" cy="160" r="10" fill="#F4F4F4"/>
<circle cx="963" cy="160" r="10" fill="#F4F4F4"/>
<circle cx="1013" cy="160" r="10" fill="#F4F4F4"/>
<ellipse cx="1063.5" cy="160" rx="10.5" ry="10" fill="#F4F4F4"/>
<circle cx="1114" cy="160" r="10" fill="#F4F4F4"/>
<circle cx="1164" cy="160" r="10" fill="#F4F4F4"/>
<circle cx="1214" cy="160" r="10" fill="#F4F4F4"/>
<circle cx="1264" cy="160" r="10" fill="#F4F4F4"/>
</svg>
