<svg width="66" height="75" viewBox="0 0 66 75" fill="none" xmlns="http://www.w3.org/2000/svg">
<path d="M18.725 69.316C15.7384 75.4281 11.0043 74.4418 7.24399 70.4048C9.57049 70.3509 11.4696 69.6448 12.53 67.5482C13.347 65.9312 13.5796 64.1957 13.5255 62.3632C10.3929 61.932 7.52534 61.0265 5.00406 59.1778C1.11935 56.3319 -0.844642 50.9852 0.345659 46.3553C1.5035 41.8494 6.56228 39.2138 10.658 41.1056C11.7293 41.6015 12.5787 42.5555 13.6013 43.3478C13.6013 41.9249 13.6392 40.4535 13.5634 38.9874C13.5526 38.7503 13.0602 38.4646 12.7356 38.3299C9.16471 36.8261 6.3188 34.4977 4.30611 31.1614C0.313197 24.5319 3.90033 15.062 11.9944 12.906C13.7365 12.4425 13.742 12.4209 13.5201 10.6261C13.4227 9.84459 13.3362 9.05767 13.1414 8.29771C12.5949 6.14177 11.0746 4.92367 8.81303 4.6973C8.31526 4.64879 7.83373 4.46014 7.22776 4.30923C10.8474 0.0458691 14.7808 0.541734 18.3138 5.5435C19.1524 4.84821 19.9748 4.13136 20.8242 3.45764C28.4205 -2.54664 42.3579 -0.9243 47.065 9.84459C47.8224 11.5801 48.7043 12.5395 50.717 12.7982C53.5413 13.1647 56.0139 14.5014 58.0752 16.5657C60.7372 19.2337 61.5434 23.939 59.7795 27.0705C58.4486 29.4313 55.6784 30.5739 53.0706 29.8463C52.7027 29.7439 52.3293 29.6361 51.9668 29.5283C51.9127 29.663 51.8586 29.7331 51.864 29.7978C51.9506 31.5063 52.7838 32.2232 54.5476 32.6436C60.7751 34.1366 65.6878 39.5426 65.9745 45.2235C66.3749 53.1358 62.0573 60.3797 52.9948 62.444C51.6909 62.7404 50.3383 62.886 49.0019 62.9506C48.1958 62.9938 47.817 63.274 47.5357 64.0017C46.2913 67.1817 44.4896 69.9952 41.6491 71.9894C35.887 76.0318 26.3808 76.4468 20.0235 70.4856C19.6231 70.1191 19.2173 69.7634 18.725 69.316ZM43.1911 35.2199L43.1965 35.2253C43.348 34.7349 43.5265 34.2552 43.651 33.7593C43.9972 32.4064 43.3426 31.474 41.9629 31.4363C41.4706 31.4255 40.9782 31.6465 40.4804 31.7058C40.2153 31.7381 39.8691 31.7273 39.6743 31.5818C39.539 31.4794 39.539 31.1075 39.5877 30.8757C39.6364 30.6278 39.815 30.4068 39.934 30.1751C34.069 27.3454 32.5487 24.5157 31.3746 20.0314C31.2502 20.5165 31.1636 20.8506 31.0825 21.1848C30.3358 24.1869 29.2213 27.0274 26.5864 28.8869C22.3879 31.8567 17.7673 32.1531 13.0224 30.4661C9.92217 29.3612 8.00687 26.6124 7.97982 23.6641C7.95276 20.5219 9.54885 18.2689 12.7681 16.8891C13.0656 16.7598 13.3362 16.5873 13.8502 16.3124C11.8375 16.2908 9.50015 17.8485 8.4397 19.7834C6.45948 23.4 7.37385 26.58 10.025 29.5229C9.51639 29.248 9.08896 28.9246 8.73728 28.5419C5.8481 25.4266 6.03205 18.4899 12.0972 16.0106C13.8339 15.2991 13.8502 15.2506 13.4931 13.2833C13.2009 13.2833 12.8871 13.2348 12.5895 13.2887C6.41078 14.4529 1.89305 21.5513 3.46208 27.6095C4.95537 33.3551 10.4362 37.7693 16.7556 38.5131C20.2832 38.9281 23.6215 40.0438 26.5431 42.1351C28.9453 43.8545 30.5901 46.1505 31.5424 49.2281C33.0086 45.7355 35.0321 43.046 38.0079 41.0895C40.9674 39.1437 44.3327 38.7018 47.7467 38.3622C45.5933 37.9202 43.5157 38.2652 41.4976 38.9012C37.1422 40.281 34.0041 43.1322 31.8075 47.3363C31.867 46.0266 32.4351 44.9648 33.6524 43.5365C37.4127 39.1383 42.3254 37.419 48.3797 37.5106C47.9523 36.5351 47.8224 35.4625 47.2597 35.1283C46.6051 34.7402 45.5609 34.9666 44.6898 34.9882C44.1974 35.0097 43.6943 35.1445 43.1911 35.2199ZM31.6452 67.4997C33.1871 64.5945 36.1358 63.3872 39.3875 62.9021C42.6284 62.417 45.9071 62.2176 49.175 61.932C54.3312 61.4846 58.8057 59.6736 61.9113 55.3618C66.0936 49.5461 67.1378 40.0708 58.5081 34.8912C56.6902 33.8024 54.7478 33.0317 52.654 32.7244C52.681 34.8912 54.3474 36.5997 53.7685 38.8257C54.0931 39.0737 54.4827 39.3432 54.8344 39.6504C55.1752 39.9468 55.4836 40.2864 55.8083 40.6044C55.7704 40.6367 55.7271 40.6691 55.6892 40.7014C54.9859 40.2648 54.2771 39.8229 53.5737 39.3863C53.5034 39.4941 53.4331 39.5965 53.3627 39.7043C53.4709 39.7959 53.5683 39.9091 53.6928 39.9738C59.8012 43.1915 59.417 51.8638 54.0228 55.6205C50.8739 57.8087 47.3842 57.6093 43.862 56.8763C41.2163 56.3265 38.9114 55.0923 36.9907 53.0819C36.125 56.7901 34.7075 58.3423 32.17 58.504C30.5631 58.6064 28.9453 58.3855 27.9174 57.1404C26.9597 55.987 26.4024 54.5102 25.672 53.1897C23.8703 55.0599 23.194 57.5285 23.3185 60.2935C23.3617 61.2528 23.5782 61.8673 24.7252 62.0613C25.7856 62.2446 26.792 62.7836 27.8037 63.2094C28.0634 63.3225 28.2474 63.6136 28.545 63.8939C26.8677 63.3279 25.3798 62.8267 23.892 62.32C23.8487 62.444 23.8054 62.5734 23.7567 62.6973C25.1959 63.2471 26.7487 63.6136 28.0418 64.3951C29.3403 65.1928 30.3899 66.3947 31.6452 67.4997ZM54.9047 26.0464C54.8885 25.8632 54.8452 25.7123 54.8668 25.5721C55.159 23.4539 53.5467 22.0795 51.5015 22.7263C50.5223 23.0335 49.8351 23.6749 49.6674 24.699C49.4402 26.0572 49.9217 27.1999 50.993 28.0515C53.3519 29.9325 57.1555 29.1941 58.7461 26.5154C60.1637 24.1223 60.0988 21.5998 59.0221 19.1313C57.6262 15.9297 54.8723 14.2696 51.6422 13.5528C47.8657 12.712 44.0135 12.2431 40.1991 11.5747C36.6552 10.9549 33.4955 9.67212 31.5748 6.36276C31.5315 6.2873 31.3909 6.26035 31.2556 6.19028C29.8543 8.75584 27.6847 10.2919 24.9308 11.025C24.1841 11.2244 23.7675 11.5963 23.6756 12.3724C23.5619 13.348 23.2968 14.3182 23.3022 15.2883C23.3076 15.8219 23.7297 16.3555 23.9569 16.8945C23.9839 16.9592 23.9677 17.0454 23.9731 17.1263C23.7784 17.137 23.5944 17.1532 23.1562 17.1802C24.2274 18.0264 25.1039 18.7163 26.094 19.4978C26.6405 16.2747 28.5558 14.5499 31.7047 14.6038C34.7508 14.6523 36.5903 16.3555 37.0069 19.6325C39.9989 16.7328 43.4454 15.7141 47.3463 16.2208C50.203 16.5927 52.957 17.2826 55.1103 19.3684C57.1014 21.298 57.004 24.4726 54.9047 26.0464ZM27.0787 50.6079C27.1437 51.1792 27.2194 51.5188 27.2086 51.853C27.1924 52.2842 27.0733 52.71 27.0571 53.1411C26.9705 56.0139 28.691 57.9219 31.3963 57.965C34.2368 58.0136 36.2224 56.1217 36.2549 53.3028C36.2657 52.5159 36.1899 51.729 36.1521 50.9475C37.5263 53.1304 39.236 54.7904 42.0873 55.6851C41.8385 53.3298 41.7681 51.2062 41.3569 49.1527C40.9457 47.083 40.1991 45.0779 39.6148 43.0891C42.5148 43.6982 44.1054 42.5555 43.3967 40.0762C36.7743 41.7794 33.2899 46.3446 31.5099 52.7692C31.3043 45.8649 27.3114 42.286 21.0353 40.3457C21.1597 41.7093 21.1705 42.8951 21.3923 44.0431C21.8793 46.5063 22.4095 48.964 23.0588 51.3841C23.2644 52.144 23.9244 52.78 24.5034 53.664C25.4502 52.5483 26.1698 51.6913 27.0787 50.6079ZM36.9474 21.6483C36.8338 21.6106 36.7148 21.5783 36.6011 21.5405C36.5687 20.9746 36.5308 20.4087 36.5092 19.8427C36.428 17.7138 35.4271 16.3124 33.5713 15.7411C30.3034 14.7386 27.1112 17.0508 27.0679 20.4572C27.0625 20.8884 27.0679 21.3195 27.0679 21.7507C26.9543 21.7723 26.8461 21.7992 26.7325 21.8208C26.0616 20.4248 25.2879 19.1367 23.3888 18.4522C24.0435 19.6379 24.5412 20.5434 25.0011 21.3788C22.3392 23.8474 22.0578 27.1406 21.4951 30.7949C22.9235 30.1966 24.0922 29.8463 25.1256 29.2534C28.5937 27.2645 30.0328 23.9552 30.7957 20.247C30.9418 19.5463 31.1203 18.8564 31.2881 18.1611C31.4828 18.0803 31.6776 18.0048 31.8724 17.924C32.5433 23.3407 34.6804 27.6418 40.0963 29.4582C41.476 27.2268 42.4877 20.0637 41.7032 17.9401C39.6581 18.5977 38.2297 20.0206 36.9474 21.6483ZM13.4498 61.0373C10.988 60.4336 8.47217 60.0132 6.33504 58.4932C8.66153 59.1346 10.9826 59.7814 13.439 60.4552C13.5147 59.8245 13.6013 59.4419 13.5959 59.0592C13.5526 56.4128 14.072 56.9518 11.5128 56.6014C6.6759 55.9546 3.5757 50.8828 5.3341 46.3553C5.55593 45.784 6.09157 45.3313 6.47571 44.8246C6.70295 45.4498 6.63261 45.8756 6.63261 46.2961C6.63261 48.4143 8.73728 49.9072 10.7608 49.2335C13.1739 48.425 14.0179 45.8056 12.6058 43.5095C11.1017 41.0625 7.9203 40.2756 5.05276 41.6662C1.73074 43.2777 0.513383 46.0104 0.621593 49.5892C0.843421 56.9787 7.13579 61.0588 13.4498 61.0373ZM49.781 56.5421C53.8335 56.3319 57.3935 52.3273 57.6532 48.0477C57.8155 45.3474 56.2141 41.235 52.8812 40.7122C51.8532 45.9403 50.8306 51.1792 49.781 56.5421ZM13.558 18.0425C11.2531 18.2204 9.09437 21.0986 8.9537 23.7611C8.80762 26.5423 10.961 29.69 13.558 29.8894C13.558 25.9386 13.558 21.9933 13.558 18.0425ZM6.14026 47.5627C4.83634 52.3381 8.87795 57.011 13.4606 56.057C13.5039 55.3025 13.5796 54.5263 13.5905 53.7502C13.6121 52.1925 13.5959 50.6349 13.5959 48.9964C10.1386 51.1954 8.3856 50.8559 6.14026 47.5627ZM55.5486 24.3109C56.1924 23.1898 56.1978 21.8046 55.4566 20.6728C54.1148 18.63 51.9398 18.1288 49.6566 17.5251C50.0191 19.2606 50.3383 20.786 50.6575 22.3005C53.5954 21.8478 54.3799 22.1819 55.5486 24.3109ZM23.9731 63.7591C25.4664 67.4188 28.1067 69.2136 30.9851 68.6261C29.9463 65.2252 26.9435 64.7185 23.9731 63.7591ZM39.9502 10.998C38.7329 8.1414 35.519 6.20106 32.4784 6.42743C34.0149 9.47269 36.8662 10.2758 39.9502 10.998ZM39.5769 64.0987C36.4496 64.2981 33.1763 66.4271 32.7002 68.6208C35.7084 68.1464 38.0295 66.7882 39.5769 64.0987ZM30.5685 6.36815C27.7442 6.27652 25.1201 8.12523 24.3519 10.7124C26.9759 10.0656 29.0535 8.75045 30.5685 6.36815ZM20.4942 69.9359C20.4996 69.9952 20.4996 70.0544 20.505 70.1137C27.6522 70.1137 34.7995 70.1137 41.9467 70.1137C41.9467 70.0544 41.9467 69.9952 41.9467 69.9359C34.794 69.9359 27.6468 69.9359 20.4942 69.9359ZM21.0677 3.92116C21.0839 3.97506 21.0948 4.02896 21.111 4.08286C27.9606 4.08286 34.8049 4.08286 41.6545 4.08286C41.6545 4.02896 41.6545 3.97506 41.6545 3.92116C34.7886 3.92116 27.9282 3.92116 21.0677 3.92116ZM40.8646 3.36062C40.8646 3.30672 40.8646 3.25282 40.8646 3.19892C34.6209 3.19892 28.3827 3.19892 22.139 3.19892C22.139 3.25282 22.139 3.30672 22.139 3.36062C28.3772 3.36062 34.6209 3.36062 40.8646 3.36062ZM24.0976 72.2589C24.1084 72.3128 24.1192 72.3667 24.13 72.4206C28.9778 72.4206 33.8202 72.4206 38.6679 72.4206C38.6679 72.3667 38.6679 72.3128 38.6625 72.2589C33.8093 72.2589 28.9562 72.2589 24.0976 72.2589ZM23.5187 2.39584C23.5187 2.46052 23.5241 2.52519 23.5241 2.58987C28.8534 2.58987 34.1881 2.58987 39.5174 2.58987C39.5174 2.52519 39.5174 2.46052 39.5174 2.39584C34.1827 2.39584 28.8534 2.39584 23.5187 2.39584ZM20.3481 4.76198C20.3481 4.81048 20.3481 4.85899 20.3481 4.9075C27.7442 4.9075 35.1349 4.9075 42.531 4.9075C42.531 4.85899 42.531 4.81048 42.531 4.76198C35.1403 4.76198 27.7442 4.76198 20.3481 4.76198ZM13.8015 7.88808C13.8015 7.9312 13.8015 7.97432 13.8069 8.01744C17.3616 8.01744 20.9162 8.01744 24.4709 8.01744C24.4709 7.97432 24.4709 7.9312 24.4655 7.88808C20.9054 7.88808 17.3561 7.88808 13.8015 7.88808ZM23.892 8.82591C23.892 8.77201 23.892 8.72351 23.892 8.66961C20.5916 8.66961 17.2966 8.66961 13.9962 8.66961C13.9962 8.72351 13.9962 8.77201 14.0017 8.82591C17.2966 8.82591 20.597 8.82591 23.892 8.82591ZM21.7603 70.7713C21.7603 70.8036 21.7603 70.8414 21.7603 70.8737C28.1121 70.8737 34.4694 70.8737 40.8213 70.8737C40.8213 70.8414 40.8213 70.8036 40.8213 70.7713C34.4694 70.7713 28.1121 70.7713 21.7603 70.7713ZM43.3588 5.6513C43.3534 5.5974 43.3534 5.5435 43.348 5.4896C40.1288 5.4896 36.9149 5.4896 33.6957 5.4896C33.6957 5.5435 33.6903 5.5974 33.6903 5.6513C36.9149 5.6513 40.1396 5.6513 43.3588 5.6513ZM23.5836 65.3922C23.5836 65.3437 23.5836 65.2952 23.5836 65.2521C20.4672 65.2521 17.3561 65.2521 14.2397 65.2521C14.2397 65.3006 14.2397 65.3491 14.2397 65.3922C17.3561 65.3922 20.4726 65.3922 23.5836 65.3922ZM25.7856 73.0242C25.7856 73.0781 25.7802 73.132 25.7802 73.1859C29.3511 73.1859 32.922 73.1859 36.4983 73.1859C36.4983 73.132 36.4983 73.0781 36.4983 73.0242C32.922 73.0242 29.3511 73.0242 25.7856 73.0242ZM14.2614 20.4572C14.2614 20.5165 14.2614 20.5704 14.2614 20.6297C17.3237 20.6297 20.386 20.6297 23.4483 20.6297C23.4483 20.5704 23.4483 20.5165 23.4483 20.4572C20.386 20.4572 17.3237 20.4572 14.2614 20.4572ZM41.3191 45.5469C41.3191 45.6008 41.3191 45.6547 41.3191 45.7086C44.3814 45.7086 47.4491 45.7086 50.5114 45.7086C50.5114 45.6547 50.5114 45.6008 50.506 45.5469C47.4437 45.5469 44.3814 45.5469 41.3191 45.5469ZM14.2505 10.2327C14.2559 10.2866 14.2559 10.3405 14.2614 10.3944C17.2101 10.3944 20.1533 10.3944 23.102 10.3944C23.102 10.3405 23.0966 10.2866 23.0966 10.2327C20.1479 10.2327 17.1992 10.2327 14.2505 10.2327ZM41.5571 28.2724C41.5571 28.3263 41.5517 28.3856 41.5517 28.4395C44.4571 28.4395 47.3625 28.4395 50.268 28.4395C50.268 28.3856 50.268 28.3263 50.268 28.2724C47.3625 28.2724 44.4625 28.2724 41.5571 28.2724ZM19.2931 5.50038C19.2931 5.54889 19.2985 5.5974 19.2985 5.64591C22.2797 5.64591 25.2608 5.64591 28.242 5.64591C28.242 5.5974 28.2366 5.54889 28.2366 5.50038C25.2554 5.50038 22.2742 5.50038 19.2931 5.50038ZM40.9728 44.7977C40.9728 44.8516 40.9728 44.9109 40.9728 44.9648C44.192 44.9648 47.4112 44.9648 50.6305 44.9648C50.6305 44.9109 50.6305 44.8516 50.6305 44.7977C47.4058 44.7977 44.192 44.7977 40.9728 44.7977ZM22.8802 55.1947C22.8802 55.1354 22.8802 55.0815 22.8802 55.0222C20.0181 55.0222 17.156 55.0222 14.2884 55.0222C14.2884 55.0815 14.2884 55.1354 14.2884 55.1947C17.156 55.1947 20.0181 55.1947 22.8802 55.1947ZM14.2451 21.2118C14.2451 21.2549 14.2451 21.298 14.2451 21.3411C17.2101 21.3411 20.1696 21.3411 23.1345 21.3411C23.1345 21.298 23.1345 21.2549 23.1345 21.2118C20.1696 21.2118 17.2046 21.2118 14.2451 21.2118ZM14.2505 10.9711C14.2505 11.0304 14.2451 11.0843 14.2451 11.1435C17.0694 11.1435 19.8882 11.1435 22.7125 11.1435C22.7125 11.0843 22.7125 11.0304 22.7125 10.9711C19.8882 10.9711 17.0694 10.9711 14.2505 10.9711ZM22.7287 71.5313C22.7287 71.5636 22.7287 71.6013 22.7287 71.6337C28.4476 71.6337 34.1664 71.6337 39.8907 71.6337C39.8907 71.6013 39.8907 71.5636 39.8907 71.5313C34.1718 71.5313 28.453 71.5313 22.7287 71.5313ZM14.3155 62.8536C14.3209 62.8967 14.3263 62.9399 14.3317 62.983C17.1073 62.983 19.8774 62.983 22.653 62.983C22.653 62.9399 22.6476 62.8967 22.6476 62.8536C19.8666 62.8536 17.091 62.8536 14.3155 62.8536ZM22.6854 52.8285C22.6854 52.7692 22.6909 52.7153 22.6909 52.6561C19.8991 52.6561 17.1073 52.6561 14.3101 52.6561C14.3101 52.7153 14.3101 52.7692 14.3101 52.8285C17.1018 52.8285 19.8936 52.8285 22.6854 52.8285ZM22.4744 18.2851C22.4744 18.2312 22.4744 18.1827 22.4744 18.1288C19.7367 18.1288 16.9991 18.1288 14.2614 18.1288C14.2614 18.1827 14.2668 18.2312 14.2668 18.2851C16.9991 18.2851 19.7367 18.2851 22.4744 18.2851ZM50.9821 30.8003C50.9767 30.741 50.9713 30.6871 50.9659 30.6278C48.212 30.6278 45.4581 30.6278 42.6987 30.6278C42.6987 30.6871 42.6987 30.741 42.6987 30.8003C45.4635 30.8003 48.2228 30.8003 50.9821 30.8003ZM22.4636 55.9277C22.4582 55.8738 22.4582 55.8199 22.4528 55.7606C19.7313 55.7606 17.0099 55.7606 14.2884 55.7606C14.2884 55.8145 14.2884 55.8684 14.2884 55.9277C17.0153 55.9277 19.7422 55.9277 22.4636 55.9277ZM41.8709 47.913C41.8655 47.9723 41.8655 48.0316 41.8601 48.0909C44.5924 48.0909 47.3247 48.0909 50.0515 48.0909C50.0515 48.0316 50.0515 47.9723 50.0515 47.913C47.3301 47.913 44.6032 47.913 41.8709 47.913ZM22.2147 23.0174C22.2147 22.9635 22.2201 22.9096 22.2201 22.8557C19.569 22.8557 16.9125 22.8557 14.2614 22.8557C14.2614 22.9096 14.2668 22.9635 14.2668 23.0174C16.9125 23.0174 19.5636 23.0174 22.2147 23.0174ZM22.2364 13.5528C22.2364 13.5043 22.231 13.4558 22.231 13.4073C19.5798 13.4073 16.9287 13.4073 14.2776 13.4073C14.2776 13.4558 14.283 13.5043 14.283 13.5528C16.9341 13.5528 19.5852 13.5528 22.2364 13.5528ZM14.2451 15.698C14.2451 15.7519 14.2451 15.8057 14.2505 15.8596C16.9017 15.8596 19.5528 15.8596 22.2039 15.8596C22.2039 15.8057 22.1985 15.7519 22.1985 15.698C19.5474 15.698 16.8963 15.698 14.2451 15.698ZM14.2884 60.4767C14.2884 60.536 14.283 60.5899 14.283 60.6492C16.9233 60.6492 19.5636 60.6492 22.2039 60.6492C22.2039 60.5899 22.2039 60.536 22.2039 60.4767C19.5636 60.4767 16.9233 60.4767 14.2884 60.4767ZM41.595 27.5125C41.6004 27.5718 41.6058 27.6257 41.6112 27.6849C44.2678 27.6849 46.9189 27.6849 49.5754 27.6849C49.5754 27.6257 49.5754 27.5718 49.57 27.5125C46.9135 27.5125 44.2569 27.5125 41.595 27.5125ZM22.166 58.2938C22.166 58.2453 22.166 58.1914 22.166 58.1429C19.5474 58.1429 16.9341 58.1429 14.3155 58.1429C14.3155 58.1914 14.3155 58.2453 14.3155 58.2938C16.9287 58.2938 19.5474 58.2938 22.166 58.2938ZM14.3425 12.588C14.3425 12.6365 14.3425 12.685 14.3425 12.7335C17.0153 12.7335 19.688 12.7335 22.3662 12.7335C22.3662 12.685 22.3662 12.6365 22.3662 12.588C19.688 12.588 17.0153 12.588 14.3425 12.588ZM14.3209 59.7437C14.3209 59.7922 14.3209 59.8353 14.3209 59.8838C16.9341 59.8838 19.5474 59.8838 22.1552 59.8838C22.1552 59.8353 22.1552 59.7922 22.1552 59.7437C19.542 59.7437 16.9287 59.7437 14.3209 59.7437ZM25.3149 1.57658C25.3149 1.63048 25.3149 1.68438 25.3149 1.74367C29.4539 1.74367 33.5929 1.74367 37.7319 1.74367C37.7319 1.68977 37.7319 1.63587 37.7319 1.57658C33.5983 1.57658 29.4539 1.57658 25.3149 1.57658ZM14.3046 14.9703C14.2992 15.0296 14.2992 15.0889 14.2938 15.1482C16.9125 15.1482 19.5311 15.1482 22.1498 15.1482C22.1498 15.0889 22.1498 15.0296 22.1498 14.9703C19.5311 14.9703 16.9179 14.9703 14.3046 14.9703ZM14.3155 57.3829C14.3155 57.4368 14.3155 57.4854 14.3155 57.5392C16.9341 57.5392 19.5582 57.5392 22.1769 57.5392C22.1769 57.4854 22.1769 57.4368 22.1769 57.3829C19.5582 57.3829 16.9395 57.3829 14.3155 57.3829ZM43.2993 43.1861C43.2939 43.2454 43.2885 43.2993 43.2831 43.3586C45.853 43.3586 48.423 43.3586 50.993 43.3586C50.993 43.2993 50.993 43.2454 50.993 43.1861C48.4284 43.1861 45.8638 43.1861 43.2993 43.1861ZM44.0243 6.44899C44.0243 6.40049 44.0243 6.35198 44.0243 6.30347C41.4651 6.30347 38.9114 6.30347 36.3523 6.30347C36.3523 6.35198 36.3523 6.40049 36.3523 6.44899C38.9114 6.44899 41.4706 6.44899 44.0243 6.44899ZM49.7594 50.4678C49.7594 50.4247 49.7594 50.3762 49.754 50.333C47.2706 50.333 44.7872 50.333 42.3038 50.333C42.3038 50.3762 42.3038 50.4247 42.3092 50.4678C44.7872 50.4678 47.2706 50.4678 49.7594 50.4678ZM14.2776 23.5563C14.2776 23.6102 14.2776 23.6641 14.2776 23.7234C16.7718 23.7234 19.2606 23.7234 21.7548 23.7234C21.7548 23.6695 21.7548 23.6156 21.7548 23.5563C19.2606 23.5563 16.7718 23.5563 14.2776 23.5563ZM14.283 50.2737C14.283 50.333 14.283 50.3923 14.283 50.4516C16.6961 50.4516 19.1091 50.4516 21.5222 50.4516C21.5222 50.3923 21.5222 50.333 21.5222 50.2737C19.1091 50.2737 16.6961 50.2737 14.283 50.2737ZM51.2148 42.6525C51.2148 42.6094 51.2094 42.5609 51.2094 42.5178C48.7909 42.5178 46.3724 42.5178 43.954 42.5178C43.954 42.5609 43.9594 42.6094 43.9594 42.6525C46.3778 42.6525 48.7963 42.6525 51.2148 42.6525ZM26.2401 6.47594C26.2401 6.42205 26.2401 6.37354 26.2455 6.31964C23.7675 6.31964 21.295 6.31964 18.817 6.31964C18.817 6.37354 18.8224 6.42205 18.8224 6.47594C21.295 6.47594 23.7675 6.47594 26.2401 6.47594ZM35.0375 1.05916C35.0429 0.99448 35.0483 0.935192 35.0592 0.870514C32.4892 0.870514 29.9192 0.870514 27.3493 0.870514C27.3493 0.935192 27.3493 0.99448 27.3493 1.05916C29.9084 1.05916 32.473 1.05916 35.0375 1.05916ZM42.5094 22.8071C42.5094 22.8664 42.5094 22.9257 42.5148 22.985C44.8737 22.985 47.2273 22.985 49.5862 22.985C49.5862 22.9257 49.5862 22.8664 49.5808 22.8071C47.2273 22.8071 44.8683 22.8071 42.5094 22.8071ZM51.4853 33.1826C51.4853 33.1287 51.4853 33.0694 51.4853 33.0155C49.1426 33.0155 46.7944 33.0155 44.4517 33.0155C44.4517 33.0694 44.4517 33.1287 44.4517 33.1826C46.7944 33.1826 49.1426 33.1826 51.4853 33.1826ZM49.2833 23.7396C49.2887 23.6857 49.2995 23.6318 49.3049 23.5779C46.9946 23.5779 44.6844 23.5779 42.3741 23.5779C42.3741 23.6318 42.3741 23.6857 42.3741 23.7396C44.6735 23.7396 46.9784 23.7396 49.2833 23.7396ZM44.3543 40.8362C44.3543 40.8954 44.3543 40.9493 44.3543 41.0086C46.7782 41.0086 49.2021 41.0086 51.626 41.0086C51.626 40.9493 51.626 40.8954 51.626 40.8362C49.2021 40.8362 46.7782 40.8362 44.3543 40.8362ZM37.153 67.5859C37.153 67.629 37.1476 67.6721 37.1476 67.7153C39.4525 67.7153 41.7573 67.7153 44.0568 67.7153C44.0568 67.6721 44.0513 67.629 44.0513 67.5859C41.7519 67.5859 39.4524 67.5859 37.153 67.5859ZM14.283 25.1625C14.2884 25.2218 14.2992 25.2757 14.3046 25.335C16.6257 25.335 18.9414 25.335 21.2625 25.335C21.2625 25.2757 21.2625 25.2218 21.2571 25.1625C18.9306 25.1625 16.6095 25.1625 14.283 25.1625ZM49.2941 52.8231C49.2887 52.7746 49.2778 52.7261 49.2724 52.6722C47.0379 52.6722 44.8034 52.6722 42.5743 52.6722C42.5743 52.7207 42.5797 52.7692 42.5797 52.8231C44.8142 52.8231 47.0541 52.8231 49.2941 52.8231ZM48.845 26.1219C48.8396 26.0626 48.8396 26.0087 48.8342 25.9494C46.5726 25.9494 44.311 25.9494 42.0495 25.9494C42.0495 26.0087 42.0495 26.0626 42.0549 26.1219C44.3165 26.1219 46.5834 26.1219 48.845 26.1219ZM20.9974 26.1219C21.0028 26.068 21.0082 26.0087 21.0136 25.9494C18.7629 25.9494 16.5121 25.9494 14.2614 25.9494C14.2614 26.0087 14.2614 26.0626 14.2614 26.1219C16.5121 26.1219 18.7575 26.1219 20.9974 26.1219ZM42.1306 25.1571C42.136 25.2056 42.1414 25.2541 42.1469 25.308C44.376 25.308 46.6105 25.308 48.8396 25.308C48.8396 25.2595 48.8342 25.211 48.8342 25.1571C46.5997 25.1571 44.3651 25.1571 42.1306 25.1571ZM20.8134 48.1232C20.808 48.0747 20.808 48.0208 20.8026 47.9723C18.6222 47.9723 16.4418 47.9723 14.2614 47.9723C14.2614 48.0208 14.2668 48.0747 14.2668 48.1232C16.4526 48.1232 18.633 48.1232 20.8134 48.1232ZM18.8224 67.6075C18.8224 67.6614 18.8224 67.7099 18.8224 67.7638C21.0515 67.7638 23.2806 67.7638 25.5097 67.7638C25.5097 67.7099 25.5097 67.6614 25.5097 67.6075C23.2806 67.6075 21.0515 67.6075 18.8224 67.6075ZM42.5635 21.2225C42.5635 21.2657 42.5635 21.3142 42.5635 21.3573C44.7926 21.3573 47.0271 21.3573 49.2562 21.3573C49.2562 21.3142 49.2562 21.2657 49.2562 21.2225C47.0271 21.2225 44.798 21.2225 42.5635 21.2225ZM49.1209 20.6297C49.1209 20.5704 49.1209 20.5111 49.1209 20.4572C46.9459 20.4572 44.7709 20.4572 42.5905 20.4572C42.5905 20.5165 42.5905 20.5758 42.5905 20.6297C44.7709 20.6297 46.9459 20.6297 49.1209 20.6297ZM45.0523 8.07672C45.0523 8.01744 45.0523 7.95815 45.0577 7.89886C42.9097 7.89886 40.7564 7.89886 38.6084 7.89886C38.6084 7.95815 38.6084 8.01744 38.6084 8.07672C40.7564 8.07672 42.9043 8.07672 45.0523 8.07672ZM15.7601 3.34984C15.7601 3.30672 15.7546 3.25821 15.7546 3.21509C13.6175 3.21509 11.475 3.21509 9.33784 3.21509C9.33784 3.25821 9.34325 3.30672 9.34325 3.34984C11.4804 3.34984 13.6229 3.34984 15.7601 3.34984ZM14.2776 28.2778C14.283 28.3317 14.2884 28.3856 14.2938 28.4395C16.3823 28.4395 18.4707 28.4395 20.5591 28.4395C20.5591 28.3856 20.5537 28.3317 20.5537 28.2778C18.4599 28.2778 16.3714 28.2778 14.2776 28.2778ZM14.2938 27.5448C14.2938 27.6041 14.2938 27.658 14.2938 27.7173C16.4418 27.7173 18.5951 27.7173 20.7431 27.7173C20.7431 27.658 20.7431 27.6041 20.7431 27.5448C18.5951 27.5448 16.4418 27.5448 14.2938 27.5448ZM42.5905 55.0222C42.5905 55.0707 42.5905 55.1246 42.5959 55.1731C44.6735 55.1731 46.7566 55.1731 48.8342 55.1731C48.8342 55.1246 48.8342 55.0707 48.8342 55.0222C46.7457 55.0222 44.6681 55.0222 42.5905 55.0222ZM9.419 3.93194C9.419 3.96967 9.419 4.01279 9.41359 4.05052C11.7725 4.05052 14.1315 4.05052 16.4851 4.05052C16.4851 4.01279 16.4851 3.96967 16.4905 3.93194C14.1315 3.93194 11.7725 3.93194 9.419 3.93194ZM45.5068 8.81513C45.5013 8.76123 45.4959 8.70734 45.4959 8.65344C43.4832 8.65344 41.4706 8.65344 39.4633 8.65344C39.4633 8.70734 39.4633 8.76123 39.4633 8.81513C41.4706 8.81513 43.4887 8.81513 45.5068 8.81513ZM48.5907 55.9277C48.5853 55.8684 48.5853 55.8145 48.5799 55.7552C46.5834 55.7552 44.5816 55.7552 42.5851 55.7552C42.5851 55.8145 42.5851 55.8684 42.5851 55.9277C44.587 55.9277 46.5888 55.9277 48.5907 55.9277ZM42.5743 18.0641C42.5797 18.118 42.5797 18.1719 42.5851 18.2258C44.6086 18.2258 46.6267 18.2258 48.6502 18.2258C48.6502 18.1719 48.6448 18.118 48.6448 18.0641C46.6213 18.0641 44.5978 18.0641 42.5743 18.0641ZM14.2938 40.0438C14.2938 40.1085 14.2884 40.1732 14.2884 40.2325C16.2037 40.2325 18.119 40.2325 20.0397 40.2325C20.0397 40.1678 20.0343 40.1031 20.0343 40.0438C18.1244 40.0438 16.2091 40.0438 14.2938 40.0438ZM14.467 45.5576C14.467 45.6061 14.467 45.6493 14.4724 45.6978C16.4147 45.6978 18.3571 45.6978 20.2994 45.6978C20.2994 45.6493 20.2994 45.6061 20.294 45.5576C18.3517 45.5576 16.4093 45.5576 14.467 45.5576ZM30.5036 69.3807C30.5144 69.3376 30.5252 69.2945 30.5414 69.2568C26.9381 69.2568 23.3347 69.2568 19.7313 69.2568C19.7313 69.2999 19.7313 69.343 19.7313 69.3807C23.3185 69.3807 26.911 69.3807 30.5036 69.3807ZM14.3101 43.1592C14.3101 43.2185 14.3046 43.2724 14.3046 43.3316C16.2308 43.3316 18.1569 43.3316 20.083 43.3316C20.083 43.2724 20.0776 43.2185 20.0776 43.1592C18.1515 43.1592 16.2308 43.1592 14.3101 43.1592ZM20.294 44.9755C20.294 44.9324 20.2886 44.8947 20.2886 44.8516C18.2813 44.8516 16.274 44.8516 14.2668 44.8516C14.2668 44.8947 14.2668 44.9324 14.2722 44.9755C16.2795 44.9755 18.2867 44.9755 20.294 44.9755ZM50.8198 30.0403C50.8198 30.008 50.8198 29.9756 50.8144 29.9433C47.5032 29.9433 44.1866 29.9433 40.8754 29.9433C40.8754 29.9756 40.8808 30.008 40.8808 30.0403C44.192 30.0403 47.5086 30.0403 50.8198 30.0403ZM14.2992 42.4261C14.2992 42.4854 14.2938 42.5393 14.2938 42.5986C16.2254 42.5986 18.1623 42.5986 20.0938 42.5986C20.0938 42.5393 20.0884 42.4854 20.0884 42.4261C18.1569 42.4261 16.2308 42.4261 14.2992 42.4261ZM14.283 40.8308C14.2776 40.8847 14.2722 40.9332 14.2668 40.9871C16.1821 40.9871 18.0974 40.9871 20.0127 40.9871C20.0127 40.9332 20.0073 40.8847 20.0073 40.8308C18.0974 40.8308 16.1929 40.8308 14.283 40.8308ZM39.7446 65.182C39.7392 65.2359 39.7338 65.2952 39.7284 65.3491C41.6437 65.3491 43.5644 65.3491 45.4797 65.3491C45.4797 65.2952 45.4743 65.2359 45.4743 65.182C43.5644 65.182 41.6545 65.182 39.7446 65.182ZM40.4372 10.2596C40.4372 10.3081 40.4372 10.3566 40.4426 10.4105C42.3795 10.4105 44.311 10.4105 46.248 10.4105C46.248 10.362 46.248 10.3135 46.2426 10.2596C44.3056 10.2596 42.3741 10.2596 40.4372 10.2596ZM46.6484 11.1759C46.6429 11.1166 46.6321 11.0573 46.6267 10.998C44.7114 10.998 42.7961 10.998 40.8808 10.998C40.8808 11.0573 40.8808 11.1166 40.8862 11.1759C42.8015 11.1759 44.7222 11.1759 46.6484 11.1759ZM16.7448 70.1299C16.7448 70.0868 16.7448 70.0437 16.7502 69.9952C14.9106 69.9952 13.0765 69.9952 11.2369 69.9952C11.2423 70.0383 11.2423 70.0814 11.2477 70.1299C13.0765 70.1299 14.9106 70.1299 16.7448 70.1299ZM32.5487 69.1759C32.5379 69.2298 32.5271 69.2891 32.5162 69.343C35.9248 69.343 39.3334 69.343 42.742 69.343C42.742 69.2891 42.742 69.2298 42.742 69.1759C39.3388 69.1759 35.9465 69.1759 32.5487 69.1759ZM17.4481 5.7052C17.4481 5.64591 17.4481 5.58662 17.4481 5.52733C15.7601 5.52733 14.0774 5.52733 12.3893 5.52733C12.3893 5.58662 12.3893 5.64591 12.3893 5.7052C14.072 5.7052 15.7601 5.7052 17.4481 5.7052ZM42.4336 51.0499C42.4282 51.1038 42.4174 51.1577 42.412 51.2116C44.7817 51.2116 47.1515 51.2116 49.5267 51.2116C49.5267 51.1577 49.5267 51.1038 49.5267 51.0499C47.1569 51.0499 44.7926 51.0499 42.4336 51.0499ZM40.778 44.0215C40.7997 44.0539 40.8213 44.0916 40.8429 44.1239C44.165 44.1239 47.4816 44.1239 50.8036 44.1239C50.8036 44.0916 50.8036 44.0539 50.8036 44.0215C47.4653 44.0215 44.1217 44.0215 40.778 44.0215ZM14.2018 66.0444C14.191 66.0768 14.1802 66.1091 14.1748 66.1414C17.4211 66.1414 20.6727 66.1414 23.919 66.1414C23.919 66.1091 23.919 66.0768 23.919 66.0444C20.6836 66.0444 17.4427 66.0444 14.2018 66.0444ZM41.2325 29.0971C41.2325 29.1348 41.2325 29.1779 41.2325 29.2157C44.3597 29.2157 47.4924 29.2157 50.6196 29.2157C50.6196 29.1779 50.6196 29.1348 50.6196 29.0971C47.4924 29.0971 44.3597 29.0971 41.2325 29.0971ZM15.5004 30.6332C15.4841 30.6763 15.4679 30.7194 15.4517 30.7625C17.0532 30.7625 18.6492 30.7625 20.2507 30.7625C20.2561 30.7194 20.2561 30.6763 20.2616 30.6332C18.6709 30.6332 17.0856 30.6332 15.5004 30.6332ZM13.0819 6.28191C13.0819 6.33581 13.0819 6.3951 13.0765 6.44899C14.6022 6.44899 16.1334 6.44899 17.6591 6.44899C17.6591 6.3951 17.6591 6.33581 17.6591 6.28191C16.1334 6.28191 14.6076 6.28191 13.0819 6.28191ZM14.4074 53.443C14.4183 53.4753 14.4345 53.513 14.4453 53.5454C17.4589 53.5454 20.4672 53.5454 23.4808 53.5454C23.4808 53.513 23.4808 53.4753 23.4754 53.443C20.4563 53.443 17.4319 53.443 14.4074 53.443ZM23.0479 64.5999C23.0479 64.5568 23.0479 64.5137 23.0479 64.4706C20.175 64.4706 17.3074 64.4706 14.4345 64.4706C14.4345 64.5137 14.4345 64.5568 14.4345 64.5999C17.3074 64.5999 20.1804 64.5999 23.0479 64.5999ZM23.2103 54.3431C23.2048 54.3107 23.2048 54.2784 23.1994 54.2461C20.2616 54.2461 17.3237 54.2461 14.3804 54.2461C14.3804 54.2784 14.3804 54.3107 14.3804 54.3431C17.3237 54.3431 20.267 54.3431 23.2103 54.3431ZM22.9397 19.832C22.9343 19.7834 22.9343 19.7349 22.9289 19.6864C20.0722 19.6864 17.2209 19.6864 14.3642 19.6864C14.3642 19.7349 14.3642 19.7834 14.3642 19.832C17.2263 19.832 20.083 19.832 22.9397 19.832ZM51.5719 33.9533C51.5719 33.8994 51.5719 33.8455 51.5665 33.7916C49.9325 33.7916 48.2985 33.7916 46.6592 33.7916C46.6592 33.8455 46.6592 33.8994 46.6592 33.9533C48.304 33.9533 49.9379 33.9533 51.5719 33.9533ZM23.2157 9.58049C23.2157 9.54276 23.2211 9.51042 23.2211 9.47269C20.267 9.47269 17.3074 9.47269 14.3533 9.47269C14.3533 9.51042 14.3533 9.54276 14.3533 9.58049C17.3074 9.58049 20.2616 9.58049 23.2157 9.58049ZM17.6916 67.7907C17.6862 67.7368 17.6862 67.6829 17.6808 67.6236C16.2362 67.6236 14.797 67.6236 13.3524 67.6236C13.3524 67.6775 13.3578 67.7314 13.3578 67.7907C14.8078 67.7907 16.2524 67.7907 17.6916 67.7907ZM41.6978 46.3553C41.6978 46.3877 41.6978 46.42 41.6978 46.4577C44.5924 46.4577 47.4924 46.4577 50.387 46.4577C50.387 46.4254 50.387 46.3931 50.387 46.3553C47.4924 46.3553 44.5978 46.3553 41.6978 46.3553ZM47.5735 40.087C47.5735 40.1355 47.579 40.1894 47.579 40.2379C49.0181 40.2379 50.4519 40.2379 51.8911 40.2379C51.8857 40.1894 51.8857 40.1355 51.8803 40.087C50.4411 40.087 49.0073 40.087 47.5735 40.087ZM14.7645 2.60604C14.7645 2.55753 14.7591 2.50902 14.7591 2.46052C13.4065 2.46052 12.0539 2.46052 10.7013 2.46052C10.7013 2.50902 10.7067 2.55753 10.7067 2.60604C12.0593 2.60604 13.4119 2.60604 14.7645 2.60604ZM41.7303 47.1746C41.7303 47.2177 41.7303 47.2554 41.7303 47.2986C44.5329 47.2986 47.3355 47.2986 50.1435 47.2986C50.1435 47.2554 50.1435 47.2177 50.1435 47.1746C47.3409 47.1746 44.5329 47.1746 41.7303 47.1746ZM22.7936 63.7753C22.7936 63.743 22.7936 63.7106 22.7936 63.6783C20.0073 63.6783 17.2263 63.6783 14.4399 63.6783C14.4399 63.7106 14.4399 63.743 14.4399 63.7753C17.2209 63.7753 20.0073 63.7753 22.7936 63.7753ZM22.1985 17.4712C22.2039 17.4281 22.2093 17.3796 22.2147 17.3365C19.569 17.3365 16.9287 17.3365 14.283 17.3365C14.283 17.3796 14.283 17.4281 14.283 17.4712C16.9233 17.4712 19.5582 17.4712 22.1985 17.4712ZM22.561 19.0235C22.561 18.9858 22.561 18.948 22.561 18.9103C19.8612 18.9103 17.1614 18.9103 14.4615 18.9103C14.4615 18.948 14.4615 18.9858 14.4615 19.0235C17.1614 19.0235 19.8612 19.0235 22.561 19.0235ZM14.4345 62.1044C14.4399 62.1422 14.4507 62.1853 14.4561 62.223C17.1073 62.223 19.7638 62.223 22.4149 62.223C22.4149 62.1853 22.4149 62.1422 22.4149 62.1044C19.753 62.1044 17.0964 62.1044 14.4345 62.1044ZM48.7584 37.7316C48.753 37.7909 48.7476 37.8502 48.7368 37.9095C50.0407 37.9095 51.3446 37.9095 52.6486 37.9095C52.6486 37.8502 52.6486 37.7909 52.6486 37.7316C51.3555 37.7316 50.0569 37.7316 48.7584 37.7316ZM14.3696 22.0472C14.3696 22.0795 14.3696 22.1119 14.3696 22.1442C17.1073 22.1442 19.8395 22.1442 22.5772 22.1442C22.5772 22.1119 22.5772 22.0795 22.5772 22.0472C19.8449 22.0472 17.1073 22.0472 14.3696 22.0472ZM19.1686 68.362C19.1741 68.3944 19.1795 68.4267 19.1849 68.4591C21.6845 68.4591 24.1895 68.4591 26.6892 68.4591C26.6892 68.4267 26.6838 68.3944 26.6838 68.362C24.1841 68.362 21.6791 68.362 19.1686 68.362ZM14.3912 11.8281C14.3912 11.8658 14.3912 11.9035 14.3912 11.9412C17.0423 11.9412 19.688 11.9412 22.3392 11.9412C22.3392 11.9035 22.3392 11.8658 22.3392 11.8281C19.688 11.8281 17.0369 11.8281 14.3912 11.8281ZM22.3338 56.7038C22.3338 56.6769 22.3338 56.6445 22.3338 56.6176C19.6935 56.6176 17.0477 56.6176 14.4074 56.6176C14.4074 56.6445 14.4074 56.6769 14.4074 56.7038C17.0532 56.7038 19.6935 56.7038 22.3338 56.7038ZM48.5528 38.4592C48.5474 38.5131 48.542 38.5724 48.542 38.6263C49.8243 38.6263 51.1066 38.6263 52.3889 38.6263C52.3889 38.5724 52.3834 38.5131 52.3834 38.4592C51.1066 38.4592 49.8297 38.4592 48.5528 38.4592ZM22.02 52.0147C22.0362 51.9769 22.0578 51.9446 22.0741 51.9069C19.5366 51.9069 16.9991 51.9069 14.4615 51.9069C14.4615 51.9446 14.4615 51.9769 14.4615 52.0147C16.9828 52.0147 19.4987 52.0147 22.02 52.0147ZM43.3859 68.513C43.3913 68.4698 43.3967 68.4321 43.3967 68.389C40.8538 68.389 38.3163 68.389 35.7733 68.389C35.7733 68.4321 35.7733 68.4698 35.7733 68.513C38.3108 68.513 40.8484 68.513 43.3859 68.513ZM22.0741 16.6681C22.0632 16.625 22.0524 16.5873 22.0416 16.5442C19.5041 16.5442 16.9612 16.5442 14.4237 16.5442C14.4237 16.5873 14.4237 16.625 14.4237 16.6681C16.9774 16.6681 19.5257 16.6681 22.0741 16.6681ZM22.0254 14.2912C22.02 14.2535 22.0145 14.2157 22.0145 14.178C19.4662 14.178 16.9179 14.178 14.3696 14.178C14.3696 14.2157 14.3696 14.2535 14.3696 14.2912C16.9179 14.2912 19.4716 14.2912 22.0254 14.2912ZM14.3966 58.9568C14.3966 58.9891 14.3966 59.0161 14.3966 59.0484C16.9449 59.0484 19.4879 59.0484 22.0362 59.0484C22.0362 59.0161 22.0362 58.9891 22.0362 58.9568C19.4933 58.9568 16.9449 58.9568 14.3966 58.9568ZM42.2172 48.743C42.228 48.7808 42.2442 48.8185 42.2551 48.8562C44.7872 48.8562 47.3247 48.8562 49.8568 48.8562C49.8568 48.8185 49.8568 48.7808 49.8568 48.743C47.3139 48.743 44.7655 48.743 42.2172 48.743ZM21.9713 61.4361C22.0091 61.4038 22.047 61.3714 22.0795 61.3391C19.5257 61.3391 16.972 61.3391 14.4237 61.3391C14.4237 61.3714 14.4237 61.4038 14.4237 61.4361C16.9395 61.4361 19.4554 61.4361 21.9713 61.4361ZM14.402 51.093C14.4183 51.1415 14.4291 51.19 14.4453 51.2385C16.8421 51.2385 19.2444 51.2385 21.6412 51.2385C21.6412 51.19 21.6412 51.1415 21.6412 51.093C19.2336 51.093 16.8151 51.093 14.402 51.093ZM48.45 35.3762C48.45 35.4248 48.4555 35.4679 48.4555 35.5164C49.6944 35.5164 50.9389 35.5164 52.1778 35.5164C52.1778 35.4679 52.1724 35.4248 52.1724 35.3762C50.9334 35.3762 49.689 35.3762 48.45 35.3762ZM20.3644 30.0673C20.3589 30.0134 20.3535 29.9648 20.3535 29.911C18.3408 29.911 16.3227 29.911 14.3101 29.911C14.3101 29.9648 14.3101 30.0134 14.3101 30.0673C16.3282 30.0673 18.3463 30.0673 20.3644 30.0673ZM49.6241 49.6485C49.6241 49.6108 49.6295 49.5731 49.6295 49.5353C47.1569 49.5353 44.6898 49.5353 42.2172 49.5353C42.2172 49.5731 42.2172 49.6108 42.2172 49.6485C44.6844 49.6485 47.1515 49.6485 49.6241 49.6485ZM51.3609 32.4064C51.3555 32.3579 51.3501 32.3148 51.3446 32.2663C49.0452 32.2663 46.7403 32.2663 44.4409 32.2663C44.4409 32.3148 44.4409 32.3579 44.4409 32.4064C46.7512 32.4064 49.056 32.4064 51.3609 32.4064ZM16.1117 70.8845C16.1117 70.8521 16.1117 70.8198 16.1117 70.7875C13.7203 70.7875 11.3235 70.7875 8.93206 70.7875C8.93206 70.8198 8.93206 70.8521 8.93206 70.8845C11.3235 70.8845 13.7149 70.8845 16.1117 70.8845ZM48.6015 17.5251C48.6015 17.4766 48.5961 17.4335 48.5961 17.385C46.7728 17.385 44.9441 17.385 43.1207 17.385C43.1207 17.4335 43.1262 17.4766 43.1262 17.5251C44.9495 17.5251 46.7782 17.5251 48.6015 17.5251ZM51.0362 31.5872C51.0417 31.5495 51.0417 31.5063 51.0471 31.4686C48.7368 31.4686 46.4265 31.4686 44.1109 31.4686C44.1109 31.5063 44.1109 31.5495 44.1109 31.5872C46.4211 31.5872 48.726 31.5872 51.0362 31.5872ZM41.9845 26.7525C41.9954 26.7848 42.0008 26.8226 42.0116 26.8549C44.3219 26.8549 46.6321 26.8549 48.9478 26.8549C48.9478 26.8226 48.9478 26.7848 48.9478 26.7525C46.6267 26.7525 44.3056 26.7525 41.9845 26.7525ZM48.6286 19.0289C48.661 18.9804 48.6935 18.9265 48.7314 18.878C46.7782 18.878 44.8196 18.878 42.8665 18.878C42.8665 18.9265 42.8665 18.9804 42.8665 19.0289C44.7818 19.0289 46.7025 19.0289 48.6286 19.0289ZM14.3804 24.3971C14.3804 24.4349 14.3804 24.4726 14.3804 24.5157C16.7177 24.5157 19.055 24.5157 21.3869 24.5157C21.3869 24.478 21.3869 24.4403 21.3869 24.3971C19.055 24.3971 16.7177 24.3971 14.3804 24.3971ZM51.2959 41.7794C51.2959 41.7416 51.2959 41.6985 51.3014 41.6608C48.9803 41.6608 46.6646 41.6608 44.3435 41.6608C44.3435 41.6985 44.3435 41.7416 44.3435 41.7794C46.6592 41.7794 48.9749 41.7794 51.2959 41.7794ZM21.0894 49.6431C21.0948 49.6054 21.0948 49.5623 21.1002 49.5246C18.8602 49.5246 16.6203 49.5246 14.3858 49.5246C14.3858 49.5623 14.3858 49.6054 14.3858 49.6431C16.6149 49.6431 18.8548 49.6431 21.0894 49.6431ZM37.6562 7.11194C37.6562 7.14967 37.6562 7.1874 37.6562 7.23052C39.9232 7.23052 42.1956 7.23052 44.4625 7.23052C44.4625 7.19279 44.4625 7.15506 44.4625 7.11194C42.1956 7.11194 39.9232 7.11194 37.6562 7.11194ZM49.359 22.1388C49.3644 22.1065 49.3752 22.0687 49.3806 22.0364C47.1407 22.0364 44.9008 22.0364 42.6609 22.0364C42.6609 22.0687 42.6609 22.1065 42.6609 22.1388C44.89 22.1388 47.1245 22.1388 49.359 22.1388ZM42.6609 51.8853C42.6609 51.9176 42.6609 51.9446 42.6609 51.9769C44.825 51.9769 46.9892 51.9769 49.148 51.9769C49.148 51.9446 49.148 51.9176 49.148 51.8853C46.9838 51.8853 44.825 51.8853 42.6609 51.8853ZM20.8838 26.8549C20.8838 26.828 20.8838 26.801 20.8838 26.7687C18.7358 26.7687 16.5824 26.7687 14.4345 26.7687C14.4345 26.7956 14.4345 26.8226 14.4345 26.8549C16.5824 26.8549 18.7304 26.8549 20.8838 26.8549ZM48.8288 24.5373C48.8612 24.4942 48.8937 24.4564 48.9262 24.4133C46.762 24.4133 44.6032 24.4133 42.439 24.4133C42.439 24.4564 42.439 24.4942 42.439 24.5373C44.5707 24.5373 46.6971 24.5373 48.8288 24.5373ZM14.5156 48.7376C14.4832 48.7754 14.4507 48.8077 14.4183 48.8454C16.5716 48.8454 18.7196 48.8454 20.8729 48.8454C20.8729 48.8077 20.8729 48.7754 20.8729 48.7376C18.752 48.7376 16.6311 48.7376 14.5156 48.7376ZM42.6717 19.6649C42.6717 19.7188 42.6717 19.7673 42.6717 19.8212C44.7547 19.8212 46.8377 19.8212 48.9207 19.8212C48.9207 19.7673 48.9208 19.7188 48.9153 19.6649C46.8377 19.6649 44.7547 19.6649 42.6717 19.6649ZM42.7312 53.4591C42.7312 53.5023 42.7312 53.5454 42.7312 53.5831C44.798 53.5831 46.8702 53.5831 48.937 53.5831C48.937 53.54 48.937 53.4969 48.937 53.4591C46.8702 53.4591 44.8034 53.4591 42.7312 53.4591ZM45.6528 64.6161C45.6474 64.573 45.642 64.5299 45.6366 64.4867C43.8079 64.4867 41.9845 64.4867 40.1558 64.4867C40.1558 64.5299 40.1558 64.573 40.1612 64.6161C41.99 64.6161 43.8241 64.6161 45.6528 64.6161ZM48.8558 54.3646C48.8721 54.3323 48.8883 54.3 48.9045 54.273C46.8485 54.273 44.7926 54.273 42.7366 54.273C42.7366 54.3053 42.7366 54.3377 42.7366 54.3646C44.7817 54.3646 46.8215 54.3646 48.8558 54.3646ZM44.5762 66.9337C44.5762 66.896 44.5816 66.8529 44.5816 66.8152C42.5148 66.8152 40.448 66.8152 38.3812 66.8152C38.3812 66.8529 38.3812 66.896 38.3812 66.9337C40.4426 66.9337 42.5094 66.9337 44.5762 66.9337ZM18.8765 7.12272C18.8765 7.15506 18.8765 7.19279 18.8765 7.22513C20.9703 7.22513 23.0642 7.22513 25.158 7.22513C25.158 7.19279 25.158 7.15506 25.158 7.12272C23.0642 7.12272 20.9703 7.12272 18.8765 7.12272ZM39.1982 66.039C39.1873 66.0714 39.1711 66.1091 39.1603 66.1414C41.1297 66.1414 43.1045 66.1414 45.0739 66.1414C45.0739 66.1091 45.0739 66.0714 45.0739 66.039C43.1153 66.039 41.1567 66.039 39.1982 66.039ZM20.6186 47.3093C20.6078 47.2716 20.597 47.2339 20.5862 47.2015C18.6114 47.2015 16.6365 47.2015 14.6617 47.2015C14.6617 47.2393 14.6617 47.277 14.6671 47.3093C16.6474 47.3093 18.633 47.3093 20.6186 47.3093ZM20.4076 29.2318C20.4022 29.1941 20.3914 29.151 20.386 29.1133C18.3949 29.1133 16.4093 29.1133 14.4183 29.1133C14.4183 29.151 14.4183 29.1941 14.4183 29.2318C16.4147 29.2318 18.4112 29.2318 20.4076 29.2318ZM20.4239 46.4847C20.4239 46.447 20.4239 46.4092 20.4239 46.3769C18.4869 46.3769 16.5554 46.3769 14.6184 46.3769C14.6184 46.4146 14.6184 46.4524 14.6184 46.4847C16.5554 46.4847 18.4923 46.4847 20.4239 46.4847ZM14.3804 44.0377C14.3804 44.0647 14.3804 44.0916 14.3804 44.1186C16.3011 44.1186 18.2164 44.1186 20.1371 44.1186C20.1371 44.0916 20.1371 44.0647 20.1371 44.0377C18.2164 44.0377 16.3011 44.0377 14.3804 44.0377ZM11.2802 72.2697C11.2802 72.3236 11.2802 72.3829 11.2802 72.4368C12.2757 72.4368 13.2712 72.4368 14.2668 72.4368C14.2668 72.3829 14.2668 72.3236 14.2668 72.2697C13.2767 72.2697 12.2811 72.2697 11.2802 72.2697ZM40.0584 9.4673C40.0584 9.49964 40.0584 9.53198 40.0584 9.56432C41.9845 9.56432 43.9053 9.56432 45.8314 9.56432C45.8314 9.53198 45.8314 9.49964 45.8314 9.4673C43.9107 9.4673 41.9845 9.4673 40.0584 9.4673ZM24.4168 66.9283C24.4222 66.8906 24.4276 66.8529 24.433 66.8205C22.5881 66.8205 20.7431 66.8205 18.8927 66.8205C18.8927 66.8583 18.8927 66.896 18.8927 66.9283C20.7377 66.9283 22.5772 66.9283 24.4168 66.9283ZM9.86807 71.542C9.86807 71.569 9.86807 71.5905 9.86807 71.6175C11.7022 71.6175 13.5364 71.6175 15.3651 71.6175C15.3651 71.5905 15.3651 71.569 15.3651 71.542C13.5309 71.542 11.6968 71.542 9.86807 71.542ZM14.375 41.6716C14.375 41.7093 14.375 41.7416 14.375 41.7794C16.2362 41.7794 18.092 41.7794 19.9532 41.7794C19.9532 41.7416 19.9532 41.7093 19.9532 41.6716C18.0974 41.6716 16.2362 41.6716 14.375 41.6716ZM40.8105 63.6621C40.8051 63.6998 40.7997 63.7376 40.7942 63.7699C42.5526 63.7699 44.311 63.7699 46.064 63.7699C46.064 63.7322 46.064 63.6944 46.064 63.6621C44.3165 63.6621 42.5635 63.6621 40.8105 63.6621ZM16.8043 4.88594C16.8205 4.84821 16.8367 4.81048 16.853 4.77276C15.1216 4.77276 13.3849 4.77276 11.6535 4.77276C11.6535 4.81048 11.6535 4.84821 11.6535 4.88594C13.3686 4.88594 15.0892 4.88594 16.8043 4.88594Z" fill="#808080"/>
<path d="M43.1911 35.2199C43.6942 35.1391 44.1973 35.01 44.7005 34.9939C45.5716 34.9723 46.6104 34.7459 47.2705 35.134C47.8386 35.4682 47.9684 36.5354 48.3905 37.5163C42.3307 37.4301 37.4235 39.144 33.6632 43.5421C32.4458 44.9651 31.8777 46.0322 31.8182 47.342C34.0149 43.1379 37.1529 40.2813 41.5084 38.9069C43.521 38.2709 45.5987 37.9259 47.7574 38.3679C44.338 38.7075 40.9781 39.1494 38.0186 41.0952C35.0429 43.0463 33.0193 45.7358 31.5531 49.2338C30.6009 46.1562 28.9561 43.8601 26.5538 42.1408C23.6268 40.0495 20.2939 38.9338 16.7663 38.5188C10.4361 37.7696 4.95537 33.3551 3.46208 27.6095C1.89305 21.5513 6.41071 14.4532 12.5895 13.2944C12.887 13.2405 13.2008 13.289 13.493 13.289C13.8501 15.2617 13.8339 15.3048 12.0971 16.0163C6.03198 18.501 5.85343 25.4377 8.7372 28.5476C9.09429 28.9303 9.51631 29.2537 10.0249 29.5286C7.37918 26.5857 6.4594 23.4111 8.43963 19.7891C9.50008 17.8542 11.8374 16.2965 13.8501 16.3181C13.3361 16.593 13.0602 16.7708 12.768 16.8948C9.54877 18.2746 7.95269 20.5329 7.97974 23.6698C8.00679 26.6127 9.9221 29.3669 13.0223 30.4718C17.7673 32.1588 22.3878 31.8624 26.5863 28.8926C29.2158 27.0331 30.3303 24.1926 31.0824 21.1905C31.1636 20.8563 31.2501 20.5222 31.3746 20.0371C32.5486 24.5214 34.069 27.3457 39.9339 30.1807C39.8149 30.4125 39.6363 30.6335 39.5876 30.8814C39.5389 31.1132 39.5389 31.4851 39.6742 31.5875C39.869 31.733 40.2098 31.7438 40.4804 31.7115C40.9781 31.6522 41.4705 31.4258 41.9628 31.442C43.3425 31.4797 43.9972 32.4121 43.6509 33.765C43.5265 34.2608 43.3479 34.7405 43.1964 35.231C38.4136 34.3363 34.2042 32.4553 31.3367 28.1865C28.6747 33.6248 23.827 34.692 18.6059 35.0909C24.1895 35.3765 28.6206 37.5486 31.4395 42.4642C31.7533 41.9629 32.0509 41.3054 32.5108 40.7987C35.1781 37.8289 38.3865 35.8401 42.4768 35.4951C42.7203 35.479 42.953 35.317 43.1911 35.2199ZM26.6675 41.3647C26.7053 41.3269 26.7432 41.2838 26.7811 41.2461C26.24 40.8418 25.7477 40.3082 25.1417 40.0549C23.3671 39.3111 21.5816 38.5404 19.7313 38.0391C16.9286 37.2845 13.9583 37.139 11.3505 35.6892C10.198 35.0478 9.0456 34.3956 7.88776 33.7542C7.78496 33.862 7.68758 33.9698 7.58478 34.0776C7.82825 34.1908 8.09877 34.2608 8.30978 34.4172C10.4253 35.9964 12.7247 37.1444 15.3326 37.6834C17.4535 38.12 19.6014 38.4919 21.6574 39.1494C23.3941 39.6938 25.0065 40.6101 26.6675 41.3647ZM21.5816 34.1369C25.2878 33.5224 28.5611 32.2127 30.3736 28.6069C28.2094 31.6683 24.9307 32.9511 21.5816 34.1369ZM31.5693 23.1147C31.5964 24.7101 33.0085 26.8229 34.3016 27.2163C33.4197 25.8904 32.4999 24.516 31.5693 23.1147Z" fill="#808080"/>
<path d="M31.6452 67.4997C30.3899 66.3947 29.3402 65.1931 28.0363 64.4062C26.7378 63.6247 25.1904 63.2582 23.7512 62.7084C23.7945 62.5844 23.8378 62.4551 23.8865 62.3311C25.3744 62.8324 26.8622 63.339 28.5395 63.9049C28.2419 63.6193 28.058 63.3282 27.7982 63.2204C26.7865 62.7892 25.7801 62.2557 24.7197 62.0724C23.5727 61.873 23.3563 61.2585 23.313 60.3045C23.1939 57.5395 23.8703 55.071 25.6665 53.2007C26.3915 54.5212 26.9542 55.9981 27.9119 57.1515C28.9399 58.3965 30.5576 58.6175 32.1645 58.5151C34.702 58.3534 36.1195 56.8011 36.9852 53.0929C38.9059 55.1033 41.2054 56.3376 43.8565 56.8874C47.3787 57.6204 50.8684 57.8198 54.0173 55.6315C59.4116 51.8748 59.7957 43.2026 53.6873 39.9849C53.5629 39.9202 53.4709 39.807 53.3573 39.7154C53.4276 39.6076 53.4979 39.5052 53.5683 39.3974C54.2716 39.8339 54.9804 40.2759 55.6838 40.7125C55.7216 40.6801 55.7649 40.6478 55.8028 40.6155C55.4782 40.2975 55.1752 39.9579 54.8289 39.6615C54.4772 39.3542 54.0877 39.0848 53.763 38.8368C54.342 36.6108 52.6701 34.9022 52.6485 32.7355C54.7423 33.0427 56.6847 33.8081 58.5026 34.9022C67.1323 40.0765 66.0881 49.5572 61.9058 55.3728C58.8056 59.6847 54.3257 61.4903 49.1696 61.943C45.9016 62.2287 42.6229 62.4281 39.382 62.9132C36.1358 63.3875 33.1871 64.5892 31.6452 67.4997ZM31.9481 66.0124C34.4152 63.3067 37.6994 62.4766 41.1188 62.0724C44.0188 61.7274 46.9513 61.6197 49.8621 61.334C56.847 60.6441 62.4685 56.6394 64.0537 49.4386C64.9465 45.3801 64.6056 41.5048 61.7056 38.1954C61.4513 37.9044 61.1483 37.6511 60.867 37.3816C61.3485 38.5404 62.0951 39.4728 62.62 40.5184C64.9573 45.1645 64.1782 49.6973 61.6136 53.9176C58.5351 58.984 53.5358 60.6333 47.8927 61.0052C44.7438 61.21 41.5895 61.4957 38.4785 62.0023C35.8274 62.4281 33.4089 63.5007 31.9481 66.0124ZM27.0462 57.2647C26.543 56.3107 26.0453 55.3621 25.5421 54.4081C25.369 55.7016 25.8884 56.6448 27.0462 57.2647Z" fill="#808080"/>
<path d="M54.9047 26.0464C57.004 24.4726 57.1013 21.2983 55.1157 19.3741C52.9623 17.2883 50.2084 16.5984 47.3516 16.2265C43.4507 15.7198 40.0042 16.7385 37.0123 19.6382C36.5902 16.3612 34.7561 14.658 31.71 14.6095C28.5611 14.561 26.6458 16.2857 26.0994 19.5035C25.1038 18.722 24.2273 18.0267 23.1615 17.1858C23.5997 17.1589 23.7837 17.1427 23.9785 17.1319C23.9731 17.0511 23.9893 16.9649 23.9622 16.9002C23.735 16.3612 23.313 15.833 23.3076 15.294C23.3022 14.3238 23.5673 13.3537 23.6809 12.3781C23.7729 11.602 24.1895 11.2301 24.9361 11.0307C27.69 10.2976 29.8596 8.76153 31.2609 6.19597C31.3962 6.26604 31.5369 6.2876 31.5802 6.36845C33.5009 9.67781 36.6606 10.9606 40.2044 11.5804C44.0188 12.2488 47.8765 12.7177 51.6475 13.5585C54.8722 14.2753 57.6315 15.9354 59.0274 19.137C60.1041 21.6055 60.169 24.1333 58.7515 26.521C57.1608 29.2052 53.3627 29.9382 50.9983 28.0571C49.927 27.2056 49.4509 26.0629 49.6727 24.7047C49.8405 23.6806 50.5276 23.0392 51.5069 22.732C53.552 22.0852 55.1643 23.4596 54.8722 25.5778C54.8451 25.718 54.8885 25.8632 54.9047 26.0464ZM56.3438 19.6921C54.1418 16.1187 50.414 15.5312 46.7132 15.0892C43.1585 14.6634 39.2955 16.0432 38.2945 17.8057C44.8845 14.2807 51.6475 15.0407 56.3438 19.6921ZM56.3601 16.8247C56.5711 17.1427 56.7604 17.4769 56.9985 17.7733C58.3619 19.4657 58.7948 21.4115 58.627 23.5351C58.3836 26.6396 56.0895 28.4344 53.0218 27.9008C52.5349 27.8146 52.0425 27.7445 51.3933 27.6421C53.5142 29.1782 56.5494 28.6608 58.0644 26.6396C60.1095 23.9178 59.2979 18.7327 56.3601 16.8247ZM35.1294 14.879C33.5496 13.3698 31.6289 13.2567 29.6757 13.8172C27.7225 14.3777 26.1372 15.4557 25.6557 17.8218C29.4214 13.58 30.5251 13.262 35.1294 14.879Z" fill="#808080"/>
<path d="M13.4498 61.0373C7.13579 61.0588 0.843421 56.9787 0.621593 49.5892C0.513383 46.0104 1.73074 43.2777 5.05276 41.6662C7.91489 40.2756 11.1016 41.0625 12.6058 43.5095C14.0179 45.8056 13.1739 48.425 10.7608 49.2335C8.74269 49.9126 6.63261 48.4196 6.63261 46.2961C6.63261 45.8756 6.70295 45.4498 6.47571 44.8246C6.08615 45.3313 5.55593 45.784 5.3341 46.3553C3.5757 50.8828 6.67582 55.9549 11.5019 56.6125C14.0611 56.9574 13.5417 56.4239 13.585 59.0703C13.5904 59.4529 13.5038 59.8356 13.4281 60.4662C10.9717 59.7871 8.65064 59.1457 6.32414 58.5043C8.47209 60.0135 10.988 60.4336 13.4498 61.0373ZM5.92918 44.4153C4.44671 44.895 4.11126 46.1508 3.90566 47.412C3.42413 50.3495 4.58197 54.1278 6.98962 55.2381C4.31686 51.7994 3.0941 48.3337 5.92918 44.4153ZM7.89858 47.9834C9.19709 49.2608 10.8527 49.1691 12.0322 47.9079C12.887 46.997 13.1521 44.5069 11.5182 43.2026C11.859 44.6201 12.8167 45.9406 11.7508 47.2935C10.7066 48.6248 9.37564 48.6355 7.89858 47.9834Z" fill="#808080"/>
<path d="M20.4942 69.9359C27.6468 69.9359 34.794 69.9359 41.9467 69.9359C41.9467 69.9952 41.9467 70.0544 41.9467 70.1137C34.7995 70.1137 27.6522 70.1137 20.505 70.1137C20.4996 70.0544 20.4996 69.9952 20.4942 69.9359Z" fill="#808080"/>
<path d="M21.0677 3.92116C27.9282 3.92116 34.7886 3.92146 41.649 3.92146C41.649 3.97536 41.649 4.02926 41.649 4.08316C34.7994 4.08316 27.9552 4.08316 21.1055 4.08316C21.0947 4.02926 21.0785 3.97506 21.0677 3.92116Z" fill="#808080"/>
<path d="M31.499 3.39326C38.8109 3.39326 44.7384 3.34258 44.7384 3.28007C44.7384 3.21756 38.8109 3.16688 31.499 3.16688C24.1871 3.16688 18.2596 3.21756 18.2596 3.28007C18.2596 3.34258 24.1871 3.39326 31.499 3.39326Z" fill="#808080"/>
<path d="M23.5187 2.39584C28.8534 2.39584 34.1881 2.39584 39.5174 2.39584C39.5174 2.46052 39.5174 2.52519 39.5174 2.58987C34.1881 2.58987 28.8534 2.58987 23.5241 2.58987C23.5241 2.53058 23.5187 2.46052 23.5187 2.39584Z" fill="#808080"/>
<path d="M20.3481 4.76198C27.7442 4.76198 35.1349 4.76198 42.531 4.76198C42.531 4.81048 42.531 4.85899 42.531 4.9075C35.1349 4.9075 27.7442 4.9075 20.3481 4.9075C20.3481 4.85899 20.3481 4.81048 20.3481 4.76198Z" fill="#808080"/>
<path d="M13.8015 7.88808C17.3561 7.88808 20.9108 7.88808 24.4655 7.88808C24.4655 7.9312 24.4655 7.97432 24.4709 8.01744C20.9162 8.01744 17.3616 8.01744 13.8069 8.01744C13.8015 7.97432 13.8015 7.9312 13.8015 7.88808Z" fill="#808080"/>
<path d="M23.892 8.82591C20.597 8.82591 17.302 8.82591 14.0017 8.82591C14.0017 8.77201 14.0017 8.72351 13.9962 8.66961C17.2966 8.66961 20.5916 8.66961 23.892 8.66961C23.892 8.72351 23.892 8.7774 23.892 8.82591Z" fill="#808080"/>
<path d="M43.3588 5.6513C40.1396 5.6513 36.9149 5.6516 33.6956 5.6516C33.6956 5.5977 33.7011 5.5438 33.7011 5.4899C36.9203 5.4899 40.1341 5.4899 43.3533 5.4899C43.3533 5.5438 43.3588 5.5974 43.3588 5.6513Z" fill="#808080"/>
<path d="M23.5836 65.3922C20.4672 65.3922 17.3561 65.3922 14.2397 65.3922C14.2397 65.3437 14.2397 65.2952 14.2397 65.2521C17.3561 65.2521 20.4672 65.2521 23.5836 65.2521C23.5836 65.3006 23.5836 65.3437 23.5836 65.3922Z" fill="#808080"/>
<path d="M18.8548 20.6623C22.4405 20.6623 25.3473 20.6092 25.3473 20.5437C25.3473 20.4782 22.4405 20.4251 18.8548 20.4251C15.269 20.4251 12.3622 20.4782 12.3622 20.5437C12.3622 20.6092 15.269 20.6623 18.8548 20.6623Z" fill="#808080"/>
<path d="M41.3191 45.5469C44.3814 45.5469 47.4437 45.5469 50.506 45.5469C50.506 45.6008 50.506 45.6547 50.5114 45.7086C47.4491 45.7086 44.3814 45.7086 41.3191 45.7086C41.3191 45.6547 41.3191 45.6008 41.3191 45.5469Z" fill="#808080"/>
<path d="M23.0966 10.2327C23.0966 10.2866 23.102 10.3405 23.102 10.3944C20.1533 10.3944 17.2101 10.3944 14.2614 10.3944C14.2559 10.3405 14.2559 10.2866 14.2505 10.2327" fill="#808080"/>
<path d="M41.5571 28.2724C44.4625 28.2724 47.3625 28.2724 50.268 28.2724C50.268 28.3263 50.268 28.3856 50.268 28.4395C47.3625 28.4395 44.4571 28.4395 41.5517 28.4395C41.5517 28.3856 41.5517 28.3317 41.5571 28.2724Z" fill="#808080"/>
<path d="M19.2931 5.50038C22.2742 5.50038 25.2554 5.50038 28.2366 5.50038C28.2366 5.54889 28.242 5.5974 28.242 5.64591C25.2608 5.64591 22.2797 5.64591 19.2985 5.64591C19.2985 5.5974 19.2931 5.54889 19.2931 5.50038Z" fill="#808080"/>
<path d="M40.9728 44.7977C44.192 44.7977 47.4112 44.7977 50.6305 44.7977C50.6305 44.8516 50.6305 44.9109 50.6305 44.9648C47.4112 44.9648 44.192 44.9648 40.9728 44.9648C40.9728 44.9055 40.9728 44.8516 40.9728 44.7977Z" fill="#808080"/>
<path d="M18.5842 55.2327C21.9399 55.2327 24.6602 55.1772 24.6602 55.1087C24.6602 55.0403 21.9399 54.9848 18.5842 54.9848C15.2286 54.9848 12.5083 55.0403 12.5083 55.1087C12.5083 55.1772 15.2286 55.2327 18.5842 55.2327Z" fill="#808080"/>
<path d="M14.2451 21.2118C17.2101 21.2118 20.1696 21.2118 23.1345 21.2118C23.1345 21.2549 23.1345 21.298 23.1345 21.3411C20.1696 21.3411 17.2101 21.3411 14.2451 21.3411C14.2451 21.3034 14.2451 21.2549 14.2451 21.2118Z" fill="#808080"/>
<path d="M14.2505 10.9711C17.0694 10.9711 19.8882 10.9714 22.707 10.9714C22.707 11.0307 22.707 11.0846 22.707 11.1438C19.8827 11.1438 17.0639 11.1438 14.2396 11.1438C14.2451 11.0846 14.2505 11.025 14.2505 10.9711Z" fill="#808080"/>
<path d="M14.3155 62.8536C17.091 62.8536 19.8666 62.8536 22.6476 62.8536C22.6476 62.8967 22.653 62.9399 22.653 62.983C19.8774 62.983 17.1073 62.983 14.3317 62.983C14.3263 62.9399 14.3209 62.8967 14.3155 62.8536Z" fill="#808080"/>
<path d="M22.6854 52.8285C19.8936 52.8285 17.1018 52.8285 14.3101 52.8285C14.3101 52.7692 14.3101 52.7153 14.3101 52.6561C17.1018 52.6561 19.8936 52.6561 22.6909 52.6561C22.6909 52.7154 22.6854 52.7746 22.6854 52.8285Z" fill="#808080"/>
<path d="M22.4744 18.2851C19.7367 18.2851 17.0045 18.2851 14.2668 18.2851C14.2668 18.2312 14.2614 18.1827 14.2614 18.1288C16.9991 18.1288 19.7367 18.1288 22.4744 18.1288C22.469 18.1773 22.4744 18.2312 22.4744 18.2851Z" fill="#808080"/>
<path d="M50.9821 30.8003C48.2228 30.8003 45.4635 30.8003 42.6987 30.8003C42.6987 30.741 42.6987 30.6871 42.6987 30.6278C45.4526 30.6278 48.2066 30.6278 50.9659 30.6278C50.9713 30.6871 50.9767 30.741 50.9821 30.8003Z" fill="#808080"/>
<path d="M22.4636 55.9277C19.7422 55.9277 17.0152 55.928 14.2937 55.928C14.2937 55.8741 14.2937 55.8202 14.2937 55.7609C17.0152 55.7609 19.7367 55.7609 22.4581 55.7609C22.4581 55.8202 22.4636 55.8738 22.4636 55.9277Z" fill="#808080"/>
<path d="M41.8709 47.913C44.5978 47.913 47.3246 47.9133 50.0569 47.9133C50.0569 47.9726 50.0569 48.0319 50.0569 48.0912C47.3246 48.0912 44.5923 48.0912 41.8654 48.0912C41.8654 48.0319 41.8709 47.9723 41.8709 47.913Z" fill="#808080"/>
<path d="M22.2147 23.0174C19.5636 23.0174 16.9179 23.0174 14.2668 23.0174C14.2668 22.9635 14.2614 22.9096 14.2614 22.8557C16.9125 22.8557 19.569 22.8557 22.2201 22.8557C22.2147 22.9096 22.2147 22.9635 22.2147 23.0174Z" fill="#808080"/>
<path d="M22.2364 13.5528C19.5852 13.5528 16.9341 13.5528 14.283 13.5528C14.283 13.5043 14.2776 13.4558 14.2776 13.4073C16.9287 13.4073 19.5798 13.4073 22.231 13.4073C22.231 13.4558 22.2364 13.5043 22.2364 13.5528Z" fill="#808080"/>
<path d="M14.2451 15.698C16.8963 15.698 19.5473 15.6983 22.193 15.6983C22.193 15.7522 22.1984 15.806 22.1984 15.8599C19.5473 15.8599 16.8962 15.8599 14.2451 15.8599C14.2505 15.806 14.2451 15.7519 14.2451 15.698Z" fill="#808080"/>
<path d="M14.2884 60.4767C16.9233 60.4767 19.5635 60.477 22.1984 60.477C22.1984 60.5363 22.1984 60.5902 22.1984 60.6495C19.5581 60.6495 16.9178 60.6495 14.2775 60.6495C14.2829 60.5956 14.283 60.536 14.2884 60.4767Z" fill="#808080"/>
<path d="M41.595 27.5125C44.2515 27.5125 46.9135 27.5125 49.57 27.5125C49.57 27.5718 49.57 27.6257 49.5754 27.6849C46.9189 27.6849 44.2678 27.6849 41.6112 27.6849C41.6058 27.6257 41.6004 27.5664 41.595 27.5125Z" fill="#808080"/>
<path d="M18.238 58.3265C21.3038 58.3265 23.7891 58.2782 23.7891 58.2187C23.7891 58.1591 21.3038 58.1109 18.238 58.1109C15.1722 58.1109 12.6868 58.1591 12.6868 58.2187C12.6868 58.2782 15.1722 58.3265 18.238 58.3265Z" fill="#808080"/>
<path d="M18.3516 12.7662C21.4831 12.7662 24.0218 12.7203 24.0218 12.6638C24.0218 12.6072 21.4831 12.5614 18.3516 12.5614C15.22 12.5614 12.6814 12.6072 12.6814 12.6638C12.6814 12.7203 15.22 12.7662 18.3516 12.7662Z" fill="#808080"/>
<path d="M18.238 59.9111C21.2978 59.9111 23.7783 59.8676 23.7783 59.8141C23.7783 59.7605 21.2978 59.717 18.238 59.717C15.1781 59.717 12.6977 59.7605 12.6977 59.8141C12.6977 59.8676 15.1781 59.9111 18.238 59.9111Z" fill="#808080"/>
<path d="M31.5261 1.7817C36.3758 1.7817 40.3072 1.72861 40.3072 1.66312C40.3072 1.59763 36.3758 1.54454 31.5261 1.54454C26.6763 1.54454 22.7449 1.59763 22.7449 1.66312C22.7449 1.72861 26.6763 1.7817 31.5261 1.7817Z" fill="#808080"/>
<path d="M14.3046 14.9703C16.9179 14.9703 19.5311 14.9706 22.1443 14.9706C22.1443 15.0299 22.1443 15.0892 22.1443 15.1485C19.5257 15.1485 16.907 15.1485 14.2883 15.1485C14.2937 15.0892 14.2992 15.0296 14.3046 14.9703Z" fill="#808080"/>
<path d="M18.2488 57.5773C21.3206 57.5773 23.8107 57.5266 23.8107 57.4641C23.8107 57.4016 21.3206 57.3509 18.2488 57.3509C15.177 57.3509 12.6868 57.4016 12.6868 57.4641C12.6868 57.5266 15.177 57.5773 18.2488 57.5773Z" fill="#808080"/>
<path d="M43.2993 43.1861C45.8638 43.1861 48.4284 43.1861 50.993 43.1861C50.993 43.2454 50.993 43.2993 50.993 43.3586C48.423 43.3586 45.853 43.3586 43.2831 43.3586C43.2885 43.2993 43.2939 43.24 43.2993 43.1861Z" fill="#808080"/>
<path d="M44.0243 6.44899C41.4651 6.44899 38.9114 6.44899 36.3523 6.44899C36.3523 6.40049 36.3523 6.35198 36.3523 6.30347C38.9114 6.30347 41.4651 6.30347 44.0243 6.30347C44.0243 6.35198 44.0243 6.40049 44.0243 6.44899Z" fill="#808080"/>
<path d="M46.0315 50.495C48.9419 50.495 51.3013 50.4516 51.3013 50.398C51.3013 50.3444 48.9419 50.301 46.0315 50.301C43.1211 50.301 40.7617 50.3444 40.7617 50.398C40.7617 50.4516 43.1211 50.495 46.0315 50.495Z" fill="#808080"/>
<path d="M14.2776 23.5563C16.7664 23.5563 19.2605 23.5566 21.7494 23.5566C21.7494 23.6105 21.7494 23.6644 21.7494 23.7237C19.2551 23.7237 16.7663 23.7237 14.2721 23.7237C14.2775 23.6698 14.2776 23.6102 14.2776 23.5563Z" fill="#808080"/>
<path d="M14.283 50.2737C16.6961 50.2737 19.1091 50.2737 21.5222 50.2737C21.5222 50.333 21.5222 50.3923 21.5222 50.4516C19.1091 50.4516 16.6961 50.4516 14.283 50.4516C14.283 50.3923 14.283 50.333 14.283 50.2737Z" fill="#808080"/>
<path d="M51.2148 42.6525C48.7963 42.6525 46.3778 42.6528 43.9539 42.6528C43.9539 42.6097 43.9485 42.5612 43.9485 42.5181C46.3669 42.5181 48.7854 42.5181 51.2039 42.5181C51.2093 42.5612 51.2148 42.604 51.2148 42.6525Z" fill="#808080"/>
<path d="M26.2401 6.47594C23.7675 6.47594 21.295 6.47594 18.8224 6.47594C18.8224 6.42205 18.817 6.37354 18.817 6.31964C21.295 6.31964 23.7675 6.31964 26.2455 6.31964C26.2401 6.37354 26.2401 6.42743 26.2401 6.47594Z" fill="#808080"/>
<path d="M35.0375 1.05916C32.473 1.05916 29.9138 1.05916 27.3493 1.05916C27.3493 0.99448 27.3493 0.935192 27.3493 0.870514C29.9192 0.870514 32.4892 0.870514 35.0592 0.870514C35.0483 0.935192 35.0429 0.99448 35.0375 1.05916Z" fill="#808080"/>
<path d="M42.5094 22.8071C44.8683 22.8071 47.2219 22.8071 49.5808 22.8071C49.5808 22.8664 49.5808 22.9257 49.5862 22.985C47.2273 22.985 44.8737 22.985 42.5148 22.985C42.5148 22.9257 42.5094 22.8664 42.5094 22.8071Z" fill="#808080"/>
<path d="M51.4853 33.1826C49.1426 33.1826 46.7944 33.1826 44.4517 33.1826C44.4517 33.1287 44.4517 33.0694 44.4517 33.0155C46.7944 33.0155 49.1426 33.0155 51.4853 33.0155C51.4853 33.0694 51.4853 33.1233 51.4853 33.1826Z" fill="#808080"/>
<path d="M49.2833 23.7396C46.9784 23.7396 44.6735 23.7396 42.3741 23.7396C42.3741 23.6857 42.3741 23.6318 42.3741 23.5779C44.6844 23.5779 46.9946 23.5779 49.3049 23.5779C49.2995 23.6318 49.2887 23.6857 49.2833 23.7396Z" fill="#808080"/>
<path d="M47.9901 41.0413C50.8288 41.0413 53.13 40.9882 53.13 40.9227C53.13 40.8572 50.8288 40.8041 47.9901 40.8041C45.1514 40.8041 42.8501 40.8572 42.8501 40.9227C42.8501 40.9882 45.1514 41.0413 47.9901 41.0413Z" fill="#808080"/>
<path d="M37.153 67.5859C39.4524 67.5859 41.7519 67.5859 44.0513 67.5859C44.0513 67.629 44.0568 67.6721 44.0568 67.7153C41.7519 67.7153 39.447 67.7153 37.1476 67.7153C37.153 67.6775 37.153 67.629 37.153 67.5859Z" fill="#808080"/>
<path d="M14.283 25.1625C16.6095 25.1625 18.936 25.1625 21.2571 25.1625C21.2571 25.2218 21.2571 25.2757 21.2625 25.335C18.9414 25.335 16.6257 25.335 14.3046 25.335C14.2938 25.2757 14.2884 25.2164 14.283 25.1625Z" fill="#808080"/>
<path d="M49.2941 52.8231C47.0541 52.8231 44.8141 52.8234 42.5742 52.8234C42.5742 52.7749 42.5688 52.7264 42.5688 52.6725C44.8033 52.6725 47.0378 52.6725 49.2669 52.6725C49.2778 52.721 49.2833 52.7746 49.2941 52.8231Z" fill="#808080"/>
<path d="M48.845 26.1219C46.578 26.1219 44.3164 26.1222 42.0494 26.1222C42.0494 26.0629 42.0494 26.009 42.044 25.9497C44.3056 25.9497 46.5671 25.9497 48.8287 25.9497C48.8395 26.009 48.845 26.0626 48.845 26.1219Z" fill="#808080"/>
<path d="M20.9974 26.1219C18.752 26.1219 16.512 26.1222 14.2667 26.1222C14.2667 26.0683 14.2667 26.009 14.2667 25.9497C16.5174 25.9497 18.7682 25.9497 21.0189 25.9497C21.0135 26.009 21.0028 26.068 20.9974 26.1219Z" fill="#808080"/>
<path d="M42.1306 25.1571C44.3652 25.1571 46.5996 25.1574 48.8287 25.1574C48.8287 25.2059 48.8341 25.2544 48.8341 25.3083C46.605 25.3083 44.3705 25.3083 42.1414 25.3083C42.1414 25.2598 42.136 25.211 42.1306 25.1571Z" fill="#808080"/>
<path d="M20.8134 48.1232C18.633 48.1232 16.4525 48.1235 14.2721 48.1235C14.2721 48.075 14.2667 48.0211 14.2667 47.9726C16.4471 47.9726 18.6275 47.9726 20.8079 47.9726C20.8079 48.0211 20.8134 48.0693 20.8134 48.1232Z" fill="#808080"/>
<path d="M22.166 67.791C24.7776 67.791 26.8947 67.7428 26.8947 67.6832C26.8947 67.6237 24.7776 67.5754 22.166 67.5754C19.5543 67.5754 17.4372 67.6237 17.4372 67.6832C17.4372 67.7428 19.5543 67.791 22.166 67.791Z" fill="#808080"/>
<path d="M42.5635 21.2225C44.7926 21.2225 47.0271 21.2225 49.2562 21.2225C49.2562 21.2657 49.2562 21.3142 49.2562 21.3573C47.0271 21.3573 44.7926 21.3573 42.5635 21.3573C42.5635 21.3142 42.5635 21.2657 42.5635 21.2225Z" fill="#808080"/>
<path d="M49.1209 20.6297C46.9459 20.6297 44.7709 20.6297 42.5905 20.6297C42.5905 20.5704 42.5905 20.5111 42.5905 20.4572C44.7655 20.4572 46.9405 20.4572 49.1209 20.4572C49.1209 20.5111 49.1209 20.5704 49.1209 20.6297Z" fill="#808080"/>
<path d="M45.0523 8.07672C42.9043 8.07672 40.7564 8.07672 38.6084 8.07672C38.6084 8.01744 38.6084 7.95815 38.6084 7.89886C40.7564 7.89886 42.9043 7.89886 45.0577 7.89886C45.0577 7.95815 45.0523 8.01744 45.0523 8.07672Z" fill="#808080"/>
<path d="M15.7601 3.34984C13.6229 3.34984 11.4804 3.34984 9.34325 3.34984C9.34325 3.30672 9.33784 3.25821 9.33784 3.21509C11.475 3.21509 13.6175 3.21509 15.7546 3.21509C15.7546 3.25821 15.7601 3.30672 15.7601 3.34984Z" fill="#808080"/>
<path d="M14.2776 28.2778C16.3714 28.2778 18.4599 28.2778 20.5537 28.2778C20.5537 28.3317 20.5591 28.3856 20.5591 28.4395C18.4707 28.4395 16.3823 28.4395 14.2938 28.4395C14.2884 28.3856 14.283 28.3317 14.2776 28.2778Z" fill="#808080"/>
<path d="M17.5184 27.7445C20.0374 27.7445 22.0794 27.6914 22.0794 27.626C22.0794 27.5605 20.0374 27.5074 17.5184 27.5074C14.9994 27.5074 12.9574 27.5605 12.9574 27.626C12.9574 27.6914 14.9994 27.7445 17.5184 27.7445Z" fill="#808080"/>
<path d="M42.5905 55.0222C44.6681 55.0222 46.7511 55.0225 48.8287 55.0225C48.8287 55.071 48.8287 55.1249 48.8287 55.1734C46.7511 55.1734 44.6681 55.1734 42.5904 55.1734C42.5904 55.1249 42.5905 55.0707 42.5905 55.0222Z" fill="#808080"/>
<path d="M9.419 3.93194C11.778 3.93194 14.1369 3.93194 16.4905 3.93194C16.4905 3.96967 16.4905 4.01279 16.4851 4.05052C14.1261 4.05052 11.7671 4.05052 9.41359 4.05052C9.41359 4.0074 9.41359 3.96967 9.419 3.93194Z" fill="#808080"/>
<path d="M45.5068 8.81513C43.4887 8.81513 41.4759 8.81543 39.4578 8.81543C39.4578 8.76153 39.4578 8.70764 39.4578 8.65374C41.4705 8.65374 43.4832 8.65374 45.4904 8.65374C45.4959 8.70764 45.5013 8.76123 45.5068 8.81513Z" fill="#808080"/>
<path d="M48.5907 55.9277C46.5888 55.9277 44.5869 55.928 42.5796 55.928C42.5796 55.8687 42.5796 55.8148 42.5796 55.7555C44.5761 55.7555 46.5779 55.7555 48.5744 55.7555C48.5852 55.8148 48.5907 55.8738 48.5907 55.9277Z" fill="#808080"/>
<path d="M42.5743 18.0641C44.5978 18.0641 46.6212 18.0644 48.6393 18.0644C48.6393 18.1183 48.6447 18.1722 48.6447 18.2261C46.6212 18.2261 44.6031 18.2261 42.5796 18.2261C42.585 18.1722 42.5797 18.118 42.5743 18.0641Z" fill="#808080"/>
<path d="M14.2938 40.0438C16.2091 40.0438 18.119 40.0438 20.0343 40.0438C20.0343 40.1085 20.0397 40.1732 20.0397 40.2325C18.1244 40.2325 16.2091 40.2325 14.2884 40.2325C14.2938 40.1678 14.2938 40.1085 14.2938 40.0438Z" fill="#808080"/>
<path d="M17.3831 45.7304C19.6601 45.7304 21.5059 45.6846 21.5059 45.628C21.5059 45.5715 19.6601 45.5256 17.3831 45.5256C15.1062 45.5256 13.2603 45.5715 13.2603 45.628C13.2603 45.6846 15.1062 45.7304 17.3831 45.7304Z" fill="#808080"/>
<path d="M30.5036 69.3807C26.911 69.3807 23.3184 69.381 19.7258 69.381C19.7258 69.3379 19.7258 69.2948 19.7258 69.257C23.3292 69.257 26.9326 69.257 30.5359 69.257C30.5305 69.2948 30.5144 69.3376 30.5036 69.3807Z" fill="#808080"/>
<path d="M14.3101 43.1592C16.2308 43.1592 18.1515 43.1592 20.0776 43.1592C20.0776 43.2185 20.083 43.2724 20.083 43.3316C18.1569 43.3316 16.2308 43.3316 14.3046 43.3316C14.3046 43.2724 14.3046 43.2185 14.3101 43.1592Z" fill="#808080"/>
<path d="M20.294 44.9755C18.2867 44.9755 16.2795 44.9755 14.2722 44.9755C14.2722 44.9324 14.2722 44.8947 14.2668 44.8516C16.274 44.8516 18.2813 44.8516 20.2886 44.8516C20.294 44.8893 20.294 44.9324 20.294 44.9755Z" fill="#808080"/>
<path d="M50.8198 30.0403C47.5086 30.0403 44.192 30.0403 40.8808 30.0403C40.8808 30.008 40.8754 29.9756 40.8754 29.9433C44.1866 29.9433 47.5032 29.9433 50.8144 29.9433C50.8198 29.9756 50.8198 30.008 50.8198 30.0403Z" fill="#808080"/>
<path d="M14.2992 42.4261C16.2308 42.4261 18.1569 42.4261 20.0884 42.4261C20.0884 42.4854 20.0938 42.5393 20.0938 42.5986C18.1623 42.5986 16.2254 42.5986 14.2938 42.5986C14.2938 42.5393 14.2992 42.48 14.2992 42.4261Z" fill="#808080"/>
<path d="M14.283 40.8308C16.1929 40.8308 18.0974 40.8308 20.0073 40.8308C20.0073 40.8847 20.0127 40.9332 20.0127 40.9871C18.0974 40.9871 16.1821 40.9871 14.2668 40.9871C14.2722 40.9386 14.2776 40.8847 14.283 40.8308Z" fill="#808080"/>
<path d="M39.7446 65.182C41.6545 65.182 43.5644 65.182 45.4743 65.182C45.4743 65.2359 45.4797 65.2952 45.4797 65.3491C43.5644 65.3491 41.6437 65.3491 39.7284 65.3491C39.7338 65.2952 39.7392 65.2413 39.7446 65.182Z" fill="#808080"/>
<path d="M40.4372 10.2596C42.3741 10.2596 44.3056 10.2596 46.2426 10.2596C46.2426 10.3081 46.2426 10.3566 46.248 10.4105C44.311 10.4105 42.3795 10.4105 40.4426 10.4105C40.4426 10.362 40.4372 10.3081 40.4372 10.2596Z" fill="#808080"/>
<path d="M46.6484 11.1759C44.7276 11.1759 42.8069 11.1759 40.8862 11.1759C40.8862 11.1166 40.8862 11.0573 40.8808 10.998C42.7961 10.998 44.7114 10.998 46.6267 10.998C46.6321 11.0627 46.6375 11.1166 46.6484 11.1759Z" fill="#808080"/>
<path d="M16.7448 70.1299C14.9106 70.1299 13.0764 70.1302 11.2422 70.1302C11.2368 70.0871 11.2368 70.044 11.2314 69.9955C13.071 69.9955 14.9051 69.9955 16.7447 69.9955C16.7447 70.044 16.7448 70.0868 16.7448 70.1299Z" fill="#808080"/>
<path d="M32.5487 69.1759C35.9465 69.1759 39.3442 69.1762 42.7365 69.1762C42.7365 69.2301 42.7365 69.2894 42.7365 69.3433C39.3279 69.3433 35.9193 69.3433 32.5108 69.3433C32.527 69.2894 32.5379 69.2352 32.5487 69.1759Z" fill="#808080"/>
<path d="M17.4481 5.7052C15.7601 5.7052 14.072 5.7052 12.3893 5.7052C12.3893 5.64591 12.3893 5.58662 12.3893 5.52733C14.0774 5.52733 15.7601 5.52733 17.4481 5.52733C17.4481 5.58662 17.4481 5.64591 17.4481 5.7052Z" fill="#808080"/>
<path d="M42.4336 51.0499C44.798 51.0499 47.1623 51.0502 49.5212 51.0502C49.5212 51.1041 49.5212 51.158 49.5212 51.2119C47.1515 51.2119 44.7817 51.2119 42.4065 51.2119C42.4173 51.158 42.4228 51.1038 42.4336 51.0499Z" fill="#808080"/>
<path d="M40.778 44.0215C44.1217 44.0215 47.4599 44.0215 50.8036 44.0215C50.8036 44.0539 50.8036 44.0916 50.8036 44.1239C47.4816 44.1239 44.165 44.1239 40.8429 44.1239C40.8213 44.0916 40.7997 44.0593 40.778 44.0215Z" fill="#808080"/>
<path d="M14.2018 66.0444C17.4427 66.0444 20.6782 66.0444 23.919 66.0444C23.919 66.0768 23.919 66.1091 23.919 66.1414C20.6727 66.1414 17.4211 66.1414 14.1748 66.1414C14.1856 66.1037 14.1964 66.0714 14.2018 66.0444Z" fill="#808080"/>
<path d="M41.2325 29.0971C44.3597 29.0971 47.4924 29.0971 50.6196 29.0971C50.6196 29.1348 50.6196 29.1779 50.6196 29.2157C47.4924 29.2157 44.3597 29.2157 41.2325 29.2157C41.2325 29.1779 41.2325 29.1402 41.2325 29.0971Z" fill="#808080"/>
<path d="M15.5004 30.6332C17.0856 30.6332 18.6709 30.6332 20.2616 30.6332C20.2561 30.6763 20.2561 30.7194 20.2507 30.7625C18.6492 30.7625 17.0532 30.7625 15.4517 30.7625C15.4679 30.7194 15.4841 30.6763 15.5004 30.6332Z" fill="#808080"/>
<path d="M13.0819 6.28191C14.6076 6.28191 16.1334 6.28191 17.6591 6.28191C17.6591 6.33581 17.6591 6.3951 17.6591 6.44899C16.1334 6.44899 14.6022 6.44899 13.0765 6.44899C13.0765 6.38971 13.0765 6.33581 13.0819 6.28191Z" fill="#808080"/>
<path d="M14.4074 53.443C17.4319 53.443 20.4563 53.4433 23.4807 53.4433C23.4807 53.4756 23.4807 53.5133 23.4861 53.5457C20.4725 53.5457 17.4643 53.5457 14.4506 53.5457C14.4344 53.5079 14.4183 53.4753 14.4074 53.443Z" fill="#808080"/>
<path d="M23.0479 64.5999C20.1804 64.5999 17.3074 64.6002 14.4398 64.6002C14.4398 64.5571 14.4398 64.514 14.4398 64.4709C17.3128 64.4709 20.1803 64.4709 23.0533 64.4709C23.0479 64.514 23.0479 64.5568 23.0479 64.5999Z" fill="#808080"/>
<path d="M23.2103 54.3431C20.267 54.3431 17.3237 54.3431 14.3804 54.3431C14.3804 54.3107 14.3804 54.2784 14.3804 54.2461C17.3183 54.2461 20.2561 54.2461 23.1994 54.2461C23.2048 54.273 23.2048 54.3053 23.2103 54.3431Z" fill="#808080"/>
<path d="M22.9397 19.832C20.083 19.832 17.2209 19.832 14.3642 19.832C14.3642 19.7834 14.3642 19.7349 14.3642 19.6864C17.2209 19.6864 20.0722 19.6864 22.9289 19.6864C22.9343 19.7349 22.9397 19.7834 22.9397 19.832Z" fill="#808080"/>
<path d="M51.5719 33.9533C49.9379 33.9533 48.3039 33.9536 46.6645 33.9536C46.6645 33.8997 46.6645 33.8458 46.6645 33.7919C48.2985 33.7919 49.9324 33.7919 51.5718 33.7919C51.5718 33.8458 51.5719 33.8994 51.5719 33.9533Z" fill="#808080"/>
<path d="M23.2157 9.58049C20.2616 9.58049 17.3074 9.58079 14.3587 9.58079C14.3587 9.54306 14.3587 9.51072 14.3587 9.47299C17.3128 9.47299 20.2723 9.47299 23.2264 9.47299C23.221 9.51072 23.2157 9.54276 23.2157 9.58049Z" fill="#808080"/>
<path d="M17.6916 67.7907C16.247 67.7907 14.8023 67.791 13.3631 67.791C13.3631 67.7371 13.3577 67.6832 13.3577 67.6239C14.8023 67.6239 16.2415 67.6239 17.6861 67.6239C17.6861 67.6832 17.6916 67.7368 17.6916 67.7907Z" fill="#808080"/>
<path d="M46.0477 46.4742C49.4422 46.4742 52.194 46.4428 52.194 46.4041C52.194 46.3654 49.4422 46.3341 46.0477 46.3341C42.6532 46.3341 39.9014 46.3654 39.9014 46.4041C39.9014 46.4428 42.6532 46.4742 46.0477 46.4742Z" fill="#808080"/>
<path d="M47.5735 40.087C49.0073 40.087 50.441 40.0873 51.8748 40.0873C51.8802 40.1358 51.8802 40.1897 51.8856 40.2382C50.4464 40.2382 49.0127 40.2382 47.5735 40.2382C47.5735 40.1843 47.5735 40.1355 47.5735 40.087Z" fill="#808080"/>
<path d="M14.7645 2.60604C13.4119 2.60604 12.0593 2.60604 10.7067 2.60604C10.7067 2.55753 10.7013 2.50902 10.7013 2.46052C12.0539 2.46052 13.4065 2.46052 14.7591 2.46052C14.7645 2.50902 14.7645 2.55753 14.7645 2.60604Z" fill="#808080"/>
<path d="M45.9341 47.3204C49.218 47.3204 51.8802 47.2818 51.8802 47.2342C51.8802 47.1866 49.218 47.1479 45.9341 47.1479C42.6502 47.1479 39.988 47.1866 39.988 47.2342C39.988 47.2818 42.6502 47.3204 45.9341 47.3204Z" fill="#808080"/>
<path d="M22.7936 63.7753C20.0073 63.7753 17.2263 63.7753 14.4399 63.7753C14.4399 63.743 14.4399 63.7106 14.4399 63.6783C17.2263 63.6783 20.0073 63.6783 22.7936 63.6783C22.7936 63.7106 22.7936 63.743 22.7936 63.7753Z" fill="#808080"/>
<path d="M22.1985 17.4712C19.5582 17.4712 16.9233 17.4712 14.283 17.4712C14.283 17.4281 14.283 17.3796 14.283 17.3365C16.9287 17.3365 19.569 17.3365 22.2147 17.3365C22.2093 17.385 22.2039 17.4281 22.1985 17.4712Z" fill="#808080"/>
<path d="M22.561 19.0235C19.8612 19.0235 17.1613 19.0238 14.4561 19.0238C14.4561 18.9861 14.4561 18.9483 14.4561 18.9106C17.1559 18.9106 19.8557 18.9106 22.5555 18.9106C22.5609 18.9483 22.561 18.9858 22.561 19.0235Z" fill="#808080"/>
<path d="M14.4345 62.1044C17.0964 62.1044 19.753 62.1044 22.4149 62.1044C22.4149 62.1422 22.4149 62.1853 22.4149 62.223C19.7638 62.223 17.1073 62.223 14.4561 62.223C14.4507 62.1799 14.4399 62.1422 14.4345 62.1044Z" fill="#808080"/>
<path d="M48.7584 37.7316C50.0569 37.7316 51.3554 37.7319 52.6539 37.7319C52.6539 37.7912 52.6539 37.8505 52.6539 37.9098C51.35 37.9098 50.0461 37.9098 48.7421 37.9098C48.7475 37.8505 48.753 37.7909 48.7584 37.7316Z" fill="#808080"/>
<path d="M18.476 22.1661C21.6823 22.1661 24.2815 22.1347 24.2815 22.096C24.2815 22.0573 21.6823 22.0259 18.476 22.0259C15.2698 22.0259 12.6706 22.0573 12.6706 22.096C12.6706 22.1347 15.2698 22.1661 18.476 22.1661Z" fill="#808080"/>
<path d="M19.1686 68.362C21.6737 68.362 24.1841 68.3623 26.6891 68.3623C26.6891 68.3947 26.6945 68.427 26.6945 68.4594C24.1949 68.4594 21.6898 68.4594 19.1902 68.4594C19.1848 68.427 19.1741 68.3944 19.1686 68.362Z" fill="#808080"/>
<path d="M18.3624 11.9631C21.4671 11.9631 23.9839 11.9269 23.9839 11.8822C23.9839 11.8376 21.4671 11.8014 18.3624 11.8014C15.2578 11.8014 12.7409 11.8376 12.7409 11.8822C12.7409 11.9269 15.2578 11.9631 18.3624 11.9631Z" fill="#808080"/>
<path d="M18.3732 56.7203C21.4689 56.7203 23.9785 56.6938 23.9785 56.661C23.9785 56.6283 21.4689 56.6017 18.3732 56.6017C15.2775 56.6017 12.768 56.6283 12.768 56.661C12.768 56.6938 15.2775 56.7203 18.3732 56.7203Z" fill="#808080"/>
<path d="M48.5528 38.4592C49.8297 38.4592 51.1066 38.4592 52.3834 38.4592C52.3834 38.5131 52.3889 38.5724 52.3889 38.6263C51.1066 38.6263 49.8243 38.6263 48.542 38.6263C48.542 38.567 48.5474 38.5131 48.5528 38.4592Z" fill="#808080"/>
<path d="M22.02 52.0147C19.4987 52.0147 16.9828 52.0147 14.4615 52.0147C14.4615 51.9769 14.4615 51.9446 14.4615 51.9069C16.9991 51.9069 19.5366 51.9069 22.0741 51.9069C22.0578 51.9446 22.0362 51.9823 22.02 52.0147Z" fill="#808080"/>
<path d="M43.3859 68.513C40.8484 68.513 38.3108 68.513 35.7733 68.513C35.7733 68.4698 35.7733 68.4321 35.7733 68.389C38.3163 68.389 40.8538 68.389 43.3967 68.389C43.3913 68.4321 43.3913 68.4752 43.3859 68.513Z" fill="#808080"/>
<path d="M22.0741 16.6681C19.5257 16.6681 16.9773 16.6684 14.429 16.6684C14.429 16.6253 14.429 16.5876 14.429 16.5445C16.9665 16.5445 19.5094 16.5445 22.0469 16.5445C22.0523 16.5876 22.0632 16.625 22.0741 16.6681Z" fill="#808080"/>
<path d="M22.0254 14.2912C19.4716 14.2912 16.9233 14.2912 14.3696 14.2912C14.3696 14.2535 14.3696 14.2157 14.3696 14.178C16.9179 14.178 19.4662 14.178 22.0145 14.178C22.0145 14.2157 22.02 14.2535 22.0254 14.2912Z" fill="#808080"/>
<path d="M18.2163 59.0649C21.1985 59.0649 23.616 59.0359 23.616 59.0002C23.616 58.9645 21.1985 58.9355 18.2163 58.9355C15.2342 58.9355 12.8167 58.9645 12.8167 59.0002C12.8167 59.0359 15.2342 59.0649 18.2163 59.0649Z" fill="#808080"/>
<path d="M42.2172 48.743C44.7655 48.743 47.3084 48.743 49.8568 48.743C49.8568 48.7808 49.8568 48.8185 49.8568 48.8562C47.3247 48.8562 44.7872 48.8562 42.2551 48.8562C42.2442 48.8131 42.2334 48.7808 42.2172 48.743Z" fill="#808080"/>
<path d="M21.9713 61.4361C19.4554 61.4361 16.9395 61.4361 14.4237 61.4361C14.4237 61.4038 14.4237 61.3714 14.4237 61.3391C16.9774 61.3391 19.5311 61.3391 22.0795 61.3391C22.047 61.3714 22.0091 61.4038 21.9713 61.4361Z" fill="#808080"/>
<path d="M14.402 51.093C16.8151 51.093 19.2281 51.0933 21.6466 51.0933C21.6466 51.1418 21.6466 51.1903 21.6466 51.2388C19.2497 51.2388 16.8475 51.2388 14.4506 51.2388C14.429 51.1903 14.4183 51.1415 14.402 51.093Z" fill="#808080"/>
<path d="M48.45 35.3762C49.689 35.3762 50.9334 35.3762 52.1724 35.3762C52.1724 35.4248 52.1778 35.4679 52.1778 35.5164C50.9389 35.5164 49.6944 35.5164 48.4555 35.5164C48.4555 35.4679 48.45 35.4248 48.45 35.3762Z" fill="#808080"/>
<path d="M20.3644 30.0673C18.3463 30.0673 16.3282 30.0673 14.3101 30.0673C14.3101 30.0134 14.3101 29.9648 14.3101 29.911C16.3227 29.911 18.3408 29.911 20.3535 29.911C20.3535 29.9595 20.3589 30.0134 20.3644 30.0673Z" fill="#808080"/>
<path d="M49.6241 49.6485C47.1569 49.6485 44.6844 49.6485 42.2172 49.6485C42.2172 49.6108 42.2172 49.5731 42.2172 49.5353C44.6898 49.5353 47.1569 49.5353 49.6295 49.5353C49.6241 49.5731 49.6241 49.6108 49.6241 49.6485Z" fill="#808080"/>
<path d="M51.3609 32.4064C49.056 32.4064 46.7512 32.4064 44.4409 32.4064C44.4409 32.3579 44.4409 32.3148 44.4409 32.2663C46.7403 32.2663 49.0452 32.2663 51.3446 32.2663C51.35 32.3094 51.3555 32.3579 51.3609 32.4064Z" fill="#808080"/>
<path d="M48.6015 17.5251C46.7728 17.5251 44.9494 17.5254 43.1207 17.5254C43.1207 17.4769 43.1153 17.4338 43.1153 17.3853C44.9386 17.3853 46.7673 17.3853 48.5906 17.3853C48.6015 17.4338 48.6015 17.482 48.6015 17.5251Z" fill="#808080"/>
<path d="M51.0362 31.5872C48.726 31.5872 46.4211 31.5872 44.1109 31.5872C44.1109 31.5495 44.1109 31.5063 44.1109 31.4686C46.4211 31.4686 48.7314 31.4686 51.0471 31.4686C51.0416 31.5063 51.0362 31.5495 51.0362 31.5872Z" fill="#808080"/>
<path d="M41.9845 26.7525C44.3056 26.7525 46.6267 26.7525 48.9478 26.7525C48.9478 26.7848 48.9478 26.8226 48.9478 26.8549C46.6375 26.8549 44.3273 26.8549 42.0116 26.8549C42.0008 26.8172 41.9954 26.7848 41.9845 26.7525Z" fill="#808080"/>
<path d="M48.6286 19.0289C46.7079 19.0289 44.7872 19.0289 42.8665 19.0289C42.8665 18.9804 42.8665 18.9265 42.8665 18.878C44.8196 18.878 46.7782 18.878 48.7314 18.878C48.6935 18.9265 48.6611 18.975 48.6286 19.0289Z" fill="#808080"/>
<path d="M17.8863 24.5376C20.6234 24.5376 22.8423 24.5014 22.8423 24.4567C22.8423 24.4121 20.6234 24.3759 17.8863 24.3759C15.1492 24.3759 12.9303 24.4121 12.9303 24.4567C12.9303 24.5014 15.1492 24.5376 17.8863 24.5376Z" fill="#808080"/>
<path d="M51.2959 41.7794C48.9803 41.7794 46.6592 41.7794 44.3435 41.7794C44.3435 41.7416 44.3435 41.6985 44.3435 41.6608C46.6646 41.6608 48.9803 41.6608 51.3014 41.6608C51.2959 41.7039 51.2959 41.7416 51.2959 41.7794Z" fill="#808080"/>
<path d="M21.0894 49.6431C18.8548 49.6431 16.6203 49.6431 14.3858 49.6431C14.3858 49.6054 14.3858 49.5623 14.3858 49.5246C16.6257 49.5246 18.8657 49.5246 21.1002 49.5246C21.0948 49.5623 21.0894 49.6054 21.0894 49.6431Z" fill="#808080"/>
<path d="M37.6562 7.11194C39.9232 7.11194 42.1956 7.11194 44.4625 7.11194C44.4625 7.14967 44.4625 7.1874 44.4625 7.23052C42.1956 7.23052 39.9232 7.23052 37.6562 7.23052C37.6562 7.19279 37.6562 7.15506 37.6562 7.11194Z" fill="#808080"/>
<path d="M49.359 22.1388C47.1245 22.1388 44.8954 22.1388 42.6609 22.1388C42.6609 22.1065 42.6609 22.0687 42.6609 22.0364C44.9008 22.0364 47.1407 22.0364 49.3806 22.0364C49.3698 22.0741 49.3644 22.1065 49.359 22.1388Z" fill="#808080"/>
<path d="M42.6609 51.8853C44.825 51.8853 46.9892 51.8853 49.148 51.8853C49.148 51.9176 49.148 51.9446 49.148 51.9769C46.9838 51.9769 44.8196 51.9769 42.6609 51.9769C42.6609 51.9446 42.6609 51.9176 42.6609 51.8853Z" fill="#808080"/>
<path d="M20.8838 26.8549C18.7358 26.8549 16.5824 26.8549 14.4345 26.8549C14.4345 26.828 14.4345 26.801 14.4345 26.7687C16.5824 26.7687 18.7358 26.7687 20.8838 26.7687C20.8838 26.801 20.8838 26.828 20.8838 26.8549Z" fill="#808080"/>
<path d="M48.8288 24.5373C46.6971 24.5373 44.5707 24.5373 42.439 24.5373C42.439 24.4942 42.439 24.4564 42.439 24.4133C44.6032 24.4133 46.762 24.4133 48.9262 24.4133C48.8937 24.451 48.8612 24.4942 48.8288 24.5373Z" fill="#808080"/>
<path d="M14.5156 48.7376C16.6311 48.7376 18.752 48.7379 20.8675 48.7379C20.8675 48.7757 20.8675 48.808 20.8675 48.8457C18.7141 48.8457 16.5661 48.8457 14.4128 48.8457C14.4452 48.8134 14.4832 48.7754 14.5156 48.7376Z" fill="#808080"/>
<path d="M42.6717 19.6649C44.7547 19.6649 46.8377 19.6652 48.9207 19.6652C48.9207 19.7191 48.9207 19.7676 48.9261 19.8215C46.8431 19.8215 44.76 19.8215 42.677 19.8215C42.6716 19.7676 42.6717 19.7134 42.6717 19.6649Z" fill="#808080"/>
<path d="M42.7312 53.4591C44.798 53.4591 46.8702 53.4591 48.937 53.4591C48.937 53.5023 48.937 53.5454 48.937 53.5831C46.8702 53.5831 44.798 53.5831 42.7312 53.5831C42.7366 53.54 42.7366 53.4969 42.7312 53.4591Z" fill="#808080"/>
<path d="M45.6528 64.6161C43.8241 64.6161 41.99 64.6161 40.1612 64.6161C40.1612 64.573 40.1612 64.5299 40.1558 64.4867C41.9845 64.4867 43.8079 64.4867 45.6366 64.4867C45.642 64.5299 45.6474 64.573 45.6528 64.6161Z" fill="#808080"/>
<path d="M48.8558 54.3646C46.8161 54.3646 44.7763 54.3649 42.7419 54.3649C42.7419 54.3326 42.7419 54.3003 42.7419 54.2733C44.7979 54.2733 46.8539 54.2733 48.9099 54.2733C48.8936 54.3003 48.8721 54.3323 48.8558 54.3646Z" fill="#808080"/>
<path d="M44.5762 66.9337C42.5094 66.9337 40.4425 66.934 38.3757 66.934C38.3757 66.8963 38.3757 66.8532 38.3757 66.8155C40.4425 66.8155 42.5093 66.8155 44.5761 66.8155C44.5815 66.8532 44.5762 66.896 44.5762 66.9337Z" fill="#808080"/>
<path d="M18.8765 7.12272C20.9703 7.12272 23.0642 7.12272 25.158 7.12272C25.158 7.15506 25.158 7.19279 25.158 7.22513C23.0642 7.22513 20.9703 7.22513 18.8765 7.22513C18.8765 7.1874 18.8765 7.15506 18.8765 7.12272Z" fill="#808080"/>
<path d="M39.1982 66.039C41.1567 66.039 43.1153 66.039 45.0739 66.039C45.0739 66.0714 45.0739 66.1091 45.0739 66.1414C43.1045 66.1414 41.1297 66.1414 39.1603 66.1414C39.1711 66.1091 39.1819 66.0767 39.1982 66.039Z" fill="#808080"/>
<path d="M20.6186 47.3093C18.633 47.3093 16.6473 47.3096 14.6617 47.3096C14.6617 47.2719 14.6617 47.2342 14.6562 47.2018C16.6311 47.2018 18.6059 47.2018 20.5807 47.2018C20.5969 47.2396 20.6078 47.277 20.6186 47.3093Z" fill="#808080"/>
<path d="M20.4076 29.2318C18.4112 29.2318 16.4147 29.2318 14.4183 29.2318C14.4183 29.1941 14.4183 29.151 14.4183 29.1133C16.4093 29.1133 18.3949 29.1133 20.386 29.1133C20.3914 29.151 20.3968 29.1941 20.4076 29.2318Z" fill="#808080"/>
<path d="M17.5238 46.5066C19.7918 46.5066 21.6303 46.4728 21.6303 46.4311C21.6303 46.3894 19.7918 46.3556 17.5238 46.3556C15.2558 46.3556 13.4173 46.3894 13.4173 46.4311C13.4173 46.4728 15.2558 46.5066 17.5238 46.5066Z" fill="#808080"/>
<path d="M17.2587 44.1296C19.5057 44.1296 21.3273 44.1055 21.3273 44.0757C21.3273 44.046 19.5057 44.0218 17.2587 44.0218C15.0116 44.0218 13.19 44.046 13.19 44.0757C13.19 44.1055 15.0116 44.1296 17.2587 44.1296Z" fill="#808080"/>
<path d="M42.9475 9.59157C45.2036 9.59157 47.0324 9.5602 47.0324 9.5215C47.0324 9.4828 45.2036 9.45143 42.9475 9.45143C40.6915 9.45143 38.8626 9.4828 38.8626 9.5215C38.8626 9.5602 40.6915 9.59157 42.9475 9.59157Z" fill="#808080"/>
<path d="M24.4168 66.9283C22.5772 66.9283 20.7377 66.9283 18.8927 66.9283C18.8927 66.8906 18.8927 66.8529 18.8927 66.8205C20.7377 66.8205 22.5826 66.8205 24.433 66.8205C24.4276 66.8529 24.4222 66.8906 24.4168 66.9283Z" fill="#808080"/>
<path d="M14.375 41.6716C16.2362 41.6716 18.092 41.6716 19.9532 41.6716C19.9532 41.7093 19.9532 41.7416 19.9532 41.7794C18.092 41.7794 16.2362 41.7794 14.375 41.7794C14.3804 41.7416 14.3804 41.7039 14.375 41.6716Z" fill="#808080"/>
<path d="M40.8105 63.6621C42.5635 63.6621 44.3165 63.6621 46.064 63.6621C46.064 63.6998 46.064 63.7376 46.064 63.7699C44.3056 63.7699 42.5526 63.7699 40.7942 63.7699C40.7997 63.7376 40.8051 63.6998 40.8105 63.6621Z" fill="#808080"/>
<path d="M16.8043 4.88594C15.0892 4.88594 13.3686 4.88594 11.6535 4.88594C11.6535 4.84821 11.6535 4.81048 11.6535 4.77276C13.3849 4.77276 15.1216 4.77276 16.853 4.77276C16.8367 4.81587 16.8205 4.84821 16.8043 4.88594Z" fill="#808080"/>
<path d="M43.1911 35.2199C42.953 35.317 42.7203 35.479 42.4822 35.5005C38.3919 35.8455 35.1835 37.8343 32.5162 40.8041C32.0563 41.3161 31.7587 41.9737 31.4449 42.4696C28.626 37.554 24.1949 35.3819 18.6113 35.0963C23.8324 34.692 28.6802 33.6302 31.3421 28.1865C34.2042 32.4553 38.4136 34.3363 43.1964 35.231L43.1911 35.2199ZM23.7512 35.4358C26.9109 36.8318 29.6162 38.411 31.4233 41.2892C33.5225 38.2763 36.5253 36.6216 40.0259 35.2957C36.7039 34.1369 34.0311 32.3852 31.8182 29.825C30.0219 32.9511 27.2356 34.4818 23.7512 35.4358Z" fill="#808080"/>
<path d="M26.6675 41.3647C25.0065 40.6101 23.3941 39.6938 21.6628 39.144C19.6068 38.4919 17.4589 38.1146 15.338 37.678C12.7301 37.1444 10.4253 35.991 8.31519 34.4118C8.10418 34.2555 7.83366 34.18 7.59019 34.0722C7.69299 33.9644 7.79037 33.8566 7.89317 33.7488C9.0456 34.3956 10.198 35.0424 11.3559 35.6838C13.9637 37.139 16.934 37.2792 19.7367 38.0337C21.587 38.535 23.3725 39.3057 25.1471 40.0495C25.7531 40.3029 26.24 40.8364 26.7865 41.2407C26.7432 41.2838 26.7053 41.3215 26.6675 41.3647Z" fill="#808080"/>
<path d="M21.5816 34.1369C24.9361 32.9565 28.2094 31.6737 30.3736 28.6069C28.5611 32.2073 25.2878 33.5224 21.5816 34.1369Z" fill="#808080"/>
<path d="M34.3016 27.2163C33.4197 25.8904 32.4999 24.516 31.5693 23.1147C31.5964 24.7101 33.0085 26.8229 34.3016 27.2163Z" fill="#808080"/>
<path d="M31.9481 66.0124C33.4089 63.5061 35.8274 62.4281 38.4731 61.9969C41.5841 61.4903 44.7384 61.2046 47.8873 60.9998C53.5304 60.6333 58.5297 58.984 61.6082 53.9122C64.1728 49.6919 64.9519 45.1591 62.6146 40.5131C62.0897 39.4728 61.3431 38.5404 60.8616 37.3762C61.1429 37.6457 61.4459 37.899 61.7002 38.19C64.6056 41.494 64.941 45.3747 64.0483 49.4332C62.4631 56.6341 56.847 60.6387 49.8567 61.3286C46.9459 61.6143 44.0134 61.7221 41.1134 62.067C37.7048 62.4766 34.4207 63.3067 31.9481 66.0124Z" fill="#808080"/>
<path d="M27.0462 57.2647C25.8938 56.6448 25.3744 55.7016 25.5421 54.4081C26.0453 55.3621 26.543 56.3107 27.0462 57.2647Z" fill="#808080"/>
<path d="M56.3438 19.6921C51.6475 15.0407 44.8845 14.2861 38.2945 17.8057C39.2901 16.0432 43.1585 14.6634 46.7132 15.0892C50.414 15.5312 54.1418 16.1187 56.3438 19.6921Z" fill="#808080"/>
<path d="M56.3601 16.8247C59.2979 18.7327 60.1095 23.9178 58.0644 26.6342C56.544 28.6554 53.5142 29.1782 51.3933 27.6367C52.0425 27.7391 52.5349 27.8146 53.0218 27.8954C56.0895 28.429 58.389 26.6342 58.627 23.5297C58.7894 21.4061 58.3619 19.4604 56.9985 17.7679C56.7604 17.4769 56.5765 17.1427 56.3601 16.8247Z" fill="#808080"/>
<path d="M35.1294 14.879C30.5251 13.262 29.416 13.58 25.6557 17.8218C26.1372 15.4557 27.7171 14.3777 29.6757 13.8172C31.6289 13.2567 33.5496 13.3698 35.1294 14.879Z" fill="#808080"/>
<path d="M5.92918 44.4153C3.0941 48.3337 4.31686 51.7994 6.98962 55.2381C4.57656 54.1278 3.41872 50.3495 3.90566 47.412C4.11126 46.1508 4.44671 44.895 5.92918 44.4153Z" fill="#808080"/>
<path d="M7.89858 47.9834C9.37564 48.6355 10.712 48.6248 11.7562 47.2935C12.8167 45.9406 11.8644 44.6201 11.5236 43.2026C13.1575 44.5069 12.887 46.997 12.0376 47.9079C10.8527 49.1691 9.19709 49.2608 7.89858 47.9834Z" fill="#808080"/>
<path d="M8.19616 3.87295C8.19616 3.87295 9.354 2.33146 11.226 1.94878C13.098 1.5661 14.943 2.06736 16.2469 3.31241C17.5508 4.55746 18.2975 6.03428 18.2975 6.03428L19.5744 5.05872C19.5744 5.05872 20.7322 3.6358 23.2318 2.27756C24.7467 1.5661 25.726 0.973221 27.7766 0.590543C29.8272 0.207864 30.8389 0.083898 33.16 0.294102C35.4811 0.504305 37.4992 1.0918 38.9546 1.92183C40.41 2.75187 40.5291 2.48237 44.127 5.77017L46.4752 9.44065L47.4869 11.6828L43.283 11.7206L40.3505 11.284L39.8744 9.97964L38.8843 8.75614L37.5154 7.62967L35.8707 6.64333L33.6902 6.07201L32.3214 5.61926L31.2177 5.34438L28.902 5.67855L26.6458 6.80502L24.9794 8.32496L23.3941 10.4755L22.9397 11.9577L22.7828 14.4855L22.5068 16.6145L22.826 18.1345L23.5186 19.6544L23.8378 21.115L22.5285 23.244L21.3977 26.4025L20.9811 29.6418L20.5428 31.1401L17.9079 31.3557L16.0467 31.097L14.8781 30.8814L14.0286 30.2508L13.9096 26.009L13.9691 19.8107L13.9475 17.6602L14.0449 15.9408L13.9637 12.7015L13.8663 9.50533L13.4714 7.84526L12.9736 6.68106L12.1404 5.69472L11.0853 4.8539L8.98608 4.29875L8.19616 3.87295Z" fill="#808080"/>
<path d="M14.0773 39.3489L20.2561 39.586L20.6943 41.8767L21.0893 45.2723L21.7602 49.5356L22.4744 51.7832L23.9785 53.7936L23.3076 55.804L22.7124 57.8575L22.8314 60.9352L23.0695 63.4199L24.1787 65.786L25.4447 67.2466L27.268 68.3893L28.296 68.7827L29.5621 68.9013H31.0283L31.9805 68.9822L34.1177 68.7827L36.06 67.9527L37.3694 67.2035L38.3973 66.2549L39.3875 65.3063L40.1016 64.1637L40.7347 63.2582L43.0341 63.1019L46.4427 63.021H47.0378L45.9666 66.0609L43.6293 69.2571L41.4921 71.386L38.4027 73.2024L35.5893 73.8761L32.2619 74.2696L28.9344 74.2319L26.4781 73.7953L24.5357 73.127L22.7124 71.9843L21.3652 71.1165L19.9369 69.8553L18.6275 68.4324L17.1992 70.2488L15.9331 71.9843L14.1909 73.0515L12.2486 73.0892L10.5822 72.5341L8.84 71.2729L8.08795 70.7608C8.08795 70.7608 10.7824 70.2488 12.0105 69.3002L13.3577 66.934L13.9908 64.805L14.0286 60.6225L13.9475 55.7286L14.1044 48.7811L14.0232 45.0297L13.9853 41.9899L14.0773 39.3489Z" fill="#808080"/>
<path d="M42.3524 56.1059L45.5824 56.6394L48.2552 56.5586L49.1641 56.3646L49.8783 52.3761L50.8684 47.2234L51.68 43.4775L52.0804 41.1275L52.6539 39.5483L53.1462 38.1685L52.9677 36.5084L52.1399 33.5494L51.5015 31.2803L51.2039 29.1459L50.7494 28.2781L49.7377 27.1948L49.2237 25.7341L49.3427 24.6885L49.7972 23.4434L50.1759 22.9314L49.6619 20.4844L49.4022 19.0615L49.1479 17.4068L48.9261 17.008L45.6365 16.6954L42.3524 17.1697L42.2333 18.0536L42.3307 19.1208L42.2929 20.9965L42.1143 23.1093L41.8925 25.0011L41.3785 27.0546L40.7238 29.2483L40.2098 30.7467L41.1621 30.903L42.8664 31.1617L43.8565 31.8516L44.0567 33.1937L44.8466 33.9644L45.8746 34.3579L47.2813 34.6543L48.0171 35.5221L48.45 36.9612L48.5906 37.8882L48.0983 39.171L47.0865 39.8232L44.8087 40.1627L44.035 40.3352L44.0134 41.618L43.5589 42.669L42.6662 43.6338L40.291 43.7523L41.0052 45.9029L41.5787 48.2313L41.9358 50.107L42.1522 51.8641L42.3686 53.6589L42.3903 54.7476L42.3524 56.1059Z" fill="#808080"/>
</svg>
