<svg width="163" height="74" viewBox="0 0 163 74" fill="none" xmlns="http://www.w3.org/2000/svg">
<path d="M37.2837 67.4211L34.4271 70.8971L31.5704 67.4211H29.8907V74H31.3863V69.4228L34.3497 72.9472H34.4271L37.3905 69.4228V74H38.934V67.4211H37.2837Z" fill="#808080"/>
<path d="M46.8556 67.4211V74H53.8139V72.7391H48.3898V71.2917H52.8396V70.0326H48.3898V68.6802H53.7182V67.4211H46.8556Z" fill="#808080"/>
<path d="M69.0218 70.7105C69.0218 72.7588 67.3918 74 64.8427 74H61.253V67.4211H64.8427C67.3918 67.4211 69.0218 68.6605 69.0218 70.7105ZM67.4489 70.7105C67.4489 69.3564 66.3493 68.6999 64.7267 68.6999H62.7964V72.723H64.7267C66.3493 72.7212 67.4489 72.0629 67.4489 70.7105Z" fill="#808080"/>
<path d="M83.4689 72.7391V73.9982H76.5105V67.4211H83.3713V68.6802H78.0448V70.0326H82.4927V71.2917H78.0448V72.7391H83.4689Z" fill="#808080"/>
<path d="M97.229 72.7014V74H90.908V67.4211H92.4514V72.7014H97.229Z" fill="#808080"/>
<path d="M110.739 72.7014V74H104.418V67.4211H105.961V72.7014H110.739Z" fill="#808080"/>
<path d="M118.845 66.6678H117.686L119.104 65.154H121.082L118.845 66.6678ZM117.927 67.4211H119.471V74H117.927V67.4211Z" fill="#808080"/>
<path d="M135.086 67.4211V74H133.736L128.89 69.2434V74H127.394V67.4211H129.035L133.59 71.932V67.4211H135.086Z" fill="#808080"/>
<path d="M110.768 48.1023C108.912 51.8007 104.604 54.3907 99.5847 54.3907C92.8713 54.3907 87.4269 49.7542 87.4269 44.0309C87.4269 38.3093 92.8713 33.6711 99.5847 33.6711C103.756 33.6711 107.438 35.4611 109.628 38.1909L105.841 40.1513C105.432 38.5497 104.384 37.1614 102.915 36.34C100.498 34.9894 97.6361 34.7759 95.2178 36.0297C91.2339 38.0923 89.9631 43.3457 92.3759 47.7669C94.7905 52.1863 99.9752 54.0983 103.959 52.0357C105.613 51.1783 106.801 49.7704 107.449 48.1023H110.768Z" fill="#808080"/>
<path d="M137.362 34.0424H132.804C133.308 36.0081 133.564 38.0259 133.564 40.0527V48.0091C133.564 50.0358 133.31 52.0536 132.804 54.0194H137.362C136.857 52.0536 136.601 50.0358 136.601 48.0091V40.0509C136.601 38.0259 136.857 36.0081 137.362 34.0424Z" fill="#808080"/>
<path d="M137.362 32.5627L140.272 30.3422C138.073 31.4435 135.699 32.1752 133.247 32.5035L132.802 32.5627H137.362Z" fill="#808080"/>
<path d="M152.091 34.0424H148.649C149.124 34.9123 149.124 35.9543 148.649 36.8242L139.259 54.0194H141.74C142.309 52.0518 143.094 50.1488 144.079 48.3445L147.041 42.9207H153.494L156.456 48.3445C157.441 50.1488 158.226 52.0518 158.795 54.0194H163L152.091 34.0424ZM147.851 41.4409L150.269 37.009L152.69 41.4409H147.851Z" fill="#808080"/>
<path d="M130.523 54.0212H125.965L125.967 54.0158C126.47 52.0536 126.724 50.0376 126.724 48.0145V42.9207H116.087V48.0091C116.087 50.0358 116.343 52.0536 116.848 54.0212H112.288C112.792 52.0554 113.048 50.0358 113.048 48.0091V40.0527C113.048 38.0259 112.792 36.0081 112.288 34.0406H116.848C116.343 36.0064 116.087 38.0259 116.087 40.0527V41.4409H126.724V40.0473C126.724 38.0241 126.47 36.0081 125.967 34.046L125.965 34.0406H130.523C130.019 36.0064 129.763 38.0259 129.763 40.0527V48.0091C129.763 50.0358 130.019 52.0554 130.523 54.0212Z" fill="#808080"/>
<path d="M57.7941 54.0212H53.2356L53.2375 54.0158C53.7403 52.0536 53.9944 50.0376 53.9944 48.0145V42.9207H43.358V48.0145C43.358 50.0376 43.6122 52.0536 44.115 54.0158L44.1168 54.0212H39.5583C40.063 52.0554 40.319 50.0358 40.319 48.0091V40.0527C40.319 38.0259 40.063 36.0081 39.5583 34.0406H44.1168L44.115 34.046C43.6122 36.0081 43.358 38.0241 43.358 40.0473V41.4409H53.9944V40.0473C53.9944 38.0241 53.7403 36.0081 53.2375 34.046L53.2356 34.0406H57.7941C57.2894 36.0064 57.0334 38.0259 57.0334 40.0527V48.0091C57.0334 50.0358 57.2894 52.0554 57.7941 54.0212Z" fill="#808080"/>
<path d="M63.8721 52.5415V42.9224H70.1268C71.4898 42.9224 72.8453 43.109 74.1549 43.4767L75.2692 41.4409H63.8721V35.5221H70.2871C72.7275 35.5221 75.1623 35.7696 77.5493 36.2628L75.8935 34.0424H60.0743C60.5789 36.0081 60.8349 38.0259 60.8349 40.0527V48.0109C60.8349 50.0376 60.5789 52.0554 60.0743 54.0212H75.8935L77.5493 51.8007C75.1623 52.2922 72.7275 52.5415 70.2871 52.5415H63.8721Z" fill="#808080"/>
<path d="M19.2064 51.8007H19.2082L17.5524 54.0212H0L13.8007 35.5221H8.23288C5.79249 35.5221 3.35946 35.7696 0.972475 36.2628L2.62826 34.0424H18.663L4.86053 52.5397H11.9478C14.3864 52.5397 16.8194 52.2922 19.2064 51.8007Z" fill="#808080"/>
<path d="M37.2782 34.0424C36.7735 36.0081 36.5175 38.0259 36.5175 40.0509V47.7311C36.5175 51.4097 33.1139 54.3907 28.9182 54.3907C24.7226 54.3907 21.3208 51.4097 21.3208 47.7311V40.0509C21.3208 38.0259 21.0648 36.0064 20.5601 34.0424H25.1204C24.6158 36.0081 24.3598 38.0259 24.3598 40.0509V47.6288C24.3598 50.5326 26.8001 52.9648 29.782 52.9092C32.6718 52.8554 34.998 50.556 34.998 47.7311V40.0509C34.998 38.0259 34.742 36.0064 34.2374 34.0424H37.2782Z" fill="#808080"/>
<path d="M94.4313 14.4294H92.1991C91.2708 16.3683 89.674 18.0238 87.5209 19.0336C83.701 20.8236 79.2051 19.977 76.3079 17.2005L90.0497 4.27951C90.3186 4.61312 90.5654 4.96825 90.7901 5.3449L91.6539 6.80489L93.6209 4.9539C93.0574 4.1701 92.374 3.45625 91.5931 2.82849L94.5989 0H71.0901V10.3598C71.0901 12.982 72.2339 15.3765 74.1199 17.2005L70.3792 20.7178H94.4313V14.4294ZM91.6244 0.740753L90.3425 1.94784C89.5506 1.46178 88.6867 1.05463 87.7677 0.740753H91.6244ZM73.3684 0.740753H78.7281C76.564 1.47971 74.7093 2.73164 73.3684 4.32256V0.740753ZM74.643 15.0841C71.9115 10.358 73.722 4.39789 78.6102 1.86713C78.6986 1.82229 78.787 1.77745 78.8754 1.7344C82.303 0.0842989 86.3145 0.790974 89.0146 3.19439L75.3115 16.0813C75.0703 15.7657 74.8456 15.4339 74.643 15.0841ZM73.3537 19.9788L75.271 18.1763C76.2895 18.9314 77.4554 19.5448 78.7299 19.9788H73.3537ZM87.7658 19.9788C89.4474 19.4049 90.9411 18.5206 92.153 17.4086V19.9788H87.7658Z" fill="#808080"/>
</svg>
